<?xml version="1.0" encoding="utf-8" standalone="no"?>
<!DOCTYPE svg PUBLIC "-//W3C//DTD SVG 1.1//EN"
  "http://www.w3.org/Graphics/SVG/1.1/DTD/svg11.dtd">
<!-- Created with matplotlib (https://matplotlib.org/) -->
<svg height="360pt" version="1.1" viewBox="0 0 864 360" width="864pt" xmlns="http://www.w3.org/2000/svg" xmlns:xlink="http://www.w3.org/1999/xlink">
 <defs>
  <style type="text/css">
*{stroke-linecap:butt;stroke-linejoin:round;}
  </style>
 </defs>
 <g id="figure_1">
  <g id="patch_1">
   <path d="M 0 360 
L 864 360 
L 864 0 
L 0 0 
z
" style="fill:#ffffff;"/>
  </g>
  <g id="axes_1">
   <g id="patch_2">
    <path d="M 108 320.4 
L 777.6 320.4 
L 777.6 43.2 
L 108 43.2 
z
" style="fill:#eaeaf2;"/>
   </g>
   <g id="matplotlib.axis_1">
    <g id="xtick_1">
     <g id="line2d_1">
      <path clip-path="url(#pbc4cfde8ee)" d="M 157.608876 320.4 
L 157.608876 43.2 
" style="fill:none;stroke:#ffffff;stroke-linecap:round;"/>
     </g>
     <g id="text_1">
      <!-- 1969 -->
      <defs>
       <path d="M 12.40625 8.296875 
L 28.515625 8.296875 
L 28.515625 63.921875 
L 10.984375 60.40625 
L 10.984375 69.390625 
L 28.421875 72.90625 
L 38.28125 72.90625 
L 38.28125 8.296875 
L 54.390625 8.296875 
L 54.390625 0 
L 12.40625 0 
z
" id="DejaVuSans-49"/>
       <path d="M 10.984375 1.515625 
L 10.984375 10.5 
Q 14.703125 8.734375 18.5 7.8125 
Q 22.3125 6.890625 25.984375 6.890625 
Q 35.75 6.890625 40.890625 13.453125 
Q 46.046875 20.015625 46.78125 33.40625 
Q 43.953125 29.203125 39.59375 26.953125 
Q 35.25 24.703125 29.984375 24.703125 
Q 19.046875 24.703125 12.671875 31.3125 
Q 6.296875 37.9375 6.296875 49.421875 
Q 6.296875 60.640625 12.9375 67.421875 
Q 19.578125 74.21875 30.609375 74.21875 
Q 43.265625 74.21875 49.921875 64.515625 
Q 56.59375 54.828125 56.59375 36.375 
Q 56.59375 19.140625 48.40625 8.859375 
Q 40.234375 -1.421875 26.421875 -1.421875 
Q 22.703125 -1.421875 18.890625 -0.6875 
Q 15.09375 0.046875 10.984375 1.515625 
z
M 30.609375 32.421875 
Q 37.25 32.421875 41.125 36.953125 
Q 45.015625 41.5 45.015625 49.421875 
Q 45.015625 57.28125 41.125 61.84375 
Q 37.25 66.40625 30.609375 66.40625 
Q 23.96875 66.40625 20.09375 61.84375 
Q 16.21875 57.28125 16.21875 49.421875 
Q 16.21875 41.5 20.09375 36.953125 
Q 23.96875 32.421875 30.609375 32.421875 
z
" id="DejaVuSans-57"/>
       <path d="M 33.015625 40.375 
Q 26.375 40.375 22.484375 35.828125 
Q 18.609375 31.296875 18.609375 23.390625 
Q 18.609375 15.53125 22.484375 10.953125 
Q 26.375 6.390625 33.015625 6.390625 
Q 39.65625 6.390625 43.53125 10.953125 
Q 47.40625 15.53125 47.40625 23.390625 
Q 47.40625 31.296875 43.53125 35.828125 
Q 39.65625 40.375 33.015625 40.375 
z
M 52.59375 71.296875 
L 52.59375 62.3125 
Q 48.875 64.0625 45.09375 64.984375 
Q 41.3125 65.921875 37.59375 65.921875 
Q 27.828125 65.921875 22.671875 59.328125 
Q 17.53125 52.734375 16.796875 39.40625 
Q 19.671875 43.65625 24.015625 45.921875 
Q 28.375 48.1875 33.59375 48.1875 
Q 44.578125 48.1875 50.953125 41.515625 
Q 57.328125 34.859375 57.328125 23.390625 
Q 57.328125 12.15625 50.6875 5.359375 
Q 44.046875 -1.421875 33.015625 -1.421875 
Q 20.359375 -1.421875 13.671875 8.265625 
Q 6.984375 17.96875 6.984375 36.375 
Q 6.984375 53.65625 15.1875 63.9375 
Q 23.390625 74.21875 37.203125 74.21875 
Q 40.921875 74.21875 44.703125 73.484375 
Q 48.484375 72.75 52.59375 71.296875 
z
" id="DejaVuSans-54"/>
      </defs>
      <g style="fill:#262626;" transform="translate(143.611376 338.258281)scale(0.11 -0.11)">
       <use xlink:href="#DejaVuSans-49"/>
       <use x="63.623047" xlink:href="#DejaVuSans-57"/>
       <use x="127.246094" xlink:href="#DejaVuSans-54"/>
       <use x="190.869141" xlink:href="#DejaVuSans-57"/>
      </g>
     </g>
    </g>
    <g id="xtick_2">
     <g id="line2d_2">
      <path clip-path="url(#pbc4cfde8ee)" d="M 272.643951 320.4 
L 272.643951 43.2 
" style="fill:none;stroke:#ffffff;stroke-linecap:round;"/>
     </g>
     <g id="text_2">
      <!-- 1979 -->
      <defs>
       <path d="M 8.203125 72.90625 
L 55.078125 72.90625 
L 55.078125 68.703125 
L 28.609375 0 
L 18.3125 0 
L 43.21875 64.59375 
L 8.203125 64.59375 
z
" id="DejaVuSans-55"/>
      </defs>
      <g style="fill:#262626;" transform="translate(258.646451 338.258281)scale(0.11 -0.11)">
       <use xlink:href="#DejaVuSans-49"/>
       <use x="63.623047" xlink:href="#DejaVuSans-57"/>
       <use x="127.246094" xlink:href="#DejaVuSans-55"/>
       <use x="190.869141" xlink:href="#DejaVuSans-57"/>
      </g>
     </g>
    </g>
    <g id="xtick_3">
     <g id="line2d_3">
      <path clip-path="url(#pbc4cfde8ee)" d="M 387.679026 320.4 
L 387.679026 43.2 
" style="fill:none;stroke:#ffffff;stroke-linecap:round;"/>
     </g>
     <g id="text_3">
      <!-- 1989 -->
      <defs>
       <path d="M 31.78125 34.625 
Q 24.75 34.625 20.71875 30.859375 
Q 16.703125 27.09375 16.703125 20.515625 
Q 16.703125 13.921875 20.71875 10.15625 
Q 24.75 6.390625 31.78125 6.390625 
Q 38.8125 6.390625 42.859375 10.171875 
Q 46.921875 13.96875 46.921875 20.515625 
Q 46.921875 27.09375 42.890625 30.859375 
Q 38.875 34.625 31.78125 34.625 
z
M 21.921875 38.8125 
Q 15.578125 40.375 12.03125 44.71875 
Q 8.5 49.078125 8.5 55.328125 
Q 8.5 64.0625 14.71875 69.140625 
Q 20.953125 74.21875 31.78125 74.21875 
Q 42.671875 74.21875 48.875 69.140625 
Q 55.078125 64.0625 55.078125 55.328125 
Q 55.078125 49.078125 51.53125 44.71875 
Q 48 40.375 41.703125 38.8125 
Q 48.828125 37.15625 52.796875 32.3125 
Q 56.78125 27.484375 56.78125 20.515625 
Q 56.78125 9.90625 50.3125 4.234375 
Q 43.84375 -1.421875 31.78125 -1.421875 
Q 19.734375 -1.421875 13.25 4.234375 
Q 6.78125 9.90625 6.78125 20.515625 
Q 6.78125 27.484375 10.78125 32.3125 
Q 14.796875 37.15625 21.921875 38.8125 
z
M 18.3125 54.390625 
Q 18.3125 48.734375 21.84375 45.5625 
Q 25.390625 42.390625 31.78125 42.390625 
Q 38.140625 42.390625 41.71875 45.5625 
Q 45.3125 48.734375 45.3125 54.390625 
Q 45.3125 60.0625 41.71875 63.234375 
Q 38.140625 66.40625 31.78125 66.40625 
Q 25.390625 66.40625 21.84375 63.234375 
Q 18.3125 60.0625 18.3125 54.390625 
z
" id="DejaVuSans-56"/>
      </defs>
      <g style="fill:#262626;" transform="translate(373.681526 338.258281)scale(0.11 -0.11)">
       <use xlink:href="#DejaVuSans-49"/>
       <use x="63.623047" xlink:href="#DejaVuSans-57"/>
       <use x="127.246094" xlink:href="#DejaVuSans-56"/>
       <use x="190.869141" xlink:href="#DejaVuSans-57"/>
      </g>
     </g>
    </g>
    <g id="xtick_4">
     <g id="line2d_4">
      <path clip-path="url(#pbc4cfde8ee)" d="M 502.714102 320.4 
L 502.714102 43.2 
" style="fill:none;stroke:#ffffff;stroke-linecap:round;"/>
     </g>
     <g id="text_4">
      <!-- 1999 -->
      <g style="fill:#262626;" transform="translate(488.716602 338.258281)scale(0.11 -0.11)">
       <use xlink:href="#DejaVuSans-49"/>
       <use x="63.623047" xlink:href="#DejaVuSans-57"/>
       <use x="127.246094" xlink:href="#DejaVuSans-57"/>
       <use x="190.869141" xlink:href="#DejaVuSans-57"/>
      </g>
     </g>
    </g>
    <g id="xtick_5">
     <g id="line2d_5">
      <path clip-path="url(#pbc4cfde8ee)" d="M 617.749177 320.4 
L 617.749177 43.2 
" style="fill:none;stroke:#ffffff;stroke-linecap:round;"/>
     </g>
     <g id="text_5">
      <!-- 2009 -->
      <defs>
       <path d="M 19.1875 8.296875 
L 53.609375 8.296875 
L 53.609375 0 
L 7.328125 0 
L 7.328125 8.296875 
Q 12.9375 14.109375 22.625 23.890625 
Q 32.328125 33.6875 34.8125 36.53125 
Q 39.546875 41.84375 41.421875 45.53125 
Q 43.3125 49.21875 43.3125 52.78125 
Q 43.3125 58.59375 39.234375 62.25 
Q 35.15625 65.921875 28.609375 65.921875 
Q 23.96875 65.921875 18.8125 64.3125 
Q 13.671875 62.703125 7.8125 59.421875 
L 7.8125 69.390625 
Q 13.765625 71.78125 18.9375 73 
Q 24.125 74.21875 28.421875 74.21875 
Q 39.75 74.21875 46.484375 68.546875 
Q 53.21875 62.890625 53.21875 53.421875 
Q 53.21875 48.921875 51.53125 44.890625 
Q 49.859375 40.875 45.40625 35.40625 
Q 44.1875 33.984375 37.640625 27.21875 
Q 31.109375 20.453125 19.1875 8.296875 
z
" id="DejaVuSans-50"/>
       <path d="M 31.78125 66.40625 
Q 24.171875 66.40625 20.328125 58.90625 
Q 16.5 51.421875 16.5 36.375 
Q 16.5 21.390625 20.328125 13.890625 
Q 24.171875 6.390625 31.78125 6.390625 
Q 39.453125 6.390625 43.28125 13.890625 
Q 47.125 21.390625 47.125 36.375 
Q 47.125 51.421875 43.28125 58.90625 
Q 39.453125 66.40625 31.78125 66.40625 
z
M 31.78125 74.21875 
Q 44.046875 74.21875 50.515625 64.515625 
Q 56.984375 54.828125 56.984375 36.375 
Q 56.984375 17.96875 50.515625 8.265625 
Q 44.046875 -1.421875 31.78125 -1.421875 
Q 19.53125 -1.421875 13.0625 8.265625 
Q 6.59375 17.96875 6.59375 36.375 
Q 6.59375 54.828125 13.0625 64.515625 
Q 19.53125 74.21875 31.78125 74.21875 
z
" id="DejaVuSans-48"/>
      </defs>
      <g style="fill:#262626;" transform="translate(603.751677 338.258281)scale(0.11 -0.11)">
       <use xlink:href="#DejaVuSans-50"/>
       <use x="63.623047" xlink:href="#DejaVuSans-48"/>
       <use x="127.246094" xlink:href="#DejaVuSans-48"/>
       <use x="190.869141" xlink:href="#DejaVuSans-57"/>
      </g>
     </g>
    </g>
    <g id="xtick_6">
     <g id="line2d_6">
      <path clip-path="url(#pbc4cfde8ee)" d="M 732.784252 320.4 
L 732.784252 43.2 
" style="fill:none;stroke:#ffffff;stroke-linecap:round;"/>
     </g>
     <g id="text_6">
      <!-- 2019 -->
      <g style="fill:#262626;" transform="translate(718.786752 338.258281)scale(0.11 -0.11)">
       <use xlink:href="#DejaVuSans-50"/>
       <use x="63.623047" xlink:href="#DejaVuSans-48"/>
       <use x="127.246094" xlink:href="#DejaVuSans-49"/>
       <use x="190.869141" xlink:href="#DejaVuSans-57"/>
      </g>
     </g>
    </g>
    <g id="xtick_7"/>
    <g id="xtick_8"/>
    <g id="xtick_9"/>
    <g id="xtick_10"/>
    <g id="xtick_11"/>
    <g id="xtick_12"/>
    <g id="xtick_13"/>
    <g id="xtick_14"/>
    <g id="xtick_15"/>
    <g id="xtick_16"/>
    <g id="xtick_17"/>
    <g id="text_7">
     <!-- DATE -->
     <defs>
      <path d="M 19.671875 64.796875 
L 19.671875 8.109375 
L 31.59375 8.109375 
Q 46.6875 8.109375 53.6875 14.9375 
Q 60.6875 21.78125 60.6875 36.53125 
Q 60.6875 51.171875 53.6875 57.984375 
Q 46.6875 64.796875 31.59375 64.796875 
z
M 9.8125 72.90625 
L 30.078125 72.90625 
Q 51.265625 72.90625 61.171875 64.09375 
Q 71.09375 55.28125 71.09375 36.53125 
Q 71.09375 17.671875 61.125 8.828125 
Q 51.171875 0 30.078125 0 
L 9.8125 0 
z
" id="DejaVuSans-68"/>
      <path d="M 34.1875 63.1875 
L 20.796875 26.90625 
L 47.609375 26.90625 
z
M 28.609375 72.90625 
L 39.796875 72.90625 
L 67.578125 0 
L 57.328125 0 
L 50.6875 18.703125 
L 17.828125 18.703125 
L 11.1875 0 
L 0.78125 0 
z
" id="DejaVuSans-65"/>
      <path d="M -0.296875 72.90625 
L 61.375 72.90625 
L 61.375 64.59375 
L 35.5 64.59375 
L 35.5 0 
L 25.59375 0 
L 25.59375 64.59375 
L -0.296875 64.59375 
z
" id="DejaVuSans-84"/>
      <path d="M 9.8125 72.90625 
L 55.90625 72.90625 
L 55.90625 64.59375 
L 19.671875 64.59375 
L 19.671875 43.015625 
L 54.390625 43.015625 
L 54.390625 34.71875 
L 19.671875 34.71875 
L 19.671875 8.296875 
L 56.78125 8.296875 
L 56.78125 0 
L 9.8125 0 
z
" id="DejaVuSans-69"/>
     </defs>
     <g style="fill:#262626;" transform="translate(426.627187 353.664062)scale(0.12 -0.12)">
      <use xlink:href="#DejaVuSans-68"/>
      <use x="76.986328" xlink:href="#DejaVuSans-65"/>
      <use x="145.285156" xlink:href="#DejaVuSans-84"/>
      <use x="206.369141" xlink:href="#DejaVuSans-69"/>
     </g>
    </g>
   </g>
   <g id="matplotlib.axis_2">
    <g id="ytick_1">
     <g id="line2d_7">
      <path clip-path="url(#pbc4cfde8ee)" d="M 108 298.98601 
L 777.6 298.98601 
" style="fill:none;stroke:#ffffff;stroke-linecap:round;"/>
     </g>
     <g id="text_8">
      <!-- −4 -->
      <defs>
       <path d="M 10.59375 35.5 
L 73.1875 35.5 
L 73.1875 27.203125 
L 10.59375 27.203125 
z
" id="DejaVuSans-8722"/>
       <path d="M 37.796875 64.3125 
L 12.890625 25.390625 
L 37.796875 25.390625 
z
M 35.203125 72.90625 
L 47.609375 72.90625 
L 47.609375 25.390625 
L 58.015625 25.390625 
L 58.015625 17.1875 
L 47.609375 17.1875 
L 47.609375 0 
L 37.796875 0 
L 37.796875 17.1875 
L 4.890625 17.1875 
L 4.890625 26.703125 
z
" id="DejaVuSans-52"/>
      </defs>
      <g style="fill:#262626;" transform="translate(82.283594 303.16515)scale(0.11 -0.11)">
       <use xlink:href="#DejaVuSans-8722"/>
       <use x="83.789062" xlink:href="#DejaVuSans-52"/>
      </g>
     </g>
    </g>
    <g id="ytick_2">
     <g id="line2d_8">
      <path clip-path="url(#pbc4cfde8ee)" d="M 108 258.922417 
L 777.6 258.922417 
" style="fill:none;stroke:#ffffff;stroke-linecap:round;"/>
     </g>
     <g id="text_9">
      <!-- −3 -->
      <defs>
       <path d="M 40.578125 39.3125 
Q 47.65625 37.796875 51.625 33 
Q 55.609375 28.21875 55.609375 21.1875 
Q 55.609375 10.40625 48.1875 4.484375 
Q 40.765625 -1.421875 27.09375 -1.421875 
Q 22.515625 -1.421875 17.65625 -0.515625 
Q 12.796875 0.390625 7.625 2.203125 
L 7.625 11.71875 
Q 11.71875 9.328125 16.59375 8.109375 
Q 21.484375 6.890625 26.8125 6.890625 
Q 36.078125 6.890625 40.9375 10.546875 
Q 45.796875 14.203125 45.796875 21.1875 
Q 45.796875 27.640625 41.28125 31.265625 
Q 36.765625 34.90625 28.71875 34.90625 
L 20.21875 34.90625 
L 20.21875 43.015625 
L 29.109375 43.015625 
Q 36.375 43.015625 40.234375 45.921875 
Q 44.09375 48.828125 44.09375 54.296875 
Q 44.09375 59.90625 40.109375 62.90625 
Q 36.140625 65.921875 28.71875 65.921875 
Q 24.65625 65.921875 20.015625 65.03125 
Q 15.375 64.15625 9.8125 62.3125 
L 9.8125 71.09375 
Q 15.4375 72.65625 20.34375 73.4375 
Q 25.25 74.21875 29.59375 74.21875 
Q 40.828125 74.21875 47.359375 69.109375 
Q 53.90625 64.015625 53.90625 55.328125 
Q 53.90625 49.265625 50.4375 45.09375 
Q 46.96875 40.921875 40.578125 39.3125 
z
" id="DejaVuSans-51"/>
      </defs>
      <g style="fill:#262626;" transform="translate(82.283594 263.101557)scale(0.11 -0.11)">
       <use xlink:href="#DejaVuSans-8722"/>
       <use x="83.789062" xlink:href="#DejaVuSans-51"/>
      </g>
     </g>
    </g>
    <g id="ytick_3">
     <g id="line2d_9">
      <path clip-path="url(#pbc4cfde8ee)" d="M 108 218.858824 
L 777.6 218.858824 
" style="fill:none;stroke:#ffffff;stroke-linecap:round;"/>
     </g>
     <g id="text_10">
      <!-- −2 -->
      <g style="fill:#262626;" transform="translate(82.283594 223.037964)scale(0.11 -0.11)">
       <use xlink:href="#DejaVuSans-8722"/>
       <use x="83.789062" xlink:href="#DejaVuSans-50"/>
      </g>
     </g>
    </g>
    <g id="ytick_4">
     <g id="line2d_10">
      <path clip-path="url(#pbc4cfde8ee)" d="M 108 178.795231 
L 777.6 178.795231 
" style="fill:none;stroke:#ffffff;stroke-linecap:round;"/>
     </g>
     <g id="text_11">
      <!-- −1 -->
      <g style="fill:#262626;" transform="translate(82.283594 182.974371)scale(0.11 -0.11)">
       <use xlink:href="#DejaVuSans-8722"/>
       <use x="83.789062" xlink:href="#DejaVuSans-49"/>
      </g>
     </g>
    </g>
    <g id="ytick_5">
     <g id="line2d_11">
      <path clip-path="url(#pbc4cfde8ee)" d="M 108 138.731638 
L 777.6 138.731638 
" style="fill:none;stroke:#ffffff;stroke-linecap:round;"/>
     </g>
     <g id="text_12">
      <!-- 0 -->
      <g style="fill:#262626;" transform="translate(91.50125 142.910778)scale(0.11 -0.11)">
       <use xlink:href="#DejaVuSans-48"/>
      </g>
     </g>
    </g>
    <g id="ytick_6">
     <g id="line2d_12">
      <path clip-path="url(#pbc4cfde8ee)" d="M 108 98.668045 
L 777.6 98.668045 
" style="fill:none;stroke:#ffffff;stroke-linecap:round;"/>
     </g>
     <g id="text_13">
      <!-- 1 -->
      <g style="fill:#262626;" transform="translate(91.50125 102.847185)scale(0.11 -0.11)">
       <use xlink:href="#DejaVuSans-49"/>
      </g>
     </g>
    </g>
    <g id="ytick_7">
     <g id="line2d_13">
      <path clip-path="url(#pbc4cfde8ee)" d="M 108 58.604452 
L 777.6 58.604452 
" style="fill:none;stroke:#ffffff;stroke-linecap:round;"/>
     </g>
     <g id="text_14">
      <!-- 2 -->
      <g style="fill:#262626;" transform="translate(91.50125 62.783592)scale(0.11 -0.11)">
       <use xlink:href="#DejaVuSans-50"/>
      </g>
     </g>
    </g>
   </g>
   <g id="line2d_14">
    <path clip-path="url(#pbc4cfde8ee)" d="M 138.436364 138.731638 
L 168.153758 138.731638 
L 169.112384 98.668045 
L 178.69864 98.668045 
L 179.657266 138.731638 
L 213.209162 138.731638 
L 214.167788 98.668045 
L 228.547173 98.668045 
L 229.505798 138.731638 
L 284.147459 138.731638 
L 285.106084 98.668045 
L 289.899213 98.668045 
L 290.857838 138.731638 
L 301.40272 138.731638 
L 302.361346 98.668045 
L 316.74073 98.668045 
L 317.699356 138.731638 
L 404.934288 138.731638 
L 405.892913 98.668045 
L 412.603293 98.668045 
L 413.561918 138.731638 
L 527.638368 138.731638 
L 528.596994 98.668045 
L 535.307373 98.668045 
L 536.265999 138.731638 
L 605.287044 138.731638 
L 606.245669 98.668045 
L 622.542305 98.668045 
L 623.500931 138.731638 
L 747.163636 138.731638 
L 747.163636 138.731638 
" style="fill:none;stroke:#4c72b0;stroke-linecap:round;stroke-width:1.5;"/>
   </g>
   <g id="line2d_15">
    <path clip-path="url(#pbc4cfde8ee)" d="M 138.436364 155.958983 
L 139.394989 149.148172 
L 140.353615 151.952623 
L 141.312241 122.305564 
L 142.270866 124.70938 
L 143.229492 119.501113 
L 144.188117 111.087758 
L 145.146743 91.055962 
L 146.105369 102.674404 
L 147.063994 120.703021 
L 148.02262 132.321463 
L 148.981246 116.296025 
L 149.939871 115.094118 
L 150.898497 115.494754 
L 151.857122 116.296025 
L 152.815748 125.911288 
L 153.774374 122.7062 
L 154.732999 115.494754 
L 155.691625 101.472496 
L 156.650251 107.882671 
L 158.567502 118.299205 
L 159.526127 109.885851 
L 160.484753 113.89221 
L 161.443379 124.70938 
L 162.402004 126.311924 
L 163.36063 124.308744 
L 164.319256 115.494754 
L 165.277881 129.517011 
L 166.236507 127.914467 
L 167.195132 153.154531 
L 168.153758 152.753895 
L 169.112384 184.804769 
L 170.071009 172.785692 
L 171.029635 179.195866 
L 171.988261 168.779332 
L 172.946886 174.788871 
L 173.905512 172.385056 
L 174.864137 156.359618 
L 175.822763 159.564706 
L 176.781389 165.574245 
L 177.740014 200.028935 
L 178.69864 207.240382 
L 180.615891 119.100477 
L 181.574517 100.671224 
L 182.533142 133.52337 
L 183.491768 133.924006 
L 184.450394 122.305564 
L 185.409019 115.094118 
L 187.326271 138.331002 
L 188.284896 123.507472 
L 189.243522 113.090938 
L 190.202147 98.668045 
L 191.160773 101.07186 
L 192.119399 79.036884 
L 193.078024 82.642607 
L 194.03665 79.43752 
L 194.995276 94.261049 
L 195.953901 92.25787 
L 196.912527 101.07186 
L 197.871152 117.898569 
L 198.829778 98.267409 
L 199.788404 94.661685 
L 200.747029 64.213355 
L 201.705655 67.418442 
L 202.664281 58.203816 
L 203.622906 65.014626 
L 204.581532 65.415262 
L 205.540157 79.43752 
L 207.457409 115.89539 
L 208.416034 121.103657 
L 209.37466 114.693482 
L 210.333286 128.715739 
L 211.291911 121.103657 
L 212.250537 108.283307 
L 213.209162 86.648967 
L 214.167788 105.879491 
L 215.126414 133.52337 
L 216.085039 155.157711 
L 217.043665 147.545628 
L 218.002291 149.148172 
L 218.960916 134.725278 
L 219.919542 141.135453 
L 220.878168 140.334181 
L 221.836793 165.574245 
L 222.795419 176.391415 
L 223.754044 192.016216 
L 224.71267 227.672814 
L 225.671296 280.957393 
L 226.629921 300.588553 
L 227.588547 293.377107 
L 228.547173 264.931955 
L 229.505798 232.480445 
L 231.423049 151.952623 
L 232.381675 129.517011 
L 233.340301 109.885851 
L 234.298926 99.469316 
L 235.257552 104.276948 
L 236.216178 117.097297 
L 237.174803 110.687122 
L 238.133429 88.25151 
L 239.092054 72.626709 
L 240.05068 81.841335 
L 241.009306 104.276948 
L 241.967931 118.299205 
L 242.926557 124.308744 
L 243.885183 125.911288 
L 244.843808 124.308744 
L 245.802434 119.100477 
L 246.761059 132.321463 
L 248.678311 105.478855 
L 249.636936 99.06868 
L 250.595562 97.065501 
L 251.554188 94.261049 
L 252.512813 79.036884 
L 253.471439 85.046423 
L 254.430064 93.059141 
L 255.38869 99.469316 
L 256.347316 108.683943 
L 257.305941 112.690302 
L 258.264567 112.289666 
L 259.223193 106.680763 
L 260.181818 100.270588 
L 261.140444 129.116375 
L 262.099069 121.904928 
L 263.057695 112.289666 
L 264.016321 55.8 
L 264.974946 65.815898 
L 265.933572 74.629889 
L 266.892198 111.88903 
L 267.850823 105.478855 
L 268.809449 117.898569 
L 269.768074 101.873132 
L 270.7267 100.671224 
L 271.685326 96.264229 
L 272.643951 118.299205 
L 273.602577 129.917647 
L 274.561203 120.302385 
L 275.519828 140.334181 
L 276.478454 121.904928 
L 277.437079 141.536089 
L 278.395705 118.299205 
L 279.354331 151.952623 
L 280.312956 151.952623 
L 281.271582 148.747536 
L 282.230208 143.939905 
L 283.188833 146.744356 
L 284.147459 145.542448 
L 285.106084 149.949444 
L 286.06471 167.97806 
L 287.023336 216.054372 
L 287.981961 254.515421 
L 288.940587 260.52496 
L 289.899213 229.275358 
L 290.857838 173.586963 
L 291.816464 127.914467 
L 292.775089 90.25469 
L 293.733715 83.844515 
L 294.692341 96.664865 
L 295.650966 123.106836 
L 296.609592 145.542448 
L 297.568218 152.753895 
L 298.526843 146.744356 
L 299.485469 139.532909 
L 300.444094 145.542448 
L 301.40272 145.141812 
L 302.361346 153.154531 
L 303.319971 165.974881 
L 304.278597 192.016216 
L 305.237223 210.846105 
L 307.154474 236.88744 
L 308.113099 196.022576 
L 310.030351 170.381876 
L 310.988976 196.022576 
L 311.947602 200.429571 
L 312.906228 194.820668 
L 313.864853 204.43593 
L 314.823479 194.820668 
L 315.782105 203.634658 
L 316.74073 194.420032 
L 317.699356 189.211765 
L 318.657981 140.334181 
L 319.616607 136.728458 
L 320.575233 113.491574 
L 321.533858 122.305564 
L 322.492484 93.459777 
L 324.409735 72.226073 
L 325.368361 87.049603 
L 326.326986 73.427981 
L 327.285612 77.43434 
L 328.244238 65.415262 
L 329.202863 82.241971 
L 330.161489 75.431161 
L 331.120115 75.030525 
L 332.07874 85.447059 
L 333.037366 99.469316 
L 333.995991 102.674404 
L 334.954617 99.469316 
L 335.913243 108.683943 
L 336.871868 121.904928 
L 337.830494 133.52337 
L 338.78912 133.924006 
L 339.747745 124.308744 
L 340.706371 123.908108 
L 341.664996 128.715739 
L 342.623622 139.132273 
L 343.582248 133.122734 
L 344.540873 136.728458 
L 345.499499 128.715739 
L 346.458125 146.34372 
L 347.41675 145.943084 
L 348.375376 142.737997 
L 349.334001 128.315103 
L 350.292627 129.116375 
L 351.251253 133.122734 
L 352.209878 132.321463 
L 353.168504 115.494754 
L 354.12713 132.722099 
L 355.085755 141.936725 
L 356.044381 144.741176 
L 357.003006 136.728458 
L 357.961632 136.728458 
L 358.920258 137.52973 
L 359.878883 133.52337 
L 360.837509 119.100477 
L 361.796135 129.517011 
L 362.75476 128.715739 
L 363.713386 124.308744 
L 364.672011 134.725278 
L 365.630637 110.286486 
L 366.589263 122.305564 
L 367.547888 102.273768 
L 368.506514 119.501113 
L 369.46514 117.898569 
L 370.423765 110.687122 
L 371.382391 113.090938 
L 372.341016 108.683943 
L 373.299642 106.280127 
L 374.258268 107.482035 
L 375.216893 106.280127 
L 376.175519 125.110016 
L 377.134145 119.100477 
L 378.09277 121.904928 
L 379.051396 112.690302 
L 380.010021 124.70938 
L 380.968647 121.904928 
L 381.927273 127.914467 
L 382.885898 127.914467 
L 383.844524 135.125914 
L 384.80315 126.311924 
L 385.761775 120.703021 
L 386.720401 112.690302 
L 387.679026 116.296025 
L 388.637652 127.914467 
L 389.596278 141.536089 
L 390.554903 145.542448 
L 391.513529 150.750715 
L 392.472155 151.952623 
L 393.43078 169.580604 
L 394.389406 148.3469 
L 395.348031 153.955803 
L 396.306657 145.542448 
L 397.265283 151.551987 
L 398.223908 143.138633 
L 399.182534 139.933545 
L 400.14116 131.920827 
L 401.099785 128.715739 
L 402.058411 137.930366 
L 403.017037 150.750715 
L 403.975662 155.558347 
L 404.934288 154.757075 
L 405.892913 159.965342 
L 406.851539 173.586963 
L 407.810165 182.000318 
L 408.76879 202.833386 
L 409.727416 205.637838 
L 410.686042 206.839746 
L 411.644667 200.028935 
L 412.603293 200.830207 
L 413.561918 181.199046 
L 414.520544 163.971701 
L 415.47917 143.138633 
L 416.437795 141.936725 
L 417.396421 144.741176 
L 418.355047 140.734817 
L 419.313672 148.747536 
L 420.272298 151.151351 
L 421.230923 171.183148 
L 422.189549 166.375517 
L 423.148175 157.561526 
L 424.1068 135.125914 
L 425.065426 126.71256 
L 426.024052 128.315103 
L 426.982677 136.728458 
L 427.941303 133.924006 
L 428.899928 143.138633 
L 429.858554 142.737997 
L 430.81718 145.141812 
L 431.775805 132.722099 
L 432.734431 124.70938 
L 433.693057 123.507472 
L 434.651682 121.904928 
L 435.610308 139.132273 
L 436.568933 139.933545 
L 437.527559 143.939905 
L 438.486185 134.324642 
L 439.44481 138.731638 
L 440.403436 137.930366 
L 442.320687 124.70938 
L 443.279313 119.100477 
L 444.237938 115.89539 
L 445.196564 120.703021 
L 446.15519 123.507472 
L 447.113815 113.89221 
L 448.072441 109.885851 
L 449.031067 103.07504 
L 449.989692 113.491574 
L 450.948318 117.097297 
L 451.906943 112.289666 
L 452.865569 115.89539 
L 453.824195 106.280127 
L 454.78282 110.286486 
L 455.741446 102.674404 
L 456.700072 111.88903 
L 458.617323 140.734817 
L 459.575948 152.753895 
L 460.534574 151.952623 
L 461.4932 146.34372 
L 462.451825 147.946264 
L 463.410451 131.520191 
L 464.369077 133.122734 
L 465.327702 127.113196 
L 466.286328 141.536089 
L 467.244953 143.138633 
L 468.203579 155.958983 
L 469.162205 139.933545 
L 470.12083 143.539269 
L 471.079456 119.100477 
L 472.038082 125.911288 
L 472.996707 114.693482 
L 473.955333 121.504293 
L 474.913958 124.308744 
L 475.872584 127.513831 
L 476.83121 127.113196 
L 477.789835 123.507472 
L 478.748461 127.513831 
L 479.707087 123.908108 
L 480.665712 116.696661 
L 481.624338 111.88903 
L 482.582963 114.292846 
L 483.541589 124.308744 
L 484.500215 123.908108 
L 485.45884 114.292846 
L 486.417466 114.292846 
L 487.376092 109.084579 
L 488.334717 111.88903 
L 489.293343 104.677583 
L 490.251969 115.494754 
L 491.210594 117.898569 
L 492.16922 125.110016 
L 493.127845 126.311924 
L 494.086471 127.914467 
L 495.045097 127.914467 
L 496.003722 136.728458 
L 496.962348 150.750715 
L 497.920974 135.927186 
L 498.879599 128.315103 
L 499.838225 113.89221 
L 500.79685 132.722099 
L 501.755476 127.113196 
L 502.714102 130.318283 
L 503.672727 122.7062 
L 504.631353 129.116375 
L 505.589979 130.318283 
L 506.548604 129.517011 
L 507.50723 129.116375 
L 508.465855 125.911288 
L 509.424481 130.718919 
L 510.383107 132.321463 
L 511.341732 120.302385 
L 512.300358 119.100477 
L 513.258984 104.276948 
L 514.217609 114.292846 
L 515.176235 126.311924 
L 516.13486 128.315103 
L 517.093486 123.908108 
L 518.052112 128.715739 
L 519.010737 135.52655 
L 519.969363 150.750715 
L 520.927989 149.548808 
L 521.886614 145.943084 
L 522.84524 150.750715 
L 523.803865 149.148172 
L 524.762491 160.365978 
L 525.721117 166.375517 
L 526.679742 171.583784 
L 527.638368 180.79841 
L 528.596994 184.804769 
L 529.555619 184.003498 
L 530.514245 189.612401 
L 531.47287 181.599682 
L 532.431496 182.400954 
L 533.390122 182.80159 
L 534.348747 184.804769 
L 535.307373 190.013037 
L 536.265999 176.792051 
L 537.224624 167.176789 
L 538.18325 153.555167 
L 539.141875 147.946264 
L 541.059127 139.933545 
L 542.017752 132.722099 
L 542.976378 141.536089 
L 543.935004 143.939905 
L 544.893629 155.558347 
L 545.852255 155.157711 
L 546.81088 152.753895 
L 547.769506 159.564706 
L 548.728132 144.741176 
L 549.686757 155.157711 
L 550.645383 147.946264 
L 551.604009 169.179968 
L 552.562634 160.365978 
L 553.52126 153.955803 
L 554.479885 139.532909 
L 555.438511 141.936725 
L 556.397137 136.728458 
L 557.355762 133.924006 
L 558.314388 121.103657 
L 559.273014 127.113196 
L 560.231639 127.914467 
L 561.190265 129.517011 
L 562.14889 120.703021 
L 563.107516 118.699841 
L 564.066142 115.494754 
L 565.024767 129.116375 
L 565.983393 125.110016 
L 566.942019 131.520191 
L 567.900644 123.908108 
L 568.85927 121.904928 
L 569.817895 127.113196 
L 570.776521 115.89539 
L 571.735147 121.504293 
L 572.693772 113.090938 
L 573.652398 131.920827 
L 574.611024 125.911288 
L 575.569649 132.722099 
L 576.528275 121.504293 
L 577.486901 132.722099 
L 578.445526 128.315103 
L 579.404152 145.943084 
L 580.362777 132.722099 
L 581.321403 124.70938 
L 582.280029 107.081399 
L 583.238654 110.286486 
L 584.19728 121.103657 
L 585.155906 122.7062 
L 586.114531 133.52337 
L 588.031782 140.734817 
L 588.990408 145.141812 
L 589.949034 139.933545 
L 590.907659 141.536089 
L 591.866285 141.536089 
L 592.824911 148.3469 
L 593.783536 133.52337 
L 594.742162 138.331002 
L 595.700787 131.520191 
L 596.659413 139.933545 
L 597.618039 132.722099 
L 598.576664 136.327822 
L 599.53529 143.138633 
L 600.493916 148.3469 
L 601.452541 151.952623 
L 602.411167 151.151351 
L 603.369792 150.750715 
L 604.328418 148.3469 
L 605.287044 156.760254 
L 606.245669 155.958983 
L 607.204295 170.381876 
L 608.162921 176.792051 
L 609.121546 186.407313 
L 610.080172 188.410493 
L 611.038797 188.410493 
L 612.956049 207.641017 
L 613.914674 240.8938 
L 614.8733 240.092528 
L 615.831926 262.127504 
L 616.790551 270.140223 
L 617.749177 307.8 
L 618.707802 289.771383 
L 619.666428 282.1593 
L 620.625054 254.515421 
L 621.583679 249.70779 
L 622.542305 222.063911 
L 623.500931 187.208585 
L 624.459556 165.173609 
L 625.418182 149.949444 
L 626.376807 158.362798 
L 627.335433 154.356439 
L 628.294059 156.760254 
L 629.252684 145.141812 
L 630.21131 152.753895 
L 631.169936 136.327822 
L 632.128561 131.119555 
L 633.087187 116.296025 
L 634.045812 126.71256 
L 635.004438 132.321463 
L 635.963064 143.539269 
L 636.921689 145.141812 
L 637.880315 149.949444 
L 638.838941 151.151351 
L 639.797566 144.340541 
L 640.756192 141.936725 
L 641.714817 142.737997 
L 642.673443 136.728458 
L 643.632069 145.943084 
L 644.590694 145.141812 
L 645.54932 153.154531 
L 646.507946 141.536089 
L 647.466571 136.728458 
L 648.425197 140.334181 
L 649.383822 140.734817 
L 650.342448 146.744356 
L 651.301074 137.129094 
L 652.259699 131.520191 
L 653.218325 125.110016 
L 654.176951 136.728458 
L 655.135576 143.939905 
L 656.094202 147.946264 
L 657.052827 148.747536 
L 658.011453 155.157711 
L 658.970079 159.564706 
L 659.928704 153.555167 
L 660.88733 153.555167 
L 661.845956 139.933545 
L 662.804581 135.125914 
L 663.763207 135.927186 
L 664.721832 136.327822 
L 665.680458 144.741176 
L 666.639084 145.542448 
L 667.597709 147.545628 
L 668.556335 145.141812 
L 669.514961 149.548808 
L 671.432212 140.334181 
L 672.390838 130.718919 
L 673.349463 131.119555 
L 674.308089 135.125914 
L 675.266714 147.144992 
L 676.22534 145.542448 
L 677.183966 135.125914 
L 678.142591 121.103657 
L 679.101217 126.71256 
L 680.059843 131.520191 
L 681.018468 127.113196 
L 681.977094 133.122734 
L 682.935719 135.52655 
L 683.894345 139.132273 
L 684.852971 129.917647 
L 685.811596 130.718919 
L 686.770222 135.927186 
L 687.728848 149.949444 
L 688.687473 152.353259 
L 690.604724 145.542448 
L 691.56335 146.34372 
L 692.521976 140.334181 
L 693.480601 140.734817 
L 694.439227 141.936725 
L 695.397853 151.952623 
L 696.356478 153.555167 
L 697.315104 154.757075 
L 698.273729 148.747536 
L 699.232355 147.144992 
L 700.190981 147.946264 
L 701.149606 155.558347 
L 702.108232 155.558347 
L 703.066858 147.144992 
L 704.025483 139.933545 
L 704.984109 138.731638 
L 706.90136 144.340541 
L 707.859986 141.936725 
L 708.818611 133.122734 
L 709.777237 133.52337 
L 710.735863 133.122734 
L 711.694488 139.933545 
L 712.653114 133.52337 
L 714.570365 131.119555 
L 715.528991 137.930366 
L 716.487616 137.930366 
L 717.446242 139.132273 
L 718.404868 125.911288 
L 719.363493 119.901749 
L 720.322119 118.299205 
L 721.280744 134.324642 
L 722.23937 129.917647 
L 723.197996 130.318283 
L 724.156621 121.103657 
L 725.115247 135.125914 
L 726.073873 133.52337 
L 727.032498 134.324642 
L 727.991124 124.70938 
L 728.949749 128.715739 
L 729.908375 133.52337 
L 730.867001 136.327822 
L 731.825626 137.52973 
L 732.784252 136.728458 
L 733.742878 148.3469 
L 734.701503 148.3469 
L 735.660129 159.16407 
L 736.618754 152.753895 
L 737.57738 150.350079 
L 738.536006 143.939905 
L 739.494631 139.132273 
L 740.453257 147.144992 
L 741.411883 151.151351 
L 742.370508 147.545628 
L 743.329134 146.34372 
L 744.287759 141.135453 
L 745.246385 146.744356 
L 746.205011 197.625119 
L 747.163636 197.625119 
L 747.163636 197.625119 
" style="fill:none;stroke:#dd8452;stroke-linecap:round;stroke-width:1.5;"/>
   </g>
   <g id="line2d_16">
    <path clip-path="url(#pbc4cfde8ee)" d="M 138.436364 166.776153 
L 747.163636 166.776153 
L 747.163636 166.776153 
" style="fill:none;stroke:#55a868;stroke-linecap:round;stroke-width:1.5;"/>
   </g>
   <g id="patch_3">
    <path d="M 108 320.4 
L 108 43.2 
" style="fill:none;stroke:#ffffff;stroke-linecap:square;stroke-linejoin:miter;stroke-width:1.25;"/>
   </g>
   <g id="patch_4">
    <path d="M 777.6 320.4 
L 777.6 43.2 
" style="fill:none;stroke:#ffffff;stroke-linecap:square;stroke-linejoin:miter;stroke-width:1.25;"/>
   </g>
   <g id="patch_5">
    <path d="M 108 320.4 
L 777.6 320.4 
" style="fill:none;stroke:#ffffff;stroke-linecap:square;stroke-linejoin:miter;stroke-width:1.25;"/>
   </g>
   <g id="patch_6">
    <path d="M 108 43.2 
L 777.6 43.2 
" style="fill:none;stroke:#ffffff;stroke-linecap:square;stroke-linejoin:miter;stroke-width:1.25;"/>
   </g>
   <g id="legend_1">
    <g id="patch_7">
     <path d="M 368.507891 314.9 
L 517.092109 314.9 
Q 519.292109 314.9 519.292109 312.7 
L 519.292109 265.362188 
Q 519.292109 263.162187 517.092109 263.162187 
L 368.507891 263.162187 
Q 366.307891 263.162187 366.307891 265.362188 
L 366.307891 312.7 
Q 366.307891 314.9 368.507891 314.9 
z
" style="fill:#eaeaf2;opacity:0.8;stroke:#cccccc;stroke-linejoin:miter;"/>
    </g>
    <g id="line2d_17">
     <path d="M 370.707891 272.070469 
L 392.707891 272.070469 
" style="fill:none;stroke:#4c72b0;stroke-linecap:round;stroke-width:1.5;"/>
    </g>
    <g id="line2d_18"/>
    <g id="text_15">
     <!-- Recession Periods -->
     <defs>
      <path d="M 44.390625 34.1875 
Q 47.5625 33.109375 50.5625 29.59375 
Q 53.5625 26.078125 56.59375 19.921875 
L 66.609375 0 
L 56 0 
L 46.6875 18.703125 
Q 43.0625 26.03125 39.671875 28.421875 
Q 36.28125 30.8125 30.421875 30.8125 
L 19.671875 30.8125 
L 19.671875 0 
L 9.8125 0 
L 9.8125 72.90625 
L 32.078125 72.90625 
Q 44.578125 72.90625 50.734375 67.671875 
Q 56.890625 62.453125 56.890625 51.90625 
Q 56.890625 45.015625 53.6875 40.46875 
Q 50.484375 35.9375 44.390625 34.1875 
z
M 19.671875 64.796875 
L 19.671875 38.921875 
L 32.078125 38.921875 
Q 39.203125 38.921875 42.84375 42.21875 
Q 46.484375 45.515625 46.484375 51.90625 
Q 46.484375 58.296875 42.84375 61.546875 
Q 39.203125 64.796875 32.078125 64.796875 
z
" id="DejaVuSans-82"/>
      <path d="M 56.203125 29.59375 
L 56.203125 25.203125 
L 14.890625 25.203125 
Q 15.484375 15.921875 20.484375 11.0625 
Q 25.484375 6.203125 34.421875 6.203125 
Q 39.59375 6.203125 44.453125 7.46875 
Q 49.3125 8.734375 54.109375 11.28125 
L 54.109375 2.78125 
Q 49.265625 0.734375 44.1875 -0.34375 
Q 39.109375 -1.421875 33.890625 -1.421875 
Q 20.796875 -1.421875 13.15625 6.1875 
Q 5.515625 13.8125 5.515625 26.8125 
Q 5.515625 40.234375 12.765625 48.109375 
Q 20.015625 56 32.328125 56 
Q 43.359375 56 49.78125 48.890625 
Q 56.203125 41.796875 56.203125 29.59375 
z
M 47.21875 32.234375 
Q 47.125 39.59375 43.09375 43.984375 
Q 39.0625 48.390625 32.421875 48.390625 
Q 24.90625 48.390625 20.390625 44.140625 
Q 15.875 39.890625 15.1875 32.171875 
z
" id="DejaVuSans-101"/>
      <path d="M 48.78125 52.59375 
L 48.78125 44.1875 
Q 44.96875 46.296875 41.140625 47.34375 
Q 37.3125 48.390625 33.40625 48.390625 
Q 24.65625 48.390625 19.8125 42.84375 
Q 14.984375 37.3125 14.984375 27.296875 
Q 14.984375 17.28125 19.8125 11.734375 
Q 24.65625 6.203125 33.40625 6.203125 
Q 37.3125 6.203125 41.140625 7.25 
Q 44.96875 8.296875 48.78125 10.40625 
L 48.78125 2.09375 
Q 45.015625 0.34375 40.984375 -0.53125 
Q 36.96875 -1.421875 32.421875 -1.421875 
Q 20.0625 -1.421875 12.78125 6.34375 
Q 5.515625 14.109375 5.515625 27.296875 
Q 5.515625 40.671875 12.859375 48.328125 
Q 20.21875 56 33.015625 56 
Q 37.15625 56 41.109375 55.140625 
Q 45.0625 54.296875 48.78125 52.59375 
z
" id="DejaVuSans-99"/>
      <path d="M 44.28125 53.078125 
L 44.28125 44.578125 
Q 40.484375 46.53125 36.375 47.5 
Q 32.28125 48.484375 27.875 48.484375 
Q 21.1875 48.484375 17.84375 46.4375 
Q 14.5 44.390625 14.5 40.28125 
Q 14.5 37.15625 16.890625 35.375 
Q 19.28125 33.59375 26.515625 31.984375 
L 29.59375 31.296875 
Q 39.15625 29.25 43.1875 25.515625 
Q 47.21875 21.78125 47.21875 15.09375 
Q 47.21875 7.46875 41.1875 3.015625 
Q 35.15625 -1.421875 24.609375 -1.421875 
Q 20.21875 -1.421875 15.453125 -0.5625 
Q 10.6875 0.296875 5.421875 2 
L 5.421875 11.28125 
Q 10.40625 8.6875 15.234375 7.390625 
Q 20.0625 6.109375 24.8125 6.109375 
Q 31.15625 6.109375 34.5625 8.28125 
Q 37.984375 10.453125 37.984375 14.40625 
Q 37.984375 18.0625 35.515625 20.015625 
Q 33.0625 21.96875 24.703125 23.78125 
L 21.578125 24.515625 
Q 13.234375 26.265625 9.515625 29.90625 
Q 5.8125 33.546875 5.8125 39.890625 
Q 5.8125 47.609375 11.28125 51.796875 
Q 16.75 56 26.8125 56 
Q 31.78125 56 36.171875 55.265625 
Q 40.578125 54.546875 44.28125 53.078125 
z
" id="DejaVuSans-115"/>
      <path d="M 9.421875 54.6875 
L 18.40625 54.6875 
L 18.40625 0 
L 9.421875 0 
z
M 9.421875 75.984375 
L 18.40625 75.984375 
L 18.40625 64.59375 
L 9.421875 64.59375 
z
" id="DejaVuSans-105"/>
      <path d="M 30.609375 48.390625 
Q 23.390625 48.390625 19.1875 42.75 
Q 14.984375 37.109375 14.984375 27.296875 
Q 14.984375 17.484375 19.15625 11.84375 
Q 23.34375 6.203125 30.609375 6.203125 
Q 37.796875 6.203125 41.984375 11.859375 
Q 46.1875 17.53125 46.1875 27.296875 
Q 46.1875 37.015625 41.984375 42.703125 
Q 37.796875 48.390625 30.609375 48.390625 
z
M 30.609375 56 
Q 42.328125 56 49.015625 48.375 
Q 55.71875 40.765625 55.71875 27.296875 
Q 55.71875 13.875 49.015625 6.21875 
Q 42.328125 -1.421875 30.609375 -1.421875 
Q 18.84375 -1.421875 12.171875 6.21875 
Q 5.515625 13.875 5.515625 27.296875 
Q 5.515625 40.765625 12.171875 48.375 
Q 18.84375 56 30.609375 56 
z
" id="DejaVuSans-111"/>
      <path d="M 54.890625 33.015625 
L 54.890625 0 
L 45.90625 0 
L 45.90625 32.71875 
Q 45.90625 40.484375 42.875 44.328125 
Q 39.84375 48.1875 33.796875 48.1875 
Q 26.515625 48.1875 22.3125 43.546875 
Q 18.109375 38.921875 18.109375 30.90625 
L 18.109375 0 
L 9.078125 0 
L 9.078125 54.6875 
L 18.109375 54.6875 
L 18.109375 46.1875 
Q 21.34375 51.125 25.703125 53.5625 
Q 30.078125 56 35.796875 56 
Q 45.21875 56 50.046875 50.171875 
Q 54.890625 44.34375 54.890625 33.015625 
z
" id="DejaVuSans-110"/>
      <path id="DejaVuSans-32"/>
      <path d="M 19.671875 64.796875 
L 19.671875 37.40625 
L 32.078125 37.40625 
Q 38.96875 37.40625 42.71875 40.96875 
Q 46.484375 44.53125 46.484375 51.125 
Q 46.484375 57.671875 42.71875 61.234375 
Q 38.96875 64.796875 32.078125 64.796875 
z
M 9.8125 72.90625 
L 32.078125 72.90625 
Q 44.34375 72.90625 50.609375 67.359375 
Q 56.890625 61.8125 56.890625 51.125 
Q 56.890625 40.328125 50.609375 34.8125 
Q 44.34375 29.296875 32.078125 29.296875 
L 19.671875 29.296875 
L 19.671875 0 
L 9.8125 0 
z
" id="DejaVuSans-80"/>
      <path d="M 41.109375 46.296875 
Q 39.59375 47.171875 37.8125 47.578125 
Q 36.03125 48 33.890625 48 
Q 26.265625 48 22.1875 43.046875 
Q 18.109375 38.09375 18.109375 28.8125 
L 18.109375 0 
L 9.078125 0 
L 9.078125 54.6875 
L 18.109375 54.6875 
L 18.109375 46.1875 
Q 20.953125 51.171875 25.484375 53.578125 
Q 30.03125 56 36.53125 56 
Q 37.453125 56 38.578125 55.875 
Q 39.703125 55.765625 41.0625 55.515625 
z
" id="DejaVuSans-114"/>
      <path d="M 45.40625 46.390625 
L 45.40625 75.984375 
L 54.390625 75.984375 
L 54.390625 0 
L 45.40625 0 
L 45.40625 8.203125 
Q 42.578125 3.328125 38.25 0.953125 
Q 33.9375 -1.421875 27.875 -1.421875 
Q 17.96875 -1.421875 11.734375 6.484375 
Q 5.515625 14.40625 5.515625 27.296875 
Q 5.515625 40.1875 11.734375 48.09375 
Q 17.96875 56 27.875 56 
Q 33.9375 56 38.25 53.625 
Q 42.578125 51.265625 45.40625 46.390625 
z
M 14.796875 27.296875 
Q 14.796875 17.390625 18.875 11.75 
Q 22.953125 6.109375 30.078125 6.109375 
Q 37.203125 6.109375 41.296875 11.75 
Q 45.40625 17.390625 45.40625 27.296875 
Q 45.40625 37.203125 41.296875 42.84375 
Q 37.203125 48.484375 30.078125 48.484375 
Q 22.953125 48.484375 18.875 42.84375 
Q 14.796875 37.203125 14.796875 27.296875 
z
" id="DejaVuSans-100"/>
     </defs>
     <g style="fill:#262626;" transform="translate(401.507891 275.920469)scale(0.11 -0.11)">
      <use xlink:href="#DejaVuSans-82"/>
      <use x="69.419922" xlink:href="#DejaVuSans-101"/>
      <use x="130.943359" xlink:href="#DejaVuSans-99"/>
      <use x="185.923828" xlink:href="#DejaVuSans-101"/>
      <use x="247.447266" xlink:href="#DejaVuSans-115"/>
      <use x="299.546875" xlink:href="#DejaVuSans-115"/>
      <use x="351.646484" xlink:href="#DejaVuSans-105"/>
      <use x="379.429688" xlink:href="#DejaVuSans-111"/>
      <use x="440.611328" xlink:href="#DejaVuSans-110"/>
      <use x="503.990234" xlink:href="#DejaVuSans-32"/>
      <use x="535.777344" xlink:href="#DejaVuSans-80"/>
      <use x="596.033203" xlink:href="#DejaVuSans-101"/>
      <use x="657.556641" xlink:href="#DejaVuSans-114"/>
      <use x="698.669922" xlink:href="#DejaVuSans-105"/>
      <use x="726.453125" xlink:href="#DejaVuSans-111"/>
      <use x="787.634766" xlink:href="#DejaVuSans-100"/>
      <use x="851.111328" xlink:href="#DejaVuSans-115"/>
     </g>
    </g>
    <g id="line2d_19">
     <path d="M 370.707891 288.216406 
L 392.707891 288.216406 
" style="fill:none;stroke:#dd8452;stroke-linecap:round;stroke-width:1.5;"/>
    </g>
    <g id="line2d_20"/>
    <g id="text_16">
     <!-- CFNAI 3-Month Avg -->
     <defs>
      <path d="M 64.40625 67.28125 
L 64.40625 56.890625 
Q 59.421875 61.53125 53.78125 63.8125 
Q 48.140625 66.109375 41.796875 66.109375 
Q 29.296875 66.109375 22.65625 58.46875 
Q 16.015625 50.828125 16.015625 36.375 
Q 16.015625 21.96875 22.65625 14.328125 
Q 29.296875 6.6875 41.796875 6.6875 
Q 48.140625 6.6875 53.78125 8.984375 
Q 59.421875 11.28125 64.40625 15.921875 
L 64.40625 5.609375 
Q 59.234375 2.09375 53.4375 0.328125 
Q 47.65625 -1.421875 41.21875 -1.421875 
Q 24.65625 -1.421875 15.125 8.703125 
Q 5.609375 18.84375 5.609375 36.375 
Q 5.609375 53.953125 15.125 64.078125 
Q 24.65625 74.21875 41.21875 74.21875 
Q 47.75 74.21875 53.53125 72.484375 
Q 59.328125 70.75 64.40625 67.28125 
z
" id="DejaVuSans-67"/>
      <path d="M 9.8125 72.90625 
L 51.703125 72.90625 
L 51.703125 64.59375 
L 19.671875 64.59375 
L 19.671875 43.109375 
L 48.578125 43.109375 
L 48.578125 34.8125 
L 19.671875 34.8125 
L 19.671875 0 
L 9.8125 0 
z
" id="DejaVuSans-70"/>
      <path d="M 9.8125 72.90625 
L 23.09375 72.90625 
L 55.421875 11.921875 
L 55.421875 72.90625 
L 64.984375 72.90625 
L 64.984375 0 
L 51.703125 0 
L 19.390625 60.984375 
L 19.390625 0 
L 9.8125 0 
z
" id="DejaVuSans-78"/>
      <path d="M 9.8125 72.90625 
L 19.671875 72.90625 
L 19.671875 0 
L 9.8125 0 
z
" id="DejaVuSans-73"/>
      <path d="M 4.890625 31.390625 
L 31.203125 31.390625 
L 31.203125 23.390625 
L 4.890625 23.390625 
z
" id="DejaVuSans-45"/>
      <path d="M 9.8125 72.90625 
L 24.515625 72.90625 
L 43.109375 23.296875 
L 61.8125 72.90625 
L 76.515625 72.90625 
L 76.515625 0 
L 66.890625 0 
L 66.890625 64.015625 
L 48.09375 14.015625 
L 38.1875 14.015625 
L 19.390625 64.015625 
L 19.390625 0 
L 9.8125 0 
z
" id="DejaVuSans-77"/>
      <path d="M 18.3125 70.21875 
L 18.3125 54.6875 
L 36.8125 54.6875 
L 36.8125 47.703125 
L 18.3125 47.703125 
L 18.3125 18.015625 
Q 18.3125 11.328125 20.140625 9.421875 
Q 21.96875 7.515625 27.59375 7.515625 
L 36.8125 7.515625 
L 36.8125 0 
L 27.59375 0 
Q 17.1875 0 13.234375 3.875 
Q 9.28125 7.765625 9.28125 18.015625 
L 9.28125 47.703125 
L 2.6875 47.703125 
L 2.6875 54.6875 
L 9.28125 54.6875 
L 9.28125 70.21875 
z
" id="DejaVuSans-116"/>
      <path d="M 54.890625 33.015625 
L 54.890625 0 
L 45.90625 0 
L 45.90625 32.71875 
Q 45.90625 40.484375 42.875 44.328125 
Q 39.84375 48.1875 33.796875 48.1875 
Q 26.515625 48.1875 22.3125 43.546875 
Q 18.109375 38.921875 18.109375 30.90625 
L 18.109375 0 
L 9.078125 0 
L 9.078125 75.984375 
L 18.109375 75.984375 
L 18.109375 46.1875 
Q 21.34375 51.125 25.703125 53.5625 
Q 30.078125 56 35.796875 56 
Q 45.21875 56 50.046875 50.171875 
Q 54.890625 44.34375 54.890625 33.015625 
z
" id="DejaVuSans-104"/>
      <path d="M 2.984375 54.6875 
L 12.5 54.6875 
L 29.59375 8.796875 
L 46.6875 54.6875 
L 56.203125 54.6875 
L 35.6875 0 
L 23.484375 0 
z
" id="DejaVuSans-118"/>
      <path d="M 45.40625 27.984375 
Q 45.40625 37.75 41.375 43.109375 
Q 37.359375 48.484375 30.078125 48.484375 
Q 22.859375 48.484375 18.828125 43.109375 
Q 14.796875 37.75 14.796875 27.984375 
Q 14.796875 18.265625 18.828125 12.890625 
Q 22.859375 7.515625 30.078125 7.515625 
Q 37.359375 7.515625 41.375 12.890625 
Q 45.40625 18.265625 45.40625 27.984375 
z
M 54.390625 6.78125 
Q 54.390625 -7.171875 48.1875 -13.984375 
Q 42 -20.796875 29.203125 -20.796875 
Q 24.46875 -20.796875 20.265625 -20.09375 
Q 16.0625 -19.390625 12.109375 -17.921875 
L 12.109375 -9.1875 
Q 16.0625 -11.328125 19.921875 -12.34375 
Q 23.78125 -13.375 27.78125 -13.375 
Q 36.625 -13.375 41.015625 -8.765625 
Q 45.40625 -4.15625 45.40625 5.171875 
L 45.40625 9.625 
Q 42.625 4.78125 38.28125 2.390625 
Q 33.9375 0 27.875 0 
Q 17.828125 0 11.671875 7.65625 
Q 5.515625 15.328125 5.515625 27.984375 
Q 5.515625 40.671875 11.671875 48.328125 
Q 17.828125 56 27.875 56 
Q 33.9375 56 38.28125 53.609375 
Q 42.625 51.21875 45.40625 46.390625 
L 45.40625 54.6875 
L 54.390625 54.6875 
z
" id="DejaVuSans-103"/>
     </defs>
     <g style="fill:#262626;" transform="translate(401.507891 292.066406)scale(0.11 -0.11)">
      <use xlink:href="#DejaVuSans-67"/>
      <use x="69.824219" xlink:href="#DejaVuSans-70"/>
      <use x="127.34375" xlink:href="#DejaVuSans-78"/>
      <use x="202.148438" xlink:href="#DejaVuSans-65"/>
      <use x="270.556641" xlink:href="#DejaVuSans-73"/>
      <use x="300.048828" xlink:href="#DejaVuSans-32"/>
      <use x="331.835938" xlink:href="#DejaVuSans-51"/>
      <use x="395.458984" xlink:href="#DejaVuSans-45"/>
      <use x="431.542969" xlink:href="#DejaVuSans-77"/>
      <use x="517.822266" xlink:href="#DejaVuSans-111"/>
      <use x="579.003906" xlink:href="#DejaVuSans-110"/>
      <use x="642.382812" xlink:href="#DejaVuSans-116"/>
      <use x="681.591797" xlink:href="#DejaVuSans-104"/>
      <use x="744.970703" xlink:href="#DejaVuSans-32"/>
      <use x="776.757812" xlink:href="#DejaVuSans-65"/>
      <use x="845.087891" xlink:href="#DejaVuSans-118"/>
      <use x="904.267578" xlink:href="#DejaVuSans-103"/>
     </g>
    </g>
    <g id="line2d_21">
     <path d="M 370.707891 304.362344 
L 392.707891 304.362344 
" style="fill:none;stroke:#55a868;stroke-linecap:round;stroke-width:1.5;"/>
    </g>
    <g id="line2d_22"/>
    <g id="text_17">
     <!-- Recession Threshold -->
     <defs>
      <path d="M 9.421875 75.984375 
L 18.40625 75.984375 
L 18.40625 0 
L 9.421875 0 
z
" id="DejaVuSans-108"/>
     </defs>
     <g style="fill:#262626;" transform="translate(401.507891 308.212344)scale(0.11 -0.11)">
      <use xlink:href="#DejaVuSans-82"/>
      <use x="69.419922" xlink:href="#DejaVuSans-101"/>
      <use x="130.943359" xlink:href="#DejaVuSans-99"/>
      <use x="185.923828" xlink:href="#DejaVuSans-101"/>
      <use x="247.447266" xlink:href="#DejaVuSans-115"/>
      <use x="299.546875" xlink:href="#DejaVuSans-115"/>
      <use x="351.646484" xlink:href="#DejaVuSans-105"/>
      <use x="379.429688" xlink:href="#DejaVuSans-111"/>
      <use x="440.611328" xlink:href="#DejaVuSans-110"/>
      <use x="503.990234" xlink:href="#DejaVuSans-32"/>
      <use x="535.777344" xlink:href="#DejaVuSans-84"/>
      <use x="596.861328" xlink:href="#DejaVuSans-104"/>
      <use x="660.240234" xlink:href="#DejaVuSans-114"/>
      <use x="701.322266" xlink:href="#DejaVuSans-101"/>
      <use x="762.845703" xlink:href="#DejaVuSans-115"/>
      <use x="814.945312" xlink:href="#DejaVuSans-104"/>
      <use x="878.324219" xlink:href="#DejaVuSans-111"/>
      <use x="939.505859" xlink:href="#DejaVuSans-108"/>
      <use x="967.289062" xlink:href="#DejaVuSans-100"/>
     </g>
    </g>
   </g>
  </g>
 </g>
 <defs>
  <clipPath id="pbc4cfde8ee">
   <rect height="277.2" width="669.6" x="108" y="43.2"/>
  </clipPath>
 </defs>
</svg>
