<?xml version="1.0" encoding="utf-8" standalone="no"?>
<!DOCTYPE svg PUBLIC "-//W3C//DTD SVG 1.1//EN"
  "http://www.w3.org/Graphics/SVG/1.1/DTD/svg11.dtd">
<!-- Created with matplotlib (https://matplotlib.org/) -->
<svg height="360pt" version="1.1" viewBox="0 0 864 360" width="864pt" xmlns="http://www.w3.org/2000/svg" xmlns:xlink="http://www.w3.org/1999/xlink">
 <defs>
  <style type="text/css">
*{stroke-linecap:butt;stroke-linejoin:round;}
  </style>
 </defs>
 <g id="figure_1">
  <g id="patch_1">
   <path d="M 0 360 
L 864 360 
L 864 0 
L 0 0 
z
" style="fill:#ffffff;"/>
  </g>
  <g id="axes_1">
   <g id="patch_2">
    <path d="M 108 320.4 
L 777.6 320.4 
L 777.6 43.2 
L 108 43.2 
z
" style="fill:#eaeaf2;"/>
   </g>
   <g id="matplotlib.axis_1">
    <g id="xtick_1">
     <g id="line2d_1">
      <path clip-path="url(#p76db843a3a)" d="M 157.608876 320.4 
L 157.608876 43.2 
" style="fill:none;stroke:#ffffff;stroke-linecap:round;"/>
     </g>
     <g id="text_1">
      <!-- 1969 -->
      <defs>
       <path d="M 12.40625 8.296875 
L 28.515625 8.296875 
L 28.515625 63.921875 
L 10.984375 60.40625 
L 10.984375 69.390625 
L 28.421875 72.90625 
L 38.28125 72.90625 
L 38.28125 8.296875 
L 54.390625 8.296875 
L 54.390625 0 
L 12.40625 0 
z
" id="DejaVuSans-49"/>
       <path d="M 10.984375 1.515625 
L 10.984375 10.5 
Q 14.703125 8.734375 18.5 7.8125 
Q 22.3125 6.890625 25.984375 6.890625 
Q 35.75 6.890625 40.890625 13.453125 
Q 46.046875 20.015625 46.78125 33.40625 
Q 43.953125 29.203125 39.59375 26.953125 
Q 35.25 24.703125 29.984375 24.703125 
Q 19.046875 24.703125 12.671875 31.3125 
Q 6.296875 37.9375 6.296875 49.421875 
Q 6.296875 60.640625 12.9375 67.421875 
Q 19.578125 74.21875 30.609375 74.21875 
Q 43.265625 74.21875 49.921875 64.515625 
Q 56.59375 54.828125 56.59375 36.375 
Q 56.59375 19.140625 48.40625 8.859375 
Q 40.234375 -1.421875 26.421875 -1.421875 
Q 22.703125 -1.421875 18.890625 -0.6875 
Q 15.09375 0.046875 10.984375 1.515625 
z
M 30.609375 32.421875 
Q 37.25 32.421875 41.125 36.953125 
Q 45.015625 41.5 45.015625 49.421875 
Q 45.015625 57.28125 41.125 61.84375 
Q 37.25 66.40625 30.609375 66.40625 
Q 23.96875 66.40625 20.09375 61.84375 
Q 16.21875 57.28125 16.21875 49.421875 
Q 16.21875 41.5 20.09375 36.953125 
Q 23.96875 32.421875 30.609375 32.421875 
z
" id="DejaVuSans-57"/>
       <path d="M 33.015625 40.375 
Q 26.375 40.375 22.484375 35.828125 
Q 18.609375 31.296875 18.609375 23.390625 
Q 18.609375 15.53125 22.484375 10.953125 
Q 26.375 6.390625 33.015625 6.390625 
Q 39.65625 6.390625 43.53125 10.953125 
Q 47.40625 15.53125 47.40625 23.390625 
Q 47.40625 31.296875 43.53125 35.828125 
Q 39.65625 40.375 33.015625 40.375 
z
M 52.59375 71.296875 
L 52.59375 62.3125 
Q 48.875 64.0625 45.09375 64.984375 
Q 41.3125 65.921875 37.59375 65.921875 
Q 27.828125 65.921875 22.671875 59.328125 
Q 17.53125 52.734375 16.796875 39.40625 
Q 19.671875 43.65625 24.015625 45.921875 
Q 28.375 48.1875 33.59375 48.1875 
Q 44.578125 48.1875 50.953125 41.515625 
Q 57.328125 34.859375 57.328125 23.390625 
Q 57.328125 12.15625 50.6875 5.359375 
Q 44.046875 -1.421875 33.015625 -1.421875 
Q 20.359375 -1.421875 13.671875 8.265625 
Q 6.984375 17.96875 6.984375 36.375 
Q 6.984375 53.65625 15.1875 63.9375 
Q 23.390625 74.21875 37.203125 74.21875 
Q 40.921875 74.21875 44.703125 73.484375 
Q 48.484375 72.75 52.59375 71.296875 
z
" id="DejaVuSans-54"/>
      </defs>
      <g style="fill:#262626;" transform="translate(143.611376 338.258281)scale(0.11 -0.11)">
       <use xlink:href="#DejaVuSans-49"/>
       <use x="63.623047" xlink:href="#DejaVuSans-57"/>
       <use x="127.246094" xlink:href="#DejaVuSans-54"/>
       <use x="190.869141" xlink:href="#DejaVuSans-57"/>
      </g>
     </g>
    </g>
    <g id="xtick_2">
     <g id="line2d_2">
      <path clip-path="url(#p76db843a3a)" d="M 272.643951 320.4 
L 272.643951 43.2 
" style="fill:none;stroke:#ffffff;stroke-linecap:round;"/>
     </g>
     <g id="text_2">
      <!-- 1979 -->
      <defs>
       <path d="M 8.203125 72.90625 
L 55.078125 72.90625 
L 55.078125 68.703125 
L 28.609375 0 
L 18.3125 0 
L 43.21875 64.59375 
L 8.203125 64.59375 
z
" id="DejaVuSans-55"/>
      </defs>
      <g style="fill:#262626;" transform="translate(258.646451 338.258281)scale(0.11 -0.11)">
       <use xlink:href="#DejaVuSans-49"/>
       <use x="63.623047" xlink:href="#DejaVuSans-57"/>
       <use x="127.246094" xlink:href="#DejaVuSans-55"/>
       <use x="190.869141" xlink:href="#DejaVuSans-57"/>
      </g>
     </g>
    </g>
    <g id="xtick_3">
     <g id="line2d_3">
      <path clip-path="url(#p76db843a3a)" d="M 387.679026 320.4 
L 387.679026 43.2 
" style="fill:none;stroke:#ffffff;stroke-linecap:round;"/>
     </g>
     <g id="text_3">
      <!-- 1989 -->
      <defs>
       <path d="M 31.78125 34.625 
Q 24.75 34.625 20.71875 30.859375 
Q 16.703125 27.09375 16.703125 20.515625 
Q 16.703125 13.921875 20.71875 10.15625 
Q 24.75 6.390625 31.78125 6.390625 
Q 38.8125 6.390625 42.859375 10.171875 
Q 46.921875 13.96875 46.921875 20.515625 
Q 46.921875 27.09375 42.890625 30.859375 
Q 38.875 34.625 31.78125 34.625 
z
M 21.921875 38.8125 
Q 15.578125 40.375 12.03125 44.71875 
Q 8.5 49.078125 8.5 55.328125 
Q 8.5 64.0625 14.71875 69.140625 
Q 20.953125 74.21875 31.78125 74.21875 
Q 42.671875 74.21875 48.875 69.140625 
Q 55.078125 64.0625 55.078125 55.328125 
Q 55.078125 49.078125 51.53125 44.71875 
Q 48 40.375 41.703125 38.8125 
Q 48.828125 37.15625 52.796875 32.3125 
Q 56.78125 27.484375 56.78125 20.515625 
Q 56.78125 9.90625 50.3125 4.234375 
Q 43.84375 -1.421875 31.78125 -1.421875 
Q 19.734375 -1.421875 13.25 4.234375 
Q 6.78125 9.90625 6.78125 20.515625 
Q 6.78125 27.484375 10.78125 32.3125 
Q 14.796875 37.15625 21.921875 38.8125 
z
M 18.3125 54.390625 
Q 18.3125 48.734375 21.84375 45.5625 
Q 25.390625 42.390625 31.78125 42.390625 
Q 38.140625 42.390625 41.71875 45.5625 
Q 45.3125 48.734375 45.3125 54.390625 
Q 45.3125 60.0625 41.71875 63.234375 
Q 38.140625 66.40625 31.78125 66.40625 
Q 25.390625 66.40625 21.84375 63.234375 
Q 18.3125 60.0625 18.3125 54.390625 
z
" id="DejaVuSans-56"/>
      </defs>
      <g style="fill:#262626;" transform="translate(373.681526 338.258281)scale(0.11 -0.11)">
       <use xlink:href="#DejaVuSans-49"/>
       <use x="63.623047" xlink:href="#DejaVuSans-57"/>
       <use x="127.246094" xlink:href="#DejaVuSans-56"/>
       <use x="190.869141" xlink:href="#DejaVuSans-57"/>
      </g>
     </g>
    </g>
    <g id="xtick_4">
     <g id="line2d_4">
      <path clip-path="url(#p76db843a3a)" d="M 502.714102 320.4 
L 502.714102 43.2 
" style="fill:none;stroke:#ffffff;stroke-linecap:round;"/>
     </g>
     <g id="text_4">
      <!-- 1999 -->
      <g style="fill:#262626;" transform="translate(488.716602 338.258281)scale(0.11 -0.11)">
       <use xlink:href="#DejaVuSans-49"/>
       <use x="63.623047" xlink:href="#DejaVuSans-57"/>
       <use x="127.246094" xlink:href="#DejaVuSans-57"/>
       <use x="190.869141" xlink:href="#DejaVuSans-57"/>
      </g>
     </g>
    </g>
    <g id="xtick_5">
     <g id="line2d_5">
      <path clip-path="url(#p76db843a3a)" d="M 617.749177 320.4 
L 617.749177 43.2 
" style="fill:none;stroke:#ffffff;stroke-linecap:round;"/>
     </g>
     <g id="text_5">
      <!-- 2009 -->
      <defs>
       <path d="M 19.1875 8.296875 
L 53.609375 8.296875 
L 53.609375 0 
L 7.328125 0 
L 7.328125 8.296875 
Q 12.9375 14.109375 22.625 23.890625 
Q 32.328125 33.6875 34.8125 36.53125 
Q 39.546875 41.84375 41.421875 45.53125 
Q 43.3125 49.21875 43.3125 52.78125 
Q 43.3125 58.59375 39.234375 62.25 
Q 35.15625 65.921875 28.609375 65.921875 
Q 23.96875 65.921875 18.8125 64.3125 
Q 13.671875 62.703125 7.8125 59.421875 
L 7.8125 69.390625 
Q 13.765625 71.78125 18.9375 73 
Q 24.125 74.21875 28.421875 74.21875 
Q 39.75 74.21875 46.484375 68.546875 
Q 53.21875 62.890625 53.21875 53.421875 
Q 53.21875 48.921875 51.53125 44.890625 
Q 49.859375 40.875 45.40625 35.40625 
Q 44.1875 33.984375 37.640625 27.21875 
Q 31.109375 20.453125 19.1875 8.296875 
z
" id="DejaVuSans-50"/>
       <path d="M 31.78125 66.40625 
Q 24.171875 66.40625 20.328125 58.90625 
Q 16.5 51.421875 16.5 36.375 
Q 16.5 21.390625 20.328125 13.890625 
Q 24.171875 6.390625 31.78125 6.390625 
Q 39.453125 6.390625 43.28125 13.890625 
Q 47.125 21.390625 47.125 36.375 
Q 47.125 51.421875 43.28125 58.90625 
Q 39.453125 66.40625 31.78125 66.40625 
z
M 31.78125 74.21875 
Q 44.046875 74.21875 50.515625 64.515625 
Q 56.984375 54.828125 56.984375 36.375 
Q 56.984375 17.96875 50.515625 8.265625 
Q 44.046875 -1.421875 31.78125 -1.421875 
Q 19.53125 -1.421875 13.0625 8.265625 
Q 6.59375 17.96875 6.59375 36.375 
Q 6.59375 54.828125 13.0625 64.515625 
Q 19.53125 74.21875 31.78125 74.21875 
z
" id="DejaVuSans-48"/>
      </defs>
      <g style="fill:#262626;" transform="translate(603.751677 338.258281)scale(0.11 -0.11)">
       <use xlink:href="#DejaVuSans-50"/>
       <use x="63.623047" xlink:href="#DejaVuSans-48"/>
       <use x="127.246094" xlink:href="#DejaVuSans-48"/>
       <use x="190.869141" xlink:href="#DejaVuSans-57"/>
      </g>
     </g>
    </g>
    <g id="xtick_6">
     <g id="line2d_6">
      <path clip-path="url(#p76db843a3a)" d="M 732.784252 320.4 
L 732.784252 43.2 
" style="fill:none;stroke:#ffffff;stroke-linecap:round;"/>
     </g>
     <g id="text_6">
      <!-- 2019 -->
      <g style="fill:#262626;" transform="translate(718.786752 338.258281)scale(0.11 -0.11)">
       <use xlink:href="#DejaVuSans-50"/>
       <use x="63.623047" xlink:href="#DejaVuSans-48"/>
       <use x="127.246094" xlink:href="#DejaVuSans-49"/>
       <use x="190.869141" xlink:href="#DejaVuSans-57"/>
      </g>
     </g>
    </g>
    <g id="xtick_7"/>
    <g id="xtick_8"/>
    <g id="xtick_9"/>
    <g id="xtick_10"/>
    <g id="xtick_11"/>
    <g id="xtick_12"/>
    <g id="xtick_13"/>
    <g id="xtick_14"/>
    <g id="xtick_15"/>
    <g id="xtick_16"/>
    <g id="xtick_17"/>
    <g id="text_7">
     <!-- DATE -->
     <defs>
      <path d="M 19.671875 64.796875 
L 19.671875 8.109375 
L 31.59375 8.109375 
Q 46.6875 8.109375 53.6875 14.9375 
Q 60.6875 21.78125 60.6875 36.53125 
Q 60.6875 51.171875 53.6875 57.984375 
Q 46.6875 64.796875 31.59375 64.796875 
z
M 9.8125 72.90625 
L 30.078125 72.90625 
Q 51.265625 72.90625 61.171875 64.09375 
Q 71.09375 55.28125 71.09375 36.53125 
Q 71.09375 17.671875 61.125 8.828125 
Q 51.171875 0 30.078125 0 
L 9.8125 0 
z
" id="DejaVuSans-68"/>
      <path d="M 34.1875 63.1875 
L 20.796875 26.90625 
L 47.609375 26.90625 
z
M 28.609375 72.90625 
L 39.796875 72.90625 
L 67.578125 0 
L 57.328125 0 
L 50.6875 18.703125 
L 17.828125 18.703125 
L 11.1875 0 
L 0.78125 0 
z
" id="DejaVuSans-65"/>
      <path d="M -0.296875 72.90625 
L 61.375 72.90625 
L 61.375 64.59375 
L 35.5 64.59375 
L 35.5 0 
L 25.59375 0 
L 25.59375 64.59375 
L -0.296875 64.59375 
z
" id="DejaVuSans-84"/>
      <path d="M 9.8125 72.90625 
L 55.90625 72.90625 
L 55.90625 64.59375 
L 19.671875 64.59375 
L 19.671875 43.015625 
L 54.390625 43.015625 
L 54.390625 34.71875 
L 19.671875 34.71875 
L 19.671875 8.296875 
L 56.78125 8.296875 
L 56.78125 0 
L 9.8125 0 
z
" id="DejaVuSans-69"/>
     </defs>
     <g style="fill:#262626;" transform="translate(426.627187 353.664062)scale(0.12 -0.12)">
      <use xlink:href="#DejaVuSans-68"/>
      <use x="76.986328" xlink:href="#DejaVuSans-65"/>
      <use x="145.285156" xlink:href="#DejaVuSans-84"/>
      <use x="206.369141" xlink:href="#DejaVuSans-69"/>
     </g>
    </g>
   </g>
   <g id="matplotlib.axis_2">
    <g id="ytick_1">
     <g id="line2d_7">
      <path clip-path="url(#p76db843a3a)" d="M 108 307.8 
L 777.6 307.8 
" style="fill:none;stroke:#ffffff;stroke-linecap:round;"/>
     </g>
     <g id="text_8">
      <!-- 0.0 -->
      <defs>
       <path d="M 10.6875 12.40625 
L 21 12.40625 
L 21 0 
L 10.6875 0 
z
" id="DejaVuSans-46"/>
      </defs>
      <g style="fill:#262626;" transform="translate(81.006563 311.979141)scale(0.11 -0.11)">
       <use xlink:href="#DejaVuSans-48"/>
       <use x="63.623047" xlink:href="#DejaVuSans-46"/>
       <use x="95.410156" xlink:href="#DejaVuSans-48"/>
      </g>
     </g>
    </g>
    <g id="ytick_2">
     <g id="line2d_8">
      <path clip-path="url(#p76db843a3a)" d="M 108 257.4 
L 777.6 257.4 
" style="fill:none;stroke:#ffffff;stroke-linecap:round;"/>
     </g>
     <g id="text_9">
      <!-- 0.2 -->
      <g style="fill:#262626;" transform="translate(81.006563 261.579141)scale(0.11 -0.11)">
       <use xlink:href="#DejaVuSans-48"/>
       <use x="63.623047" xlink:href="#DejaVuSans-46"/>
       <use x="95.410156" xlink:href="#DejaVuSans-50"/>
      </g>
     </g>
    </g>
    <g id="ytick_3">
     <g id="line2d_9">
      <path clip-path="url(#p76db843a3a)" d="M 108 207 
L 777.6 207 
" style="fill:none;stroke:#ffffff;stroke-linecap:round;"/>
     </g>
     <g id="text_10">
      <!-- 0.4 -->
      <defs>
       <path d="M 37.796875 64.3125 
L 12.890625 25.390625 
L 37.796875 25.390625 
z
M 35.203125 72.90625 
L 47.609375 72.90625 
L 47.609375 25.390625 
L 58.015625 25.390625 
L 58.015625 17.1875 
L 47.609375 17.1875 
L 47.609375 0 
L 37.796875 0 
L 37.796875 17.1875 
L 4.890625 17.1875 
L 4.890625 26.703125 
z
" id="DejaVuSans-52"/>
      </defs>
      <g style="fill:#262626;" transform="translate(81.006563 211.179141)scale(0.11 -0.11)">
       <use xlink:href="#DejaVuSans-48"/>
       <use x="63.623047" xlink:href="#DejaVuSans-46"/>
       <use x="95.410156" xlink:href="#DejaVuSans-52"/>
      </g>
     </g>
    </g>
    <g id="ytick_4">
     <g id="line2d_10">
      <path clip-path="url(#p76db843a3a)" d="M 108 156.6 
L 777.6 156.6 
" style="fill:none;stroke:#ffffff;stroke-linecap:round;"/>
     </g>
     <g id="text_11">
      <!-- 0.6 -->
      <g style="fill:#262626;" transform="translate(81.006563 160.779141)scale(0.11 -0.11)">
       <use xlink:href="#DejaVuSans-48"/>
       <use x="63.623047" xlink:href="#DejaVuSans-46"/>
       <use x="95.410156" xlink:href="#DejaVuSans-54"/>
      </g>
     </g>
    </g>
    <g id="ytick_5">
     <g id="line2d_11">
      <path clip-path="url(#p76db843a3a)" d="M 108 106.2 
L 777.6 106.2 
" style="fill:none;stroke:#ffffff;stroke-linecap:round;"/>
     </g>
     <g id="text_12">
      <!-- 0.8 -->
      <g style="fill:#262626;" transform="translate(81.006563 110.379141)scale(0.11 -0.11)">
       <use xlink:href="#DejaVuSans-48"/>
       <use x="63.623047" xlink:href="#DejaVuSans-46"/>
       <use x="95.410156" xlink:href="#DejaVuSans-56"/>
      </g>
     </g>
    </g>
    <g id="ytick_6">
     <g id="line2d_12">
      <path clip-path="url(#p76db843a3a)" d="M 108 55.8 
L 777.6 55.8 
" style="fill:none;stroke:#ffffff;stroke-linecap:round;"/>
     </g>
     <g id="text_13">
      <!-- 1.0 -->
      <g style="fill:#262626;" transform="translate(81.006563 59.979141)scale(0.11 -0.11)">
       <use xlink:href="#DejaVuSans-49"/>
       <use x="63.623047" xlink:href="#DejaVuSans-46"/>
       <use x="95.410156" xlink:href="#DejaVuSans-48"/>
      </g>
     </g>
    </g>
   </g>
   <g id="line2d_13">
    <path clip-path="url(#p76db843a3a)" d="M 138.436364 307.8 
L 168.153758 307.8 
L 169.112384 55.8 
L 178.69864 55.8 
L 179.657266 307.8 
L 213.209162 307.8 
L 214.167788 55.8 
L 228.547173 55.8 
L 229.505798 307.8 
L 284.147459 307.8 
L 285.106084 55.8 
L 289.899213 55.8 
L 290.857838 307.8 
L 301.40272 307.8 
L 302.361346 55.8 
L 316.74073 55.8 
L 317.699356 307.8 
L 404.934288 307.8 
L 405.892913 55.8 
L 412.603293 55.8 
L 413.561918 307.8 
L 527.638368 307.8 
L 528.596994 55.8 
L 535.307373 55.8 
L 536.265999 307.8 
L 605.287044 307.8 
L 606.245669 55.8 
L 622.542305 55.8 
L 623.500931 307.8 
L 747.163636 307.8 
L 747.163636 307.8 
" style="fill:none;stroke:#4c72b0;stroke-linecap:round;stroke-width:1.5;"/>
   </g>
   <g id="line2d_14">
    <path clip-path="url(#p76db843a3a)" d="M 138.436364 290.880838 
L 139.394989 298.242504 
L 140.353615 297.160826 
L 141.312241 307.063581 
L 142.270866 287.079965 
L 143.229492 291.940775 
L 144.188117 307.68438 
L 145.146743 306.622384 
L 146.105369 199.65878 
L 147.063994 307.147222 
L 148.02262 301.397505 
L 148.981246 305.148962 
L 149.939871 305.388871 
L 150.898497 303.418875 
L 151.857122 303.469421 
L 152.815748 302.331237 
L 153.774374 305.343351 
L 154.732999 306.152984 
L 155.691625 306.651325 
L 156.650251 303.899077 
L 157.608876 301.724053 
L 158.567502 306.398412 
L 159.526127 305.997662 
L 160.484753 302.644307 
L 161.443379 302.345924 
L 162.402004 305.818107 
L 163.36063 299.109406 
L 164.319256 306.210481 
L 165.277881 261.235493 
L 166.236507 303.350152 
L 167.195132 249.221404 
L 168.153758 294.591458 
L 169.112384 136.541224 
L 170.071009 283.628067 
L 171.029635 265.028249 
L 171.988261 138.216549 
L 172.946886 180.307488 
L 174.864137 288.058132 
L 175.822763 198.394467 
L 176.781389 216.533596 
L 177.740014 68.622952 
L 178.69864 141.501939 
L 179.657266 307.464449 
L 180.615891 302.252388 
L 181.574517 276.752727 
L 182.533142 282.228572 
L 183.491768 304.068298 
L 184.450394 305.301176 
L 185.409019 289.692867 
L 186.367645 290.423212 
L 187.326271 289.431682 
L 188.284896 306.559055 
L 189.243522 298.597212 
L 190.202147 305.607499 
L 192.119399 307.553427 
L 193.078024 304.573524 
L 194.03665 307.211702 
L 194.995276 306.189878 
L 195.953901 306.171558 
L 196.912527 306.40183 
L 197.871152 272.128812 
L 198.829778 307.679852 
L 199.788404 305.185279 
L 200.747029 307.582832 
L 202.664281 307.482085 
L 203.622906 307.437414 
L 204.581532 307.639971 
L 205.540157 306.29667 
L 206.498783 301.662294 
L 207.457409 303.998986 
L 208.416034 304.628492 
L 209.37466 301.692954 
L 210.333286 295.797028 
L 211.291911 304.385907 
L 212.250537 307.418041 
L 213.209162 306.81721 
L 214.167788 281.284495 
L 215.126414 285.596358 
L 216.085039 291.392787 
L 217.043665 295.433438 
L 218.002291 269.095062 
L 218.960916 305.024955 
L 219.919542 273.72002 
L 220.878168 270.075621 
L 221.836793 216.75638 
L 222.795419 175.506728 
L 223.754044 148.700869 
L 224.71267 57.053376 
L 225.671296 55.862952 
L 227.588547 58.432078 
L 228.547173 62.632639 
L 229.505798 200.153847 
L 230.464424 287.522661 
L 231.423049 285.317105 
L 232.381675 306.25237 
L 233.340301 307.341309 
L 234.298926 303.673404 
L 235.257552 305.716357 
L 236.216178 302.006055 
L 237.174803 307.146375 
L 238.133429 307.743555 
L 239.092054 307.351573 
L 241.009306 304.03375 
L 241.967931 301.672836 
L 242.926557 290.510813 
L 243.885183 302.665534 
L 244.843808 302.300495 
L 245.802434 304.604472 
L 246.761059 262.349484 
L 247.719685 307.002332 
L 248.678311 306.893588 
L 249.636936 303.939079 
L 250.595562 307.087433 
L 251.554188 307.644919 
L 252.512813 306.990756 
L 253.471439 307.043335 
L 254.430064 306.883096 
L 255.38869 305.900636 
L 256.347316 304.410797 
L 257.305941 307.015021 
L 258.264567 305.093708 
L 259.223193 306.95898 
L 260.181818 307.22899 
L 261.140444 258.049987 
L 262.099069 307.180033 
L 263.057695 307.617787 
L 264.016321 307.771903 
L 264.974946 306.073141 
L 265.933572 307.450682 
L 266.892198 295.392112 
L 267.850823 306.847001 
L 268.809449 303.800739 
L 269.768074 306.995229 
L 270.7267 307.162294 
L 271.685326 304.907325 
L 272.643951 294.266676 
L 273.602577 303.117279 
L 274.561203 307.384255 
L 275.519828 121.761177 
L 276.478454 307.628504 
L 277.437079 301.926703 
L 278.395705 284.892495 
L 279.354331 250.273907 
L 280.312956 298.29861 
L 281.271582 296.16501 
L 282.230208 275.627449 
L 283.188833 291.012288 
L 284.147459 290.583381 
L 285.106084 266.037712 
L 286.06471 206.207645 
L 287.023336 57.642269 
L 287.981961 58.565176 
L 288.940587 93.76135 
L 289.899213 167.252041 
L 290.857838 305.619242 
L 291.816464 306.437049 
L 292.775089 307.093431 
L 293.733715 305.887721 
L 294.692341 304.052375 
L 295.650966 286.647612 
L 296.609592 282.478132 
L 297.568218 298.339892 
L 298.526843 301.241301 
L 299.485469 286.413861 
L 300.444094 278.370389 
L 301.40272 299.763589 
L 302.361346 253.57061 
L 303.319971 156.755791 
L 304.278597 129.238694 
L 305.237223 93.350484 
L 306.195848 70.898759 
L 307.154474 73.529872 
L 308.113099 297.487874 
L 309.071725 142.513594 
L 310.030351 96.745663 
L 310.988976 237.325041 
L 311.947602 87.598184 
L 312.906228 124.735506 
L 313.864853 128.397391 
L 314.823479 139.874879 
L 315.782105 84.208191 
L 316.74073 193.650288 
L 317.699356 263.002552 
L 318.657981 306.830744 
L 319.616607 250.053809 
L 320.575233 305.146708 
L 321.533858 306.215991 
L 322.492484 307.114737 
L 323.45111 307.564091 
L 324.409735 307.641432 
L 325.368361 284.743478 
L 326.326986 307.791444 
L 327.285612 307.358901 
L 329.202863 307.399119 
L 330.161489 307.591839 
L 331.120115 307.48666 
L 332.07874 305.34675 
L 333.037366 306.376968 
L 333.995991 306.849495 
L 334.954617 306.812764 
L 335.913243 301.19389 
L 336.871868 296.544422 
L 337.830494 302.511546 
L 338.78912 302.325915 
L 339.747745 305.602138 
L 340.706371 299.257433 
L 341.664996 295.119983 
L 342.623622 294.740703 
L 343.582248 305.190015 
L 344.540873 281.443053 
L 345.499499 304.006172 
L 346.458125 257.814948 
L 347.41675 289.479868 
L 348.375376 304.549931 
L 349.334001 301.191994 
L 350.292627 292.613008 
L 351.251253 302.782196 
L 352.209878 299.473303 
L 353.168504 303.992005 
L 354.12713 246.625462 
L 355.085755 289.46127 
L 356.044381 302.371925 
L 357.003006 286.125736 
L 357.961632 280.537098 
L 358.920258 304.294025 
L 359.878883 296.24673 
L 360.837509 304.407383 
L 361.796135 290.810945 
L 362.75476 299.489734 
L 363.713386 305.505961 
L 364.672011 270.478305 
L 365.630637 307.242019 
L 366.589263 302.063248 
L 367.547888 304.326792 
L 368.506514 304.993227 
L 369.46514 300.065037 
L 370.423765 306.412814 
L 371.382391 302.930985 
L 373.299642 306.588578 
L 374.258268 303.249922 
L 375.216893 304.583233 
L 376.175519 289.029843 
L 377.134145 306.466606 
L 378.09277 303.269357 
L 379.051396 304.486981 
L 380.010021 294.708815 
L 380.968647 306.108957 
L 381.927273 299.339369 
L 382.885898 285.877646 
L 383.844524 302.705223 
L 384.80315 304.883486 
L 385.761775 303.318814 
L 386.720401 305.167011 
L 387.679026 302.934912 
L 388.637652 294.478317 
L 389.596278 295.296291 
L 390.554903 296.832299 
L 391.513529 268.624428 
L 392.472155 284.001874 
L 393.43078 253.368814 
L 394.389406 298.633412 
L 395.348031 270.603158 
L 396.306657 280.121665 
L 397.265283 300.46932 
L 398.223908 285.433365 
L 399.182534 300.891989 
L 400.14116 304.074501 
L 401.099785 294.932933 
L 402.058411 215.17153 
L 403.017037 285.327693 
L 403.975662 284.674773 
L 404.934288 213.256319 
L 405.892913 235.675575 
L 406.851539 188.402845 
L 407.810165 160.575842 
L 408.76879 96.232792 
L 409.727416 202.14027 
L 410.686042 158.00798 
L 411.644667 105.292999 
L 412.603293 145.343552 
L 413.561918 268.847963 
L 414.520544 238.728718 
L 415.47917 291.334334 
L 416.437795 279.198131 
L 417.396421 268.768534 
L 418.355047 296.383656 
L 419.313672 254.773227 
L 420.272298 247.357887 
L 421.230923 214.837895 
L 422.189549 277.515211 
L 423.148175 273.45911 
L 424.1068 300.061586 
L 425.065426 298.495125 
L 426.024052 286.864525 
L 426.982677 286.192811 
L 427.941303 297.363234 
L 428.899928 272.216217 
L 429.858554 287.855481 
L 430.81718 300.969226 
L 431.775805 298.497998 
L 432.734431 302.934737 
L 433.693057 304.052296 
L 434.651682 302.60687 
L 435.610308 254.907592 
L 436.568933 302.13333 
L 437.527559 300.787025 
L 438.486185 295.566117 
L 439.44481 299.467961 
L 440.403436 299.91169 
L 441.362062 302.527299 
L 442.320687 303.337199 
L 443.279313 303.798383 
L 444.237938 304.887889 
L 445.196564 301.382989 
L 446.15519 299.4596 
L 447.113815 307.178222 
L 448.072441 303.480343 
L 449.031067 306.042995 
L 449.989692 304.010804 
L 450.948318 302.310986 
L 451.906943 306.087149 
L 452.865569 303.839688 
L 454.78282 306.034989 
L 455.741446 305.307491 
L 456.700072 301.007898 
L 457.658697 292.651428 
L 458.617323 290.903067 
L 459.575948 259.275624 
L 460.534574 268.234775 
L 461.4932 300.99473 
L 462.451825 269.922149 
L 463.410451 304.879954 
L 464.369077 299.858804 
L 465.327702 290.789216 
L 466.286328 285.611988 
L 467.244953 295.002167 
L 468.203579 212.29706 
L 469.162205 306.435227 
L 470.12083 292.390291 
L 471.079456 300.241644 
L 472.038082 304.110872 
L 472.996707 305.023345 
L 473.955333 297.183327 
L 474.913958 302.855037 
L 475.872584 299.454983 
L 476.83121 299.850914 
L 477.789835 303.066724 
L 478.748461 294.649697 
L 479.707087 301.362804 
L 480.665712 306.062187 
L 481.624338 303.536327 
L 482.582963 301.93972 
L 483.541589 302.423954 
L 484.500215 301.516987 
L 485.45884 304.921785 
L 486.417466 297.53517 
L 487.376092 305.908674 
L 488.334717 304.436472 
L 489.293343 306.04424 
L 490.251969 297.673826 
L 491.210594 302.922323 
L 492.16922 301.824611 
L 493.127845 292.985907 
L 494.086471 302.291545 
L 495.045097 302.501025 
L 496.003722 276.442261 
L 496.962348 259.904613 
L 497.920974 306.539104 
L 498.879599 294.660539 
L 499.838225 296.639969 
L 500.79685 300.485894 
L 501.755476 301.303184 
L 502.714102 296.179939 
L 503.672727 303.138289 
L 504.631353 288.053466 
L 505.589979 296.597443 
L 506.548604 303.684472 
L 507.50723 292.161954 
L 508.465855 300.229819 
L 509.424481 299.576055 
L 510.383107 289.090063 
L 511.341732 305.89967 
L 512.300358 302.672778 
L 513.258984 304.126523 
L 514.217609 304.953321 
L 515.176235 275.380909 
L 516.13486 304.394352 
L 517.093486 304.97432 
L 518.052112 209.570346 
L 519.010737 297.490616 
L 519.969363 286.422896 
L 520.927989 253.978326 
L 521.886614 301.006225 
L 522.84524 267.074178 
L 523.803865 275.960389 
L 524.762491 283.022132 
L 525.721117 209.314923 
L 526.679742 232.856598 
L 527.638368 200.390922 
L 528.596994 114.185872 
L 529.555619 215.417216 
L 530.514245 133.37932 
L 531.47287 214.509556 
L 532.431496 146.901216 
L 533.390122 137.356324 
L 534.348747 110.456379 
L 535.307373 135.222247 
L 536.265999 228.371443 
L 537.224624 234.286389 
L 538.18325 272.601273 
L 539.141875 264.192152 
L 540.100501 272.763124 
L 541.059127 283.562154 
L 542.017752 292.809239 
L 542.976378 241.84629 
L 543.935004 275.528127 
L 544.893629 267.726379 
L 545.852255 257.640685 
L 546.81088 271.215748 
L 547.769506 204.441806 
L 548.728132 300.845108 
L 549.686757 220.833979 
L 550.645383 235.814555 
L 551.604009 210.122098 
L 552.562634 277.292905 
L 553.52126 277.524374 
L 554.479885 275.469826 
L 555.438511 277.22823 
L 556.397137 298.414831 
L 557.355762 298.550023 
L 558.314388 300.42963 
L 559.273014 293.365498 
L 560.231639 297.402177 
L 561.190265 299.440049 
L 562.14889 303.795403 
L 563.107516 301.147814 
L 564.066142 304.64253 
L 565.024767 286.983535 
L 565.983393 299.935091 
L 566.942019 296.174905 
L 567.900644 296.953103 
L 568.85927 303.827976 
L 569.817895 285.599377 
L 570.776521 303.935492 
L 571.735147 299.01277 
L 572.693772 301.934078 
L 573.652398 284.500434 
L 574.611024 305.623479 
L 575.569649 292.402411 
L 576.528275 301.749246 
L 577.486901 299.579067 
L 578.445526 299.982546 
L 579.404152 260.492436 
L 580.362777 303.808007 
L 581.321403 304.327413 
L 582.280029 300.637597 
L 583.238654 305.150842 
L 584.19728 299.802008 
L 585.155906 302.243453 
L 586.114531 289.841764 
L 587.073157 284.555941 
L 588.031782 293.668882 
L 588.990408 278.749824 
L 589.949034 296.305484 
L 590.907659 291.826371 
L 591.866285 276.604769 
L 592.824911 283.541026 
L 593.783536 304.206691 
L 594.742162 276.976832 
L 595.700787 290.960949 
L 596.659413 303.120579 
L 597.618039 252.083037 
L 598.576664 296.824792 
L 599.53529 288.655995 
L 600.493916 251.897571 
L 601.452541 265.419907 
L 602.411167 286.19969 
L 603.369792 266.546474 
L 604.328418 289.154083 
L 605.287044 248.854063 
L 606.245669 277.11496 
L 607.204295 214.767202 
L 608.162921 202.621462 
L 609.121546 194.764845 
L 610.080172 162.464233 
L 611.038797 169.577232 
L 611.997423 112.032204 
L 612.956049 109.707344 
L 613.914674 60.877458 
L 614.8733 81.219465 
L 615.831926 56.838604 
L 616.790551 56.279767 
L 617.749177 55.90795 
L 618.707802 60.302993 
L 619.666428 56.342434 
L 620.625054 59.568581 
L 621.583679 92.145608 
L 622.542305 104.769293 
L 623.500931 243.221165 
L 624.459556 226.967134 
L 625.418182 237.733697 
L 626.376807 215.101777 
L 627.335433 292.231866 
L 628.294059 232.981813 
L 629.252684 297.103994 
L 630.21131 249.66925 
L 631.169936 302.293159 
L 632.128561 305.56678 
L 633.087187 302.090162 
L 634.045812 287.2896 
L 635.004438 300.290908 
L 635.963064 287.008845 
L 636.921689 288.015136 
L 637.880315 298.698958 
L 638.838941 282.664204 
L 639.797566 298.39459 
L 640.756192 297.453845 
L 641.714817 298.774599 
L 642.673443 304.2999 
L 643.632069 292.979138 
L 644.590694 290.155814 
L 645.54932 297.161471 
L 646.507946 301.913069 
L 647.466571 293.643086 
L 648.425197 297.884001 
L 649.383822 300.887919 
L 650.342448 290.867173 
L 651.301074 303.329907 
L 652.259699 306.040511 
L 653.218325 297.208069 
L 654.176951 299.241303 
L 655.135576 293.524936 
L 656.094202 290.830898 
L 657.052827 281.874908 
L 658.011453 289.087856 
L 658.970079 284.654483 
L 659.928704 299.813825 
L 660.88733 292.314711 
L 661.845956 297.701479 
L 662.804581 301.240184 
L 663.763207 292.177387 
L 664.721832 303.466775 
L 665.680458 289.613096 
L 666.639084 286.684547 
L 667.597709 300.746134 
L 668.556335 293.471952 
L 669.514961 276.4238 
L 670.473586 303.379203 
L 672.390838 295.266824 
L 673.349463 304.745628 
L 675.266714 282.307969 
L 676.22534 301.832146 
L 677.183966 304.251919 
L 678.142591 303.551405 
L 679.101217 300.442147 
L 680.059843 303.726717 
L 681.018468 301.97908 
L 681.977094 297.700387 
L 682.935719 301.493388 
L 683.894345 302.456134 
L 684.852971 299.560669 
L 685.811596 302.163659 
L 686.770222 294.583465 
L 687.728848 290.956622 
L 688.687473 289.209393 
L 689.646099 301.137458 
L 690.604724 292.074966 
L 691.56335 295.750434 
L 692.521976 303.91428 
L 693.480601 281.622027 
L 695.397853 297.458941 
L 696.356478 285.664625 
L 697.315104 295.262853 
L 698.273729 297.679599 
L 699.232355 289.303067 
L 700.190981 288.747096 
L 701.149606 285.208848 
L 702.108232 280.868093 
L 703.066858 298.77471 
L 704.025483 301.949525 
L 704.984109 282.720896 
L 705.942734 295.556216 
L 706.90136 293.784977 
L 707.859986 295.587268 
L 708.818611 302.828084 
L 709.777237 292.697385 
L 710.735863 297.848562 
L 711.694488 298.826347 
L 712.653114 301.088675 
L 713.611739 290.72574 
L 714.570365 302.460083 
L 715.528991 294.549809 
L 716.487616 298.13587 
L 717.446242 299.063973 
L 718.404868 303.836595 
L 719.363493 300.457087 
L 720.322119 299.274605 
L 721.280744 293.708336 
L 722.23937 305.871925 
L 723.197996 300.185914 
L 725.115247 298.471409 
L 726.073873 299.327291 
L 727.032498 301.101266 
L 727.991124 300.3729 
L 728.949749 296.605326 
L 729.908375 295.201056 
L 730.867001 300.116753 
L 731.825626 293.118178 
L 732.784252 298.53735 
L 733.742878 272.345007 
L 734.701503 294.402168 
L 735.660129 279.779303 
L 737.57738 296.775405 
L 738.536006 289.335371 
L 739.494631 296.366831 
L 740.453257 291.083834 
L 741.411883 279.006291 
L 742.370508 300.060641 
L 743.329134 284.566524 
L 744.287759 289.524457 
L 745.246385 297.129977 
L 746.205011 57.736131 
L 747.163636 57.736131 
L 747.163636 57.736131 
" style="fill:none;stroke:#dd8452;stroke-linecap:round;stroke-width:1.5;"/>
   </g>
   <g id="patch_3">
    <path d="M 108 320.4 
L 108 43.2 
" style="fill:none;stroke:#ffffff;stroke-linecap:square;stroke-linejoin:miter;stroke-width:1.25;"/>
   </g>
   <g id="patch_4">
    <path d="M 777.6 320.4 
L 777.6 43.2 
" style="fill:none;stroke:#ffffff;stroke-linecap:square;stroke-linejoin:miter;stroke-width:1.25;"/>
   </g>
   <g id="patch_5">
    <path d="M 108 320.4 
L 777.6 320.4 
" style="fill:none;stroke:#ffffff;stroke-linecap:square;stroke-linejoin:miter;stroke-width:1.25;"/>
   </g>
   <g id="patch_6">
    <path d="M 108 43.2 
L 777.6 43.2 
" style="fill:none;stroke:#ffffff;stroke-linecap:square;stroke-linejoin:miter;stroke-width:1.25;"/>
   </g>
   <g id="legend_1">
    <g id="patch_7">
     <path d="M 336.77375 199.595937 
L 548.82625 199.595937 
Q 551.02625 199.595937 551.02625 197.395938 
L 551.02625 166.204062 
Q 551.02625 164.004062 548.82625 164.004062 
L 336.77375 164.004062 
Q 334.57375 164.004062 334.57375 166.204062 
L 334.57375 197.395938 
Q 334.57375 199.595937 336.77375 199.595937 
z
" style="fill:#eaeaf2;opacity:0.8;stroke:#cccccc;stroke-linejoin:miter;"/>
    </g>
    <g id="line2d_15">
     <path d="M 338.97375 172.912344 
L 360.97375 172.912344 
" style="fill:none;stroke:#4c72b0;stroke-linecap:round;stroke-width:1.5;"/>
    </g>
    <g id="line2d_16"/>
    <g id="text_14">
     <!-- Recession Periods -->
     <defs>
      <path d="M 44.390625 34.1875 
Q 47.5625 33.109375 50.5625 29.59375 
Q 53.5625 26.078125 56.59375 19.921875 
L 66.609375 0 
L 56 0 
L 46.6875 18.703125 
Q 43.0625 26.03125 39.671875 28.421875 
Q 36.28125 30.8125 30.421875 30.8125 
L 19.671875 30.8125 
L 19.671875 0 
L 9.8125 0 
L 9.8125 72.90625 
L 32.078125 72.90625 
Q 44.578125 72.90625 50.734375 67.671875 
Q 56.890625 62.453125 56.890625 51.90625 
Q 56.890625 45.015625 53.6875 40.46875 
Q 50.484375 35.9375 44.390625 34.1875 
z
M 19.671875 64.796875 
L 19.671875 38.921875 
L 32.078125 38.921875 
Q 39.203125 38.921875 42.84375 42.21875 
Q 46.484375 45.515625 46.484375 51.90625 
Q 46.484375 58.296875 42.84375 61.546875 
Q 39.203125 64.796875 32.078125 64.796875 
z
" id="DejaVuSans-82"/>
      <path d="M 56.203125 29.59375 
L 56.203125 25.203125 
L 14.890625 25.203125 
Q 15.484375 15.921875 20.484375 11.0625 
Q 25.484375 6.203125 34.421875 6.203125 
Q 39.59375 6.203125 44.453125 7.46875 
Q 49.3125 8.734375 54.109375 11.28125 
L 54.109375 2.78125 
Q 49.265625 0.734375 44.1875 -0.34375 
Q 39.109375 -1.421875 33.890625 -1.421875 
Q 20.796875 -1.421875 13.15625 6.1875 
Q 5.515625 13.8125 5.515625 26.8125 
Q 5.515625 40.234375 12.765625 48.109375 
Q 20.015625 56 32.328125 56 
Q 43.359375 56 49.78125 48.890625 
Q 56.203125 41.796875 56.203125 29.59375 
z
M 47.21875 32.234375 
Q 47.125 39.59375 43.09375 43.984375 
Q 39.0625 48.390625 32.421875 48.390625 
Q 24.90625 48.390625 20.390625 44.140625 
Q 15.875 39.890625 15.1875 32.171875 
z
" id="DejaVuSans-101"/>
      <path d="M 48.78125 52.59375 
L 48.78125 44.1875 
Q 44.96875 46.296875 41.140625 47.34375 
Q 37.3125 48.390625 33.40625 48.390625 
Q 24.65625 48.390625 19.8125 42.84375 
Q 14.984375 37.3125 14.984375 27.296875 
Q 14.984375 17.28125 19.8125 11.734375 
Q 24.65625 6.203125 33.40625 6.203125 
Q 37.3125 6.203125 41.140625 7.25 
Q 44.96875 8.296875 48.78125 10.40625 
L 48.78125 2.09375 
Q 45.015625 0.34375 40.984375 -0.53125 
Q 36.96875 -1.421875 32.421875 -1.421875 
Q 20.0625 -1.421875 12.78125 6.34375 
Q 5.515625 14.109375 5.515625 27.296875 
Q 5.515625 40.671875 12.859375 48.328125 
Q 20.21875 56 33.015625 56 
Q 37.15625 56 41.109375 55.140625 
Q 45.0625 54.296875 48.78125 52.59375 
z
" id="DejaVuSans-99"/>
      <path d="M 44.28125 53.078125 
L 44.28125 44.578125 
Q 40.484375 46.53125 36.375 47.5 
Q 32.28125 48.484375 27.875 48.484375 
Q 21.1875 48.484375 17.84375 46.4375 
Q 14.5 44.390625 14.5 40.28125 
Q 14.5 37.15625 16.890625 35.375 
Q 19.28125 33.59375 26.515625 31.984375 
L 29.59375 31.296875 
Q 39.15625 29.25 43.1875 25.515625 
Q 47.21875 21.78125 47.21875 15.09375 
Q 47.21875 7.46875 41.1875 3.015625 
Q 35.15625 -1.421875 24.609375 -1.421875 
Q 20.21875 -1.421875 15.453125 -0.5625 
Q 10.6875 0.296875 5.421875 2 
L 5.421875 11.28125 
Q 10.40625 8.6875 15.234375 7.390625 
Q 20.0625 6.109375 24.8125 6.109375 
Q 31.15625 6.109375 34.5625 8.28125 
Q 37.984375 10.453125 37.984375 14.40625 
Q 37.984375 18.0625 35.515625 20.015625 
Q 33.0625 21.96875 24.703125 23.78125 
L 21.578125 24.515625 
Q 13.234375 26.265625 9.515625 29.90625 
Q 5.8125 33.546875 5.8125 39.890625 
Q 5.8125 47.609375 11.28125 51.796875 
Q 16.75 56 26.8125 56 
Q 31.78125 56 36.171875 55.265625 
Q 40.578125 54.546875 44.28125 53.078125 
z
" id="DejaVuSans-115"/>
      <path d="M 9.421875 54.6875 
L 18.40625 54.6875 
L 18.40625 0 
L 9.421875 0 
z
M 9.421875 75.984375 
L 18.40625 75.984375 
L 18.40625 64.59375 
L 9.421875 64.59375 
z
" id="DejaVuSans-105"/>
      <path d="M 30.609375 48.390625 
Q 23.390625 48.390625 19.1875 42.75 
Q 14.984375 37.109375 14.984375 27.296875 
Q 14.984375 17.484375 19.15625 11.84375 
Q 23.34375 6.203125 30.609375 6.203125 
Q 37.796875 6.203125 41.984375 11.859375 
Q 46.1875 17.53125 46.1875 27.296875 
Q 46.1875 37.015625 41.984375 42.703125 
Q 37.796875 48.390625 30.609375 48.390625 
z
M 30.609375 56 
Q 42.328125 56 49.015625 48.375 
Q 55.71875 40.765625 55.71875 27.296875 
Q 55.71875 13.875 49.015625 6.21875 
Q 42.328125 -1.421875 30.609375 -1.421875 
Q 18.84375 -1.421875 12.171875 6.21875 
Q 5.515625 13.875 5.515625 27.296875 
Q 5.515625 40.765625 12.171875 48.375 
Q 18.84375 56 30.609375 56 
z
" id="DejaVuSans-111"/>
      <path d="M 54.890625 33.015625 
L 54.890625 0 
L 45.90625 0 
L 45.90625 32.71875 
Q 45.90625 40.484375 42.875 44.328125 
Q 39.84375 48.1875 33.796875 48.1875 
Q 26.515625 48.1875 22.3125 43.546875 
Q 18.109375 38.921875 18.109375 30.90625 
L 18.109375 0 
L 9.078125 0 
L 9.078125 54.6875 
L 18.109375 54.6875 
L 18.109375 46.1875 
Q 21.34375 51.125 25.703125 53.5625 
Q 30.078125 56 35.796875 56 
Q 45.21875 56 50.046875 50.171875 
Q 54.890625 44.34375 54.890625 33.015625 
z
" id="DejaVuSans-110"/>
      <path id="DejaVuSans-32"/>
      <path d="M 19.671875 64.796875 
L 19.671875 37.40625 
L 32.078125 37.40625 
Q 38.96875 37.40625 42.71875 40.96875 
Q 46.484375 44.53125 46.484375 51.125 
Q 46.484375 57.671875 42.71875 61.234375 
Q 38.96875 64.796875 32.078125 64.796875 
z
M 9.8125 72.90625 
L 32.078125 72.90625 
Q 44.34375 72.90625 50.609375 67.359375 
Q 56.890625 61.8125 56.890625 51.125 
Q 56.890625 40.328125 50.609375 34.8125 
Q 44.34375 29.296875 32.078125 29.296875 
L 19.671875 29.296875 
L 19.671875 0 
L 9.8125 0 
z
" id="DejaVuSans-80"/>
      <path d="M 41.109375 46.296875 
Q 39.59375 47.171875 37.8125 47.578125 
Q 36.03125 48 33.890625 48 
Q 26.265625 48 22.1875 43.046875 
Q 18.109375 38.09375 18.109375 28.8125 
L 18.109375 0 
L 9.078125 0 
L 9.078125 54.6875 
L 18.109375 54.6875 
L 18.109375 46.1875 
Q 20.953125 51.171875 25.484375 53.578125 
Q 30.03125 56 36.53125 56 
Q 37.453125 56 38.578125 55.875 
Q 39.703125 55.765625 41.0625 55.515625 
z
" id="DejaVuSans-114"/>
      <path d="M 45.40625 46.390625 
L 45.40625 75.984375 
L 54.390625 75.984375 
L 54.390625 0 
L 45.40625 0 
L 45.40625 8.203125 
Q 42.578125 3.328125 38.25 0.953125 
Q 33.9375 -1.421875 27.875 -1.421875 
Q 17.96875 -1.421875 11.734375 6.484375 
Q 5.515625 14.40625 5.515625 27.296875 
Q 5.515625 40.1875 11.734375 48.09375 
Q 17.96875 56 27.875 56 
Q 33.9375 56 38.25 53.625 
Q 42.578125 51.265625 45.40625 46.390625 
z
M 14.796875 27.296875 
Q 14.796875 17.390625 18.875 11.75 
Q 22.953125 6.109375 30.078125 6.109375 
Q 37.203125 6.109375 41.296875 11.75 
Q 45.40625 17.390625 45.40625 27.296875 
Q 45.40625 37.203125 41.296875 42.84375 
Q 37.203125 48.484375 30.078125 48.484375 
Q 22.953125 48.484375 18.875 42.84375 
Q 14.796875 37.203125 14.796875 27.296875 
z
" id="DejaVuSans-100"/>
     </defs>
     <g style="fill:#262626;" transform="translate(369.77375 176.762344)scale(0.11 -0.11)">
      <use xlink:href="#DejaVuSans-82"/>
      <use x="69.419922" xlink:href="#DejaVuSans-101"/>
      <use x="130.943359" xlink:href="#DejaVuSans-99"/>
      <use x="185.923828" xlink:href="#DejaVuSans-101"/>
      <use x="247.447266" xlink:href="#DejaVuSans-115"/>
      <use x="299.546875" xlink:href="#DejaVuSans-115"/>
      <use x="351.646484" xlink:href="#DejaVuSans-105"/>
      <use x="379.429688" xlink:href="#DejaVuSans-111"/>
      <use x="440.611328" xlink:href="#DejaVuSans-110"/>
      <use x="503.990234" xlink:href="#DejaVuSans-32"/>
      <use x="535.777344" xlink:href="#DejaVuSans-80"/>
      <use x="596.033203" xlink:href="#DejaVuSans-101"/>
      <use x="657.556641" xlink:href="#DejaVuSans-114"/>
      <use x="698.669922" xlink:href="#DejaVuSans-105"/>
      <use x="726.453125" xlink:href="#DejaVuSans-111"/>
      <use x="787.634766" xlink:href="#DejaVuSans-100"/>
      <use x="851.111328" xlink:href="#DejaVuSans-115"/>
     </g>
    </g>
    <g id="line2d_17">
     <path d="M 338.97375 189.058281 
L 360.97375 189.058281 
" style="fill:none;stroke:#dd8452;stroke-linecap:round;stroke-width:1.5;"/>
    </g>
    <g id="line2d_18"/>
    <g id="text_15">
     <!-- Probability of Current Recession -->
     <defs>
      <path d="M 48.6875 27.296875 
Q 48.6875 37.203125 44.609375 42.84375 
Q 40.53125 48.484375 33.40625 48.484375 
Q 26.265625 48.484375 22.1875 42.84375 
Q 18.109375 37.203125 18.109375 27.296875 
Q 18.109375 17.390625 22.1875 11.75 
Q 26.265625 6.109375 33.40625 6.109375 
Q 40.53125 6.109375 44.609375 11.75 
Q 48.6875 17.390625 48.6875 27.296875 
z
M 18.109375 46.390625 
Q 20.953125 51.265625 25.265625 53.625 
Q 29.59375 56 35.59375 56 
Q 45.5625 56 51.78125 48.09375 
Q 58.015625 40.1875 58.015625 27.296875 
Q 58.015625 14.40625 51.78125 6.484375 
Q 45.5625 -1.421875 35.59375 -1.421875 
Q 29.59375 -1.421875 25.265625 0.953125 
Q 20.953125 3.328125 18.109375 8.203125 
L 18.109375 0 
L 9.078125 0 
L 9.078125 75.984375 
L 18.109375 75.984375 
z
" id="DejaVuSans-98"/>
      <path d="M 34.28125 27.484375 
Q 23.390625 27.484375 19.1875 25 
Q 14.984375 22.515625 14.984375 16.5 
Q 14.984375 11.71875 18.140625 8.90625 
Q 21.296875 6.109375 26.703125 6.109375 
Q 34.1875 6.109375 38.703125 11.40625 
Q 43.21875 16.703125 43.21875 25.484375 
L 43.21875 27.484375 
z
M 52.203125 31.203125 
L 52.203125 0 
L 43.21875 0 
L 43.21875 8.296875 
Q 40.140625 3.328125 35.546875 0.953125 
Q 30.953125 -1.421875 24.3125 -1.421875 
Q 15.921875 -1.421875 10.953125 3.296875 
Q 6 8.015625 6 15.921875 
Q 6 25.140625 12.171875 29.828125 
Q 18.359375 34.515625 30.609375 34.515625 
L 43.21875 34.515625 
L 43.21875 35.40625 
Q 43.21875 41.609375 39.140625 45 
Q 35.0625 48.390625 27.6875 48.390625 
Q 23 48.390625 18.546875 47.265625 
Q 14.109375 46.140625 10.015625 43.890625 
L 10.015625 52.203125 
Q 14.9375 54.109375 19.578125 55.046875 
Q 24.21875 56 28.609375 56 
Q 40.484375 56 46.34375 49.84375 
Q 52.203125 43.703125 52.203125 31.203125 
z
" id="DejaVuSans-97"/>
      <path d="M 9.421875 75.984375 
L 18.40625 75.984375 
L 18.40625 0 
L 9.421875 0 
z
" id="DejaVuSans-108"/>
      <path d="M 18.3125 70.21875 
L 18.3125 54.6875 
L 36.8125 54.6875 
L 36.8125 47.703125 
L 18.3125 47.703125 
L 18.3125 18.015625 
Q 18.3125 11.328125 20.140625 9.421875 
Q 21.96875 7.515625 27.59375 7.515625 
L 36.8125 7.515625 
L 36.8125 0 
L 27.59375 0 
Q 17.1875 0 13.234375 3.875 
Q 9.28125 7.765625 9.28125 18.015625 
L 9.28125 47.703125 
L 2.6875 47.703125 
L 2.6875 54.6875 
L 9.28125 54.6875 
L 9.28125 70.21875 
z
" id="DejaVuSans-116"/>
      <path d="M 32.171875 -5.078125 
Q 28.375 -14.84375 24.75 -17.8125 
Q 21.140625 -20.796875 15.09375 -20.796875 
L 7.90625 -20.796875 
L 7.90625 -13.28125 
L 13.1875 -13.28125 
Q 16.890625 -13.28125 18.9375 -11.515625 
Q 21 -9.765625 23.484375 -3.21875 
L 25.09375 0.875 
L 2.984375 54.6875 
L 12.5 54.6875 
L 29.59375 11.921875 
L 46.6875 54.6875 
L 56.203125 54.6875 
z
" id="DejaVuSans-121"/>
      <path d="M 37.109375 75.984375 
L 37.109375 68.5 
L 28.515625 68.5 
Q 23.6875 68.5 21.796875 66.546875 
Q 19.921875 64.59375 19.921875 59.515625 
L 19.921875 54.6875 
L 34.71875 54.6875 
L 34.71875 47.703125 
L 19.921875 47.703125 
L 19.921875 0 
L 10.890625 0 
L 10.890625 47.703125 
L 2.296875 47.703125 
L 2.296875 54.6875 
L 10.890625 54.6875 
L 10.890625 58.5 
Q 10.890625 67.625 15.140625 71.796875 
Q 19.390625 75.984375 28.609375 75.984375 
z
" id="DejaVuSans-102"/>
      <path d="M 64.40625 67.28125 
L 64.40625 56.890625 
Q 59.421875 61.53125 53.78125 63.8125 
Q 48.140625 66.109375 41.796875 66.109375 
Q 29.296875 66.109375 22.65625 58.46875 
Q 16.015625 50.828125 16.015625 36.375 
Q 16.015625 21.96875 22.65625 14.328125 
Q 29.296875 6.6875 41.796875 6.6875 
Q 48.140625 6.6875 53.78125 8.984375 
Q 59.421875 11.28125 64.40625 15.921875 
L 64.40625 5.609375 
Q 59.234375 2.09375 53.4375 0.328125 
Q 47.65625 -1.421875 41.21875 -1.421875 
Q 24.65625 -1.421875 15.125 8.703125 
Q 5.609375 18.84375 5.609375 36.375 
Q 5.609375 53.953125 15.125 64.078125 
Q 24.65625 74.21875 41.21875 74.21875 
Q 47.75 74.21875 53.53125 72.484375 
Q 59.328125 70.75 64.40625 67.28125 
z
" id="DejaVuSans-67"/>
      <path d="M 8.5 21.578125 
L 8.5 54.6875 
L 17.484375 54.6875 
L 17.484375 21.921875 
Q 17.484375 14.15625 20.5 10.265625 
Q 23.53125 6.390625 29.59375 6.390625 
Q 36.859375 6.390625 41.078125 11.03125 
Q 45.3125 15.671875 45.3125 23.6875 
L 45.3125 54.6875 
L 54.296875 54.6875 
L 54.296875 0 
L 45.3125 0 
L 45.3125 8.40625 
Q 42.046875 3.421875 37.71875 1 
Q 33.40625 -1.421875 27.6875 -1.421875 
Q 18.265625 -1.421875 13.375 4.4375 
Q 8.5 10.296875 8.5 21.578125 
z
M 31.109375 56 
z
" id="DejaVuSans-117"/>
     </defs>
     <g style="fill:#262626;" transform="translate(369.77375 192.908281)scale(0.11 -0.11)">
      <use xlink:href="#DejaVuSans-80"/>
      <use x="60.287109" xlink:href="#DejaVuSans-114"/>
      <use x="101.369141" xlink:href="#DejaVuSans-111"/>
      <use x="162.550781" xlink:href="#DejaVuSans-98"/>
      <use x="226.027344" xlink:href="#DejaVuSans-97"/>
      <use x="287.306641" xlink:href="#DejaVuSans-98"/>
      <use x="350.783203" xlink:href="#DejaVuSans-105"/>
      <use x="378.566406" xlink:href="#DejaVuSans-108"/>
      <use x="406.349609" xlink:href="#DejaVuSans-105"/>
      <use x="434.132812" xlink:href="#DejaVuSans-116"/>
      <use x="473.341797" xlink:href="#DejaVuSans-121"/>
      <use x="532.521484" xlink:href="#DejaVuSans-32"/>
      <use x="564.308594" xlink:href="#DejaVuSans-111"/>
      <use x="625.490234" xlink:href="#DejaVuSans-102"/>
      <use x="660.695312" xlink:href="#DejaVuSans-32"/>
      <use x="692.482422" xlink:href="#DejaVuSans-67"/>
      <use x="762.306641" xlink:href="#DejaVuSans-117"/>
      <use x="825.685547" xlink:href="#DejaVuSans-114"/>
      <use x="866.783203" xlink:href="#DejaVuSans-114"/>
      <use x="907.865234" xlink:href="#DejaVuSans-101"/>
      <use x="969.388672" xlink:href="#DejaVuSans-110"/>
      <use x="1032.767578" xlink:href="#DejaVuSans-116"/>
      <use x="1071.976562" xlink:href="#DejaVuSans-32"/>
      <use x="1103.763672" xlink:href="#DejaVuSans-82"/>
      <use x="1173.183594" xlink:href="#DejaVuSans-101"/>
      <use x="1234.707031" xlink:href="#DejaVuSans-99"/>
      <use x="1289.6875" xlink:href="#DejaVuSans-101"/>
      <use x="1351.210938" xlink:href="#DejaVuSans-115"/>
      <use x="1403.310547" xlink:href="#DejaVuSans-115"/>
      <use x="1455.410156" xlink:href="#DejaVuSans-105"/>
      <use x="1483.193359" xlink:href="#DejaVuSans-111"/>
      <use x="1544.375" xlink:href="#DejaVuSans-110"/>
     </g>
    </g>
   </g>
  </g>
 </g>
 <defs>
  <clipPath id="p76db843a3a">
   <rect height="277.2" width="669.6" x="108" y="43.2"/>
  </clipPath>
 </defs>
</svg>
