<?xml version="1.0" encoding="utf-8" standalone="no"?>
<!DOCTYPE svg PUBLIC "-//W3C//DTD SVG 1.1//EN"
  "http://www.w3.org/Graphics/SVG/1.1/DTD/svg11.dtd">
<!-- Created with matplotlib (https://matplotlib.org/) -->
<svg height="360pt" version="1.1" viewBox="0 0 864 360" width="864pt" xmlns="http://www.w3.org/2000/svg" xmlns:xlink="http://www.w3.org/1999/xlink">
 <defs>
  <style type="text/css">
*{stroke-linecap:butt;stroke-linejoin:round;}
  </style>
 </defs>
 <g id="figure_1">
  <g id="patch_1">
   <path d="M 0 360 
L 864 360 
L 864 0 
L 0 0 
z
" style="fill:#ffffff;"/>
  </g>
  <g id="axes_1">
   <g id="patch_2">
    <path d="M 108 320.4 
L 777.6 320.4 
L 777.6 43.2 
L 108 43.2 
z
" style="fill:#eaeaf2;"/>
   </g>
   <g id="matplotlib.axis_1">
    <g id="xtick_1">
     <g id="line2d_1">
      <path clip-path="url(#pbd8946ad18)" d="M 147.216084 320.4 
L 147.216084 43.2 
" style="fill:none;stroke:#ffffff;stroke-linecap:round;"/>
     </g>
     <g id="text_1">
      <!-- 1969 -->
      <defs>
       <path d="M 12.40625 8.296875 
L 28.515625 8.296875 
L 28.515625 63.921875 
L 10.984375 60.40625 
L 10.984375 69.390625 
L 28.421875 72.90625 
L 38.28125 72.90625 
L 38.28125 8.296875 
L 54.390625 8.296875 
L 54.390625 0 
L 12.40625 0 
z
" id="DejaVuSans-49"/>
       <path d="M 10.984375 1.515625 
L 10.984375 10.5 
Q 14.703125 8.734375 18.5 7.8125 
Q 22.3125 6.890625 25.984375 6.890625 
Q 35.75 6.890625 40.890625 13.453125 
Q 46.046875 20.015625 46.78125 33.40625 
Q 43.953125 29.203125 39.59375 26.953125 
Q 35.25 24.703125 29.984375 24.703125 
Q 19.046875 24.703125 12.671875 31.3125 
Q 6.296875 37.9375 6.296875 49.421875 
Q 6.296875 60.640625 12.9375 67.421875 
Q 19.578125 74.21875 30.609375 74.21875 
Q 43.265625 74.21875 49.921875 64.515625 
Q 56.59375 54.828125 56.59375 36.375 
Q 56.59375 19.140625 48.40625 8.859375 
Q 40.234375 -1.421875 26.421875 -1.421875 
Q 22.703125 -1.421875 18.890625 -0.6875 
Q 15.09375 0.046875 10.984375 1.515625 
z
M 30.609375 32.421875 
Q 37.25 32.421875 41.125 36.953125 
Q 45.015625 41.5 45.015625 49.421875 
Q 45.015625 57.28125 41.125 61.84375 
Q 37.25 66.40625 30.609375 66.40625 
Q 23.96875 66.40625 20.09375 61.84375 
Q 16.21875 57.28125 16.21875 49.421875 
Q 16.21875 41.5 20.09375 36.953125 
Q 23.96875 32.421875 30.609375 32.421875 
z
" id="DejaVuSans-57"/>
       <path d="M 33.015625 40.375 
Q 26.375 40.375 22.484375 35.828125 
Q 18.609375 31.296875 18.609375 23.390625 
Q 18.609375 15.53125 22.484375 10.953125 
Q 26.375 6.390625 33.015625 6.390625 
Q 39.65625 6.390625 43.53125 10.953125 
Q 47.40625 15.53125 47.40625 23.390625 
Q 47.40625 31.296875 43.53125 35.828125 
Q 39.65625 40.375 33.015625 40.375 
z
M 52.59375 71.296875 
L 52.59375 62.3125 
Q 48.875 64.0625 45.09375 64.984375 
Q 41.3125 65.921875 37.59375 65.921875 
Q 27.828125 65.921875 22.671875 59.328125 
Q 17.53125 52.734375 16.796875 39.40625 
Q 19.671875 43.65625 24.015625 45.921875 
Q 28.375 48.1875 33.59375 48.1875 
Q 44.578125 48.1875 50.953125 41.515625 
Q 57.328125 34.859375 57.328125 23.390625 
Q 57.328125 12.15625 50.6875 5.359375 
Q 44.046875 -1.421875 33.015625 -1.421875 
Q 20.359375 -1.421875 13.671875 8.265625 
Q 6.984375 17.96875 6.984375 36.375 
Q 6.984375 53.65625 15.1875 63.9375 
Q 23.390625 74.21875 37.203125 74.21875 
Q 40.921875 74.21875 44.703125 73.484375 
Q 48.484375 72.75 52.59375 71.296875 
z
" id="DejaVuSans-54"/>
      </defs>
      <g style="fill:#262626;" transform="translate(133.218584 338.258281)scale(0.11 -0.11)">
       <use xlink:href="#DejaVuSans-49"/>
       <use x="63.623047" xlink:href="#DejaVuSans-57"/>
       <use x="127.246094" xlink:href="#DejaVuSans-54"/>
       <use x="190.869141" xlink:href="#DejaVuSans-57"/>
      </g>
     </g>
    </g>
    <g id="xtick_2">
     <g id="line2d_2">
      <path clip-path="url(#pbd8946ad18)" d="M 264.279021 320.4 
L 264.279021 43.2 
" style="fill:none;stroke:#ffffff;stroke-linecap:round;"/>
     </g>
     <g id="text_2">
      <!-- 1979 -->
      <defs>
       <path d="M 8.203125 72.90625 
L 55.078125 72.90625 
L 55.078125 68.703125 
L 28.609375 0 
L 18.3125 0 
L 43.21875 64.59375 
L 8.203125 64.59375 
z
" id="DejaVuSans-55"/>
      </defs>
      <g style="fill:#262626;" transform="translate(250.281521 338.258281)scale(0.11 -0.11)">
       <use xlink:href="#DejaVuSans-49"/>
       <use x="63.623047" xlink:href="#DejaVuSans-57"/>
       <use x="127.246094" xlink:href="#DejaVuSans-55"/>
       <use x="190.869141" xlink:href="#DejaVuSans-57"/>
      </g>
     </g>
    </g>
    <g id="xtick_3">
     <g id="line2d_3">
      <path clip-path="url(#pbd8946ad18)" d="M 381.341958 320.4 
L 381.341958 43.2 
" style="fill:none;stroke:#ffffff;stroke-linecap:round;"/>
     </g>
     <g id="text_3">
      <!-- 1989 -->
      <defs>
       <path d="M 31.78125 34.625 
Q 24.75 34.625 20.71875 30.859375 
Q 16.703125 27.09375 16.703125 20.515625 
Q 16.703125 13.921875 20.71875 10.15625 
Q 24.75 6.390625 31.78125 6.390625 
Q 38.8125 6.390625 42.859375 10.171875 
Q 46.921875 13.96875 46.921875 20.515625 
Q 46.921875 27.09375 42.890625 30.859375 
Q 38.875 34.625 31.78125 34.625 
z
M 21.921875 38.8125 
Q 15.578125 40.375 12.03125 44.71875 
Q 8.5 49.078125 8.5 55.328125 
Q 8.5 64.0625 14.71875 69.140625 
Q 20.953125 74.21875 31.78125 74.21875 
Q 42.671875 74.21875 48.875 69.140625 
Q 55.078125 64.0625 55.078125 55.328125 
Q 55.078125 49.078125 51.53125 44.71875 
Q 48 40.375 41.703125 38.8125 
Q 48.828125 37.15625 52.796875 32.3125 
Q 56.78125 27.484375 56.78125 20.515625 
Q 56.78125 9.90625 50.3125 4.234375 
Q 43.84375 -1.421875 31.78125 -1.421875 
Q 19.734375 -1.421875 13.25 4.234375 
Q 6.78125 9.90625 6.78125 20.515625 
Q 6.78125 27.484375 10.78125 32.3125 
Q 14.796875 37.15625 21.921875 38.8125 
z
M 18.3125 54.390625 
Q 18.3125 48.734375 21.84375 45.5625 
Q 25.390625 42.390625 31.78125 42.390625 
Q 38.140625 42.390625 41.71875 45.5625 
Q 45.3125 48.734375 45.3125 54.390625 
Q 45.3125 60.0625 41.71875 63.234375 
Q 38.140625 66.40625 31.78125 66.40625 
Q 25.390625 66.40625 21.84375 63.234375 
Q 18.3125 60.0625 18.3125 54.390625 
z
" id="DejaVuSans-56"/>
      </defs>
      <g style="fill:#262626;" transform="translate(367.344458 338.258281)scale(0.11 -0.11)">
       <use xlink:href="#DejaVuSans-49"/>
       <use x="63.623047" xlink:href="#DejaVuSans-57"/>
       <use x="127.246094" xlink:href="#DejaVuSans-56"/>
       <use x="190.869141" xlink:href="#DejaVuSans-57"/>
      </g>
     </g>
    </g>
    <g id="xtick_4">
     <g id="line2d_4">
      <path clip-path="url(#pbd8946ad18)" d="M 498.404895 320.4 
L 498.404895 43.2 
" style="fill:none;stroke:#ffffff;stroke-linecap:round;"/>
     </g>
     <g id="text_4">
      <!-- 1999 -->
      <g style="fill:#262626;" transform="translate(484.407395 338.258281)scale(0.11 -0.11)">
       <use xlink:href="#DejaVuSans-49"/>
       <use x="63.623047" xlink:href="#DejaVuSans-57"/>
       <use x="127.246094" xlink:href="#DejaVuSans-57"/>
       <use x="190.869141" xlink:href="#DejaVuSans-57"/>
      </g>
     </g>
    </g>
    <g id="xtick_5">
     <g id="line2d_5">
      <path clip-path="url(#pbd8946ad18)" d="M 615.467832 320.4 
L 615.467832 43.2 
" style="fill:none;stroke:#ffffff;stroke-linecap:round;"/>
     </g>
     <g id="text_5">
      <!-- 2009 -->
      <defs>
       <path d="M 19.1875 8.296875 
L 53.609375 8.296875 
L 53.609375 0 
L 7.328125 0 
L 7.328125 8.296875 
Q 12.9375 14.109375 22.625 23.890625 
Q 32.328125 33.6875 34.8125 36.53125 
Q 39.546875 41.84375 41.421875 45.53125 
Q 43.3125 49.21875 43.3125 52.78125 
Q 43.3125 58.59375 39.234375 62.25 
Q 35.15625 65.921875 28.609375 65.921875 
Q 23.96875 65.921875 18.8125 64.3125 
Q 13.671875 62.703125 7.8125 59.421875 
L 7.8125 69.390625 
Q 13.765625 71.78125 18.9375 73 
Q 24.125 74.21875 28.421875 74.21875 
Q 39.75 74.21875 46.484375 68.546875 
Q 53.21875 62.890625 53.21875 53.421875 
Q 53.21875 48.921875 51.53125 44.890625 
Q 49.859375 40.875 45.40625 35.40625 
Q 44.1875 33.984375 37.640625 27.21875 
Q 31.109375 20.453125 19.1875 8.296875 
z
" id="DejaVuSans-50"/>
       <path d="M 31.78125 66.40625 
Q 24.171875 66.40625 20.328125 58.90625 
Q 16.5 51.421875 16.5 36.375 
Q 16.5 21.390625 20.328125 13.890625 
Q 24.171875 6.390625 31.78125 6.390625 
Q 39.453125 6.390625 43.28125 13.890625 
Q 47.125 21.390625 47.125 36.375 
Q 47.125 51.421875 43.28125 58.90625 
Q 39.453125 66.40625 31.78125 66.40625 
z
M 31.78125 74.21875 
Q 44.046875 74.21875 50.515625 64.515625 
Q 56.984375 54.828125 56.984375 36.375 
Q 56.984375 17.96875 50.515625 8.265625 
Q 44.046875 -1.421875 31.78125 -1.421875 
Q 19.53125 -1.421875 13.0625 8.265625 
Q 6.59375 17.96875 6.59375 36.375 
Q 6.59375 54.828125 13.0625 64.515625 
Q 19.53125 74.21875 31.78125 74.21875 
z
" id="DejaVuSans-48"/>
      </defs>
      <g style="fill:#262626;" transform="translate(601.470332 338.258281)scale(0.11 -0.11)">
       <use xlink:href="#DejaVuSans-50"/>
       <use x="63.623047" xlink:href="#DejaVuSans-48"/>
       <use x="127.246094" xlink:href="#DejaVuSans-48"/>
       <use x="190.869141" xlink:href="#DejaVuSans-57"/>
      </g>
     </g>
    </g>
    <g id="xtick_6">
     <g id="line2d_6">
      <path clip-path="url(#pbd8946ad18)" d="M 732.530769 320.4 
L 732.530769 43.2 
" style="fill:none;stroke:#ffffff;stroke-linecap:round;"/>
     </g>
     <g id="text_6">
      <!-- 2019 -->
      <g style="fill:#262626;" transform="translate(718.533269 338.258281)scale(0.11 -0.11)">
       <use xlink:href="#DejaVuSans-50"/>
       <use x="63.623047" xlink:href="#DejaVuSans-48"/>
       <use x="127.246094" xlink:href="#DejaVuSans-49"/>
       <use x="190.869141" xlink:href="#DejaVuSans-57"/>
      </g>
     </g>
    </g>
    <g id="xtick_7"/>
    <g id="xtick_8"/>
    <g id="xtick_9"/>
    <g id="xtick_10"/>
    <g id="xtick_11"/>
    <g id="xtick_12"/>
    <g id="xtick_13"/>
    <g id="xtick_14"/>
    <g id="xtick_15"/>
    <g id="xtick_16"/>
    <g id="xtick_17"/>
    <g id="text_7">
     <!-- DATE -->
     <defs>
      <path d="M 19.671875 64.796875 
L 19.671875 8.109375 
L 31.59375 8.109375 
Q 46.6875 8.109375 53.6875 14.9375 
Q 60.6875 21.78125 60.6875 36.53125 
Q 60.6875 51.171875 53.6875 57.984375 
Q 46.6875 64.796875 31.59375 64.796875 
z
M 9.8125 72.90625 
L 30.078125 72.90625 
Q 51.265625 72.90625 61.171875 64.09375 
Q 71.09375 55.28125 71.09375 36.53125 
Q 71.09375 17.671875 61.125 8.828125 
Q 51.171875 0 30.078125 0 
L 9.8125 0 
z
" id="DejaVuSans-68"/>
      <path d="M 34.1875 63.1875 
L 20.796875 26.90625 
L 47.609375 26.90625 
z
M 28.609375 72.90625 
L 39.796875 72.90625 
L 67.578125 0 
L 57.328125 0 
L 50.6875 18.703125 
L 17.828125 18.703125 
L 11.1875 0 
L 0.78125 0 
z
" id="DejaVuSans-65"/>
      <path d="M -0.296875 72.90625 
L 61.375 72.90625 
L 61.375 64.59375 
L 35.5 64.59375 
L 35.5 0 
L 25.59375 0 
L 25.59375 64.59375 
L -0.296875 64.59375 
z
" id="DejaVuSans-84"/>
      <path d="M 9.8125 72.90625 
L 55.90625 72.90625 
L 55.90625 64.59375 
L 19.671875 64.59375 
L 19.671875 43.015625 
L 54.390625 43.015625 
L 54.390625 34.71875 
L 19.671875 34.71875 
L 19.671875 8.296875 
L 56.78125 8.296875 
L 56.78125 0 
L 9.8125 0 
z
" id="DejaVuSans-69"/>
     </defs>
     <g style="fill:#262626;" transform="translate(426.627187 353.664062)scale(0.12 -0.12)">
      <use xlink:href="#DejaVuSans-68"/>
      <use x="76.986328" xlink:href="#DejaVuSans-65"/>
      <use x="145.285156" xlink:href="#DejaVuSans-84"/>
      <use x="206.369141" xlink:href="#DejaVuSans-69"/>
     </g>
    </g>
   </g>
   <g id="matplotlib.axis_2">
    <g id="ytick_1">
     <g id="line2d_7">
      <path clip-path="url(#pbd8946ad18)" d="M 108 307.8 
L 777.6 307.8 
" style="fill:none;stroke:#ffffff;stroke-linecap:round;"/>
     </g>
     <g id="text_8">
      <!-- 0.0 -->
      <defs>
       <path d="M 10.6875 12.40625 
L 21 12.40625 
L 21 0 
L 10.6875 0 
z
" id="DejaVuSans-46"/>
      </defs>
      <g style="fill:#262626;" transform="translate(81.006563 311.979141)scale(0.11 -0.11)">
       <use xlink:href="#DejaVuSans-48"/>
       <use x="63.623047" xlink:href="#DejaVuSans-46"/>
       <use x="95.410156" xlink:href="#DejaVuSans-48"/>
      </g>
     </g>
    </g>
    <g id="ytick_2">
     <g id="line2d_8">
      <path clip-path="url(#pbd8946ad18)" d="M 108 257.4 
L 777.6 257.4 
" style="fill:none;stroke:#ffffff;stroke-linecap:round;"/>
     </g>
     <g id="text_9">
      <!-- 0.2 -->
      <g style="fill:#262626;" transform="translate(81.006563 261.579141)scale(0.11 -0.11)">
       <use xlink:href="#DejaVuSans-48"/>
       <use x="63.623047" xlink:href="#DejaVuSans-46"/>
       <use x="95.410156" xlink:href="#DejaVuSans-50"/>
      </g>
     </g>
    </g>
    <g id="ytick_3">
     <g id="line2d_9">
      <path clip-path="url(#pbd8946ad18)" d="M 108 207 
L 777.6 207 
" style="fill:none;stroke:#ffffff;stroke-linecap:round;"/>
     </g>
     <g id="text_10">
      <!-- 0.4 -->
      <defs>
       <path d="M 37.796875 64.3125 
L 12.890625 25.390625 
L 37.796875 25.390625 
z
M 35.203125 72.90625 
L 47.609375 72.90625 
L 47.609375 25.390625 
L 58.015625 25.390625 
L 58.015625 17.1875 
L 47.609375 17.1875 
L 47.609375 0 
L 37.796875 0 
L 37.796875 17.1875 
L 4.890625 17.1875 
L 4.890625 26.703125 
z
" id="DejaVuSans-52"/>
      </defs>
      <g style="fill:#262626;" transform="translate(81.006563 211.179141)scale(0.11 -0.11)">
       <use xlink:href="#DejaVuSans-48"/>
       <use x="63.623047" xlink:href="#DejaVuSans-46"/>
       <use x="95.410156" xlink:href="#DejaVuSans-52"/>
      </g>
     </g>
    </g>
    <g id="ytick_4">
     <g id="line2d_10">
      <path clip-path="url(#pbd8946ad18)" d="M 108 156.6 
L 777.6 156.6 
" style="fill:none;stroke:#ffffff;stroke-linecap:round;"/>
     </g>
     <g id="text_11">
      <!-- 0.6 -->
      <g style="fill:#262626;" transform="translate(81.006563 160.779141)scale(0.11 -0.11)">
       <use xlink:href="#DejaVuSans-48"/>
       <use x="63.623047" xlink:href="#DejaVuSans-46"/>
       <use x="95.410156" xlink:href="#DejaVuSans-54"/>
      </g>
     </g>
    </g>
    <g id="ytick_5">
     <g id="line2d_11">
      <path clip-path="url(#pbd8946ad18)" d="M 108 106.2 
L 777.6 106.2 
" style="fill:none;stroke:#ffffff;stroke-linecap:round;"/>
     </g>
     <g id="text_12">
      <!-- 0.8 -->
      <g style="fill:#262626;" transform="translate(81.006563 110.379141)scale(0.11 -0.11)">
       <use xlink:href="#DejaVuSans-48"/>
       <use x="63.623047" xlink:href="#DejaVuSans-46"/>
       <use x="95.410156" xlink:href="#DejaVuSans-56"/>
      </g>
     </g>
    </g>
    <g id="ytick_6">
     <g id="line2d_12">
      <path clip-path="url(#pbd8946ad18)" d="M 108 55.8 
L 777.6 55.8 
" style="fill:none;stroke:#ffffff;stroke-linecap:round;"/>
     </g>
     <g id="text_13">
      <!-- 1.0 -->
      <g style="fill:#262626;" transform="translate(81.006563 59.979141)scale(0.11 -0.11)">
       <use xlink:href="#DejaVuSans-49"/>
       <use x="63.623047" xlink:href="#DejaVuSans-46"/>
       <use x="95.410156" xlink:href="#DejaVuSans-48"/>
      </g>
     </g>
    </g>
   </g>
   <g id="line2d_13">
    <path clip-path="url(#pbd8946ad18)" d="M 138.436364 307.8 
L 157.946853 307.8 
L 158.922378 55.8 
L 168.677622 55.8 
L 169.653147 307.8 
L 203.796503 307.8 
L 204.772028 55.8 
L 219.404895 55.8 
L 220.38042 307.8 
L 275.985315 307.8 
L 276.960839 55.8 
L 281.838462 55.8 
L 282.813986 307.8 
L 293.544755 307.8 
L 294.52028 55.8 
L 309.153147 55.8 
L 310.128671 307.8 
L 398.901399 307.8 
L 399.876923 55.8 
L 406.705594 55.8 
L 407.681119 307.8 
L 523.768531 307.8 
L 524.744056 55.8 
L 531.572727 55.8 
L 532.548252 307.8 
L 602.786014 307.8 
L 603.761538 55.8 
L 620.345455 55.8 
L 621.320979 307.8 
L 747.163636 307.8 
L 747.163636 307.8 
" style="fill:none;stroke:#4c72b0;stroke-linecap:round;stroke-width:1.5;"/>
   </g>
   <g id="line2d_14">
    <path clip-path="url(#pbd8946ad18)" d="M 138.436364 306.541711 
L 139.411888 307.506317 
L 140.387413 307.137218 
L 141.362937 305.973817 
L 143.313986 306.50618 
L 145.265035 307.553145 
L 146.240559 307.347901 
L 147.216084 306.053826 
L 148.191608 307.150121 
L 149.167133 307.312466 
L 150.142657 305.85776 
L 151.118182 303.821103 
L 152.093706 306.617187 
L 153.069231 306.275135 
L 154.044755 306.417804 
L 155.02028 296.680522 
L 155.995804 292.035562 
L 156.971329 226.334354 
L 157.946853 228.869822 
L 158.922378 95.438167 
L 159.897902 148.821586 
L 160.873427 179.831934 
L 161.848951 113.199683 
L 162.824476 101.29495 
L 163.8 128.016558 
L 164.775524 185.238981 
L 165.751049 172.270252 
L 166.726573 128.469247 
L 167.702098 63.540381 
L 168.677622 60.564336 
L 169.653147 304.779929 
L 170.628671 307.505941 
L 171.604196 306.990608 
L 172.57972 304.332185 
L 173.555245 303.966546 
L 174.530769 306.956123 
L 176.481818 306.826281 
L 177.457343 304.663125 
L 178.432867 307.10742 
L 179.408392 307.296054 
L 180.383916 307.14992 
L 181.359441 307.598224 
L 182.334965 307.779077 
L 184.286014 307.745072 
L 186.237063 307.685586 
L 187.212587 307.578886 
L 188.188112 305.649217 
L 189.163636 307.717744 
L 190.139161 307.644734 
L 193.065734 307.748104 
L 195.992308 307.601208 
L 196.967832 306.68001 
L 197.943357 305.246907 
L 198.918881 305.089051 
L 200.86993 287.45103 
L 201.845455 298.940745 
L 202.820979 305.956131 
L 203.796503 306.601364 
L 204.772028 290.053311 
L 205.747552 225.599845 
L 206.723077 208.012511 
L 207.698601 255.781334 
L 208.674126 209.123027 
L 209.64965 292.549643 
L 210.625175 271.99615 
L 211.600699 218.891422 
L 212.576224 116.476602 
L 213.551748 82.094204 
L 214.527273 78.10637 
L 215.502797 56.041861 
L 216.478322 55.800507 
L 219.404895 55.836428 
L 220.38042 66.382369 
L 221.355944 234.647786 
L 222.331469 296.440872 
L 223.306993 307.372975 
L 224.282517 307.790358 
L 231.111189 307.782076 
L 232.086713 307.570761 
L 233.062238 306.60613 
L 234.037762 299.691365 
L 235.013287 301.730176 
L 235.988811 304.640082 
L 236.964336 302.239692 
L 237.93986 271.411592 
L 238.915385 303.111925 
L 239.890909 306.928318 
L 240.866434 306.293927 
L 241.841958 307.657071 
L 242.817483 307.780138 
L 245.744056 307.744126 
L 246.71958 307.624512 
L 247.695105 307.166146 
L 248.670629 307.454882 
L 249.646154 307.235583 
L 250.621678 307.232272 
L 251.597203 307.590417 
L 252.572727 288.50145 
L 253.548252 304.753687 
L 254.523776 307.667578 
L 255.499301 307.793745 
L 257.45035 307.701989 
L 258.425874 305.991452 
L 259.401399 305.221036 
L 260.376923 305.299249 
L 261.352448 307.217546 
L 262.327972 307.561289 
L 263.303497 307.257896 
L 264.279021 289.578148 
L 265.254545 292.931026 
L 266.23007 305.409906 
L 267.205594 226.246648 
L 268.181119 305.190877 
L 269.156643 305.668216 
L 270.132168 289.805225 
L 271.107692 243.087075 
L 272.083217 239.822097 
L 273.058741 283.429883 
L 274.034266 276.89638 
L 275.00979 287.807749 
L 275.985315 292.220973 
L 276.960839 217.632562 
L 277.936364 196.767053 
L 278.911888 56.579633 
L 279.887413 55.853911 
L 280.862937 56.002242 
L 281.838462 57.725504 
L 282.813986 267.457573 
L 283.78951 307.424694 
L 284.765035 307.72984 
L 285.740559 307.745647 
L 286.716084 307.607085 
L 288.667133 305.953601 
L 289.642657 306.853239 
L 290.618182 307.070806 
L 291.593706 306.044771 
L 292.569231 298.998639 
L 293.544755 296.58202 
L 294.52028 255.481783 
L 295.495804 144.22776 
L 296.471329 86.27718 
L 297.446853 62.581178 
L 298.422378 57.044663 
L 299.397902 56.344748 
L 300.373427 181.11747 
L 301.348951 149.084744 
L 302.324476 85.036919 
L 303.3 117.690198 
L 304.275524 81.880726 
L 305.251049 86.394296 
L 306.226573 137.275438 
L 307.202098 154.753491 
L 308.177622 120.466817 
L 309.153147 134.92046 
L 310.128671 253.491283 
L 311.104196 307.383902 
L 312.07972 306.843447 
L 313.055245 307.616531 
L 315.006294 307.790192 
L 323.786014 307.759316 
L 324.761538 307.658629 
L 325.737063 307.18402 
L 326.712587 307.169466 
L 328.663636 305.003843 
L 329.639161 291.867262 
L 330.614685 293.755849 
L 331.59021 291.165723 
L 332.565734 301.49159 
L 333.541259 301.04999 
L 334.516783 290.762798 
L 335.492308 286.922988 
L 336.467832 301.656879 
L 337.443357 291.520507 
L 338.418881 301.845364 
L 339.394406 289.724075 
L 340.36993 271.885332 
L 341.345455 299.179168 
L 342.320979 303.186193 
L 343.296503 299.530271 
L 344.272028 304.077836 
L 345.247552 304.883256 
L 346.223077 306.54106 
L 347.198601 285.333442 
L 348.174126 280.010708 
L 349.14965 298.469241 
L 350.125175 297.020066 
L 351.100699 287.611943 
L 352.076224 302.039733 
L 353.051748 302.822506 
L 354.027273 305.440871 
L 355.002797 300.838824 
L 355.978322 304.503143 
L 356.953846 306.567342 
L 357.929371 301.709201 
L 358.904895 307.383047 
L 359.88042 306.448168 
L 361.831469 307.32327 
L 362.806993 306.501474 
L 363.782517 307.383353 
L 365.733566 307.074228 
L 366.709091 307.628358 
L 367.684615 307.237257 
L 368.66014 307.224045 
L 369.635664 300.589661 
L 370.611189 306.309389 
L 371.586713 306.028963 
L 372.562238 306.664717 
L 373.537762 305.098662 
L 374.513287 305.960336 
L 375.488811 303.895825 
L 376.464336 296.453306 
L 377.43986 297.556056 
L 378.415385 305.489075 
L 379.390909 304.604594 
L 380.366434 306.35136 
L 381.341958 304.939991 
L 382.317483 299.309512 
L 383.293007 295.202112 
L 384.268531 298.095311 
L 385.244056 264.946306 
L 386.21958 271.328269 
L 387.195105 212.690481 
L 388.170629 284.298685 
L 389.146154 265.627193 
L 390.121678 257.04916 
L 391.097203 289.285803 
L 392.072727 292.91944 
L 393.048252 298.354226 
L 394.023776 306.03861 
L 394.999301 304.694057 
L 395.974825 294.829361 
L 396.95035 281.807637 
L 397.925874 287.314346 
L 398.901399 247.117613 
L 399.876923 220.962211 
L 400.852448 153.751779 
L 401.827972 95.345695 
L 402.803497 63.479817 
L 403.779021 77.527591 
L 404.754545 93.546784 
L 405.73007 75.95169 
L 406.705594 96.552611 
L 407.681119 210.303265 
L 408.656643 262.463766 
L 409.632168 301.003544 
L 410.607692 302.063079 
L 411.583217 294.984832 
L 412.558741 304.683399 
L 413.534266 296.604473 
L 414.50979 290.04588 
L 415.485315 285.533123 
L 416.460839 283.667426 
L 417.436364 297.434028 
L 418.411888 305.499623 
L 419.387413 306.643198 
L 420.362937 305.369447 
L 421.338462 302.29765 
L 422.313986 303.148562 
L 423.28951 293.152398 
L 424.265035 298.486116 
L 425.240559 305.63178 
L 426.216084 306.66515 
L 427.191608 306.182954 
L 428.167133 306.803149 
L 429.142657 306.858691 
L 430.118182 299.337621 
L 431.093706 303.450189 
L 432.069231 304.157487 
L 433.044755 301.803417 
L 434.02028 303.912669 
L 434.995804 303.623877 
L 435.971329 304.718811 
L 436.946853 306.207553 
L 437.922378 306.30809 
L 438.897902 307.048498 
L 439.873427 306.305819 
L 440.848951 304.785775 
L 441.824476 307.221294 
L 442.8 307.16963 
L 443.775524 307.454156 
L 444.751049 307.32223 
L 445.726573 305.888985 
L 446.702098 306.689933 
L 447.677622 305.839972 
L 448.653147 307.116925 
L 449.628671 307.301111 
L 450.604196 307.136152 
L 451.57972 305.45486 
L 452.555245 292.234621 
L 453.530769 288.721613 
L 454.506294 252.519213 
L 455.481818 244.55383 
L 456.457343 288.458739 
L 457.432867 261.929171 
L 458.408392 302.217242 
L 459.383916 303.674267 
L 461.334965 292.724935 
L 462.31049 297.613523 
L 463.286014 265.679279 
L 464.261538 305.867319 
L 465.237063 305.40027 
L 466.212587 306.105721 
L 467.188112 306.548433 
L 468.163636 307.139403 
L 469.139161 305.662182 
L 470.114685 306.736345 
L 471.09021 306.400012 
L 472.065734 305.675116 
L 474.016783 306.597561 
L 474.992308 304.448866 
L 475.967832 306.981846 
L 476.943357 306.760669 
L 477.918881 305.623119 
L 478.894406 305.45798 
L 479.86993 305.842118 
L 480.845455 306.650896 
L 481.820979 306.291736 
L 482.796503 307.25355 
L 484.747552 307.39901 
L 485.723077 305.622981 
L 486.698601 305.701915 
L 487.674126 305.538419 
L 488.64965 302.612756 
L 489.625175 305.291823 
L 490.600699 305.848934 
L 491.576224 296.51876 
L 492.551748 268.285716 
L 493.527273 304.976801 
L 494.502797 302.656975 
L 495.478322 302.370653 
L 496.453846 303.851294 
L 497.429371 303.311836 
L 498.404895 300.478664 
L 499.38042 305.538375 
L 500.355944 301.764777 
L 501.331469 303.103918 
L 502.306993 305.135451 
L 503.282517 302.606718 
L 504.258042 301.297073 
L 505.233566 303.31472 
L 506.209091 294.576595 
L 507.184615 306.317971 
L 508.16014 306.489328 
L 509.135664 307.007309 
L 510.111189 306.782542 
L 511.086713 302.859907 
L 512.062238 305.253802 
L 513.037762 306.783837 
L 514.013287 294.731992 
L 514.988811 297.772303 
L 515.964336 284.206696 
L 516.93986 259.131581 
L 517.915385 287.238552 
L 518.890909 271.273227 
L 519.866434 261.659474 
L 520.841958 267.969794 
L 521.817483 218.750678 
L 522.793007 176.549194 
L 523.768531 158.491784 
L 524.744056 113.498008 
L 525.71958 122.883772 
L 526.695105 86.866653 
L 527.670629 108.657134 
L 528.646154 89.035399 
L 529.621678 91.008689 
L 530.597203 84.464468 
L 531.572727 74.455268 
L 532.548252 173.921851 
L 533.523776 238.124155 
L 534.499301 279.077478 
L 535.474825 297.99052 
L 536.45035 295.060414 
L 537.425874 300.99268 
L 538.401399 305.421025 
L 539.376923 302.48093 
L 540.352448 301.415771 
L 541.327972 298.864739 
L 542.303497 290.593111 
L 543.279021 294.609377 
L 544.254545 267.514007 
L 545.23007 301.830005 
L 546.205594 287.881584 
L 547.181119 260.407942 
L 548.156643 219.087028 
L 549.132168 248.147411 
L 550.107692 282.492583 
L 551.083217 294.843711 
L 552.058741 294.463749 
L 553.034266 303.496186 
L 554.00979 303.559598 
L 554.985315 306.482617 
L 555.960839 304.954601 
L 556.936364 305.978757 
L 557.911888 306.359522 
L 558.887413 306.489302 
L 559.862937 306.304697 
L 560.838462 307.276715 
L 561.813986 303.521366 
L 562.78951 305.269246 
L 563.765035 302.588284 
L 564.740559 298.273881 
L 565.716084 305.77687 
L 566.691608 302.593226 
L 567.667133 304.828708 
L 568.642657 303.24356 
L 569.618182 302.787031 
L 570.593706 300.365343 
L 571.569231 305.093058 
L 572.544755 303.563069 
L 573.52028 304.231073 
L 574.495804 302.903005 
L 575.471329 305.39927 
L 576.446853 283.830505 
L 577.422378 303.612406 
L 578.397902 305.823413 
L 579.373427 305.960571 
L 580.348951 306.625777 
L 581.324476 304.509416 
L 582.3 300.612838 
L 583.275524 301.916256 
L 584.251049 290.778363 
L 585.226573 300.098441 
L 586.202098 291.453189 
L 587.177622 297.176359 
L 588.153147 291.147906 
L 589.128671 271.226554 
L 590.104196 264.768788 
L 591.07972 302.265298 
L 592.055245 292.287125 
L 593.030769 300.031526 
L 594.006294 304.438231 
L 594.981818 298.400594 
L 595.957343 294.475786 
L 596.932867 296.714242 
L 597.908392 270.518621 
L 598.883916 266.114004 
L 599.859441 278.305609 
L 600.834965 268.13404 
L 601.81049 280.617527 
L 602.786014 275.164712 
L 603.761538 263.835779 
L 604.737063 188.097651 
L 605.712587 169.722057 
L 606.688112 121.035123 
L 607.663636 119.189642 
L 608.639161 110.599562 
L 609.614685 78.238145 
L 610.59021 65.047365 
L 611.565734 56.216702 
L 612.541259 56.625128 
L 613.516783 55.926608 
L 614.492308 55.806892 
L 618.394406 55.874399 
L 619.36993 56.946935 
L 620.345455 67.030141 
L 621.320979 201.937115 
L 622.296503 294.782181 
L 623.272028 304.513041 
L 625.223077 306.901835 
L 626.198601 306.474446 
L 627.174126 307.165084 
L 628.14965 306.857865 
L 629.125175 307.361675 
L 630.100699 307.660691 
L 631.076224 307.707287 
L 632.051748 307.130047 
L 633.027273 306.969926 
L 634.002797 303.758821 
L 634.978322 301.138618 
L 635.953846 301.442021 
L 636.929371 301.870474 
L 637.904895 301.184131 
L 638.88042 301.342917 
L 639.855944 296.462933 
L 640.831469 305.815425 
L 641.806993 301.004701 
L 642.782517 298.569104 
L 643.758042 299.323178 
L 644.733566 303.748584 
L 645.709091 304.655322 
L 646.684615 301.914168 
L 647.66014 304.097301 
L 648.635664 295.475011 
L 649.611189 302.61052 
L 650.586713 306.785403 
L 651.562238 305.612543 
L 652.537762 304.708298 
L 653.513287 303.331434 
L 655.464336 287.551172 
L 656.43986 286.336341 
L 657.415385 280.799502 
L 658.390909 290.541501 
L 659.366434 290.260541 
L 660.341958 297.926205 
L 661.317483 304.144904 
L 662.293007 299.881761 
L 663.268531 304.563331 
L 664.244056 302.676029 
L 665.21958 295.642389 
L 666.195105 299.70833 
L 667.170629 299.664067 
L 668.146154 285.926027 
L 669.121678 302.666563 
L 670.097203 304.054718 
L 671.072727 301.423156 
L 672.048252 303.324365 
L 673.023776 301.092896 
L 673.999301 284.634909 
L 674.974825 302.912815 
L 675.95035 305.874689 
L 676.925874 306.39795 
L 677.901399 305.248738 
L 678.876923 306.011469 
L 679.852448 305.608365 
L 680.827972 301.62147 
L 681.803497 303.704399 
L 682.779021 305.260003 
L 683.754545 306.112994 
L 684.73007 305.070605 
L 685.705594 297.897029 
L 686.681119 283.871621 
L 687.656643 285.99547 
L 688.632168 292.885986 
L 689.607692 295.232317 
L 690.583217 292.773503 
L 691.558741 304.463644 
L 692.534266 295.608508 
L 693.50979 280.341243 
L 694.485315 284.723008 
L 695.460839 280.409611 
L 696.436364 285.144692 
L 697.411888 301.475128 
L 698.387413 292.174115 
L 699.362937 280.265106 
L 700.338462 277.227744 
L 701.313986 276.332686 
L 702.28951 295.840896 
L 703.265035 303.164987 
L 704.240559 295.273592 
L 705.216084 293.801465 
L 706.191608 293.5714 
L 707.167133 295.606644 
L 708.142657 304.814865 
L 709.118182 303.628111 
L 710.093706 301.80705 
L 711.069231 302.263265 
L 712.044755 305.050381 
L 713.02028 303.516398 
L 713.995804 303.555247 
L 714.971329 302.112449 
L 715.946853 299.383725 
L 716.922378 300.344987 
L 717.897902 306.307223 
L 718.873427 306.087011 
L 719.848951 305.132321 
L 720.824476 298.906333 
L 721.8 305.518606 
L 722.775524 304.572209 
L 723.751049 305.300178 
L 724.726573 301.466123 
L 725.702098 303.715237 
L 726.677622 304.727417 
L 727.653147 305.920401 
L 728.628671 303.119629 
L 730.57972 300.12108 
L 731.555245 299.245628 
L 732.530769 291.94367 
L 733.506294 275.384944 
L 734.481818 281.052396 
L 735.457343 270.688114 
L 736.432867 285.477836 
L 737.408392 296.871057 
L 738.383916 290.217178 
L 739.359441 296.400148 
L 740.334965 291.051116 
L 741.31049 278.048807 
L 742.286014 300.973991 
L 743.261538 292.99921 
L 744.237063 293.768202 
L 745.212587 298.942915 
L 746.188112 57.345525 
L 747.163636 55.804605 
L 747.163636 55.804605 
" style="fill:none;stroke:#dd8452;stroke-linecap:round;stroke-width:1.5;"/>
   </g>
   <g id="patch_3">
    <path d="M 108 320.4 
L 108 43.2 
" style="fill:none;stroke:#ffffff;stroke-linecap:square;stroke-linejoin:miter;stroke-width:1.25;"/>
   </g>
   <g id="patch_4">
    <path d="M 777.6 320.4 
L 777.6 43.2 
" style="fill:none;stroke:#ffffff;stroke-linecap:square;stroke-linejoin:miter;stroke-width:1.25;"/>
   </g>
   <g id="patch_5">
    <path d="M 108 320.4 
L 777.6 320.4 
" style="fill:none;stroke:#ffffff;stroke-linecap:square;stroke-linejoin:miter;stroke-width:1.25;"/>
   </g>
   <g id="patch_6">
    <path d="M 108 43.2 
L 777.6 43.2 
" style="fill:none;stroke:#ffffff;stroke-linecap:square;stroke-linejoin:miter;stroke-width:1.25;"/>
   </g>
   <g id="legend_1">
    <g id="patch_7">
     <path d="M 557.8475 199.595937 
L 769.9 199.595937 
Q 772.1 199.595937 772.1 197.395938 
L 772.1 166.204062 
Q 772.1 164.004062 769.9 164.004062 
L 557.8475 164.004062 
Q 555.6475 164.004062 555.6475 166.204062 
L 555.6475 197.395938 
Q 555.6475 199.595937 557.8475 199.595937 
z
" style="fill:#eaeaf2;opacity:0.8;stroke:#cccccc;stroke-linejoin:miter;"/>
    </g>
    <g id="line2d_15">
     <path d="M 560.0475 172.912344 
L 582.0475 172.912344 
" style="fill:none;stroke:#4c72b0;stroke-linecap:round;stroke-width:1.5;"/>
    </g>
    <g id="line2d_16"/>
    <g id="text_14">
     <!-- Recession Periods -->
     <defs>
      <path d="M 44.390625 34.1875 
Q 47.5625 33.109375 50.5625 29.59375 
Q 53.5625 26.078125 56.59375 19.921875 
L 66.609375 0 
L 56 0 
L 46.6875 18.703125 
Q 43.0625 26.03125 39.671875 28.421875 
Q 36.28125 30.8125 30.421875 30.8125 
L 19.671875 30.8125 
L 19.671875 0 
L 9.8125 0 
L 9.8125 72.90625 
L 32.078125 72.90625 
Q 44.578125 72.90625 50.734375 67.671875 
Q 56.890625 62.453125 56.890625 51.90625 
Q 56.890625 45.015625 53.6875 40.46875 
Q 50.484375 35.9375 44.390625 34.1875 
z
M 19.671875 64.796875 
L 19.671875 38.921875 
L 32.078125 38.921875 
Q 39.203125 38.921875 42.84375 42.21875 
Q 46.484375 45.515625 46.484375 51.90625 
Q 46.484375 58.296875 42.84375 61.546875 
Q 39.203125 64.796875 32.078125 64.796875 
z
" id="DejaVuSans-82"/>
      <path d="M 56.203125 29.59375 
L 56.203125 25.203125 
L 14.890625 25.203125 
Q 15.484375 15.921875 20.484375 11.0625 
Q 25.484375 6.203125 34.421875 6.203125 
Q 39.59375 6.203125 44.453125 7.46875 
Q 49.3125 8.734375 54.109375 11.28125 
L 54.109375 2.78125 
Q 49.265625 0.734375 44.1875 -0.34375 
Q 39.109375 -1.421875 33.890625 -1.421875 
Q 20.796875 -1.421875 13.15625 6.1875 
Q 5.515625 13.8125 5.515625 26.8125 
Q 5.515625 40.234375 12.765625 48.109375 
Q 20.015625 56 32.328125 56 
Q 43.359375 56 49.78125 48.890625 
Q 56.203125 41.796875 56.203125 29.59375 
z
M 47.21875 32.234375 
Q 47.125 39.59375 43.09375 43.984375 
Q 39.0625 48.390625 32.421875 48.390625 
Q 24.90625 48.390625 20.390625 44.140625 
Q 15.875 39.890625 15.1875 32.171875 
z
" id="DejaVuSans-101"/>
      <path d="M 48.78125 52.59375 
L 48.78125 44.1875 
Q 44.96875 46.296875 41.140625 47.34375 
Q 37.3125 48.390625 33.40625 48.390625 
Q 24.65625 48.390625 19.8125 42.84375 
Q 14.984375 37.3125 14.984375 27.296875 
Q 14.984375 17.28125 19.8125 11.734375 
Q 24.65625 6.203125 33.40625 6.203125 
Q 37.3125 6.203125 41.140625 7.25 
Q 44.96875 8.296875 48.78125 10.40625 
L 48.78125 2.09375 
Q 45.015625 0.34375 40.984375 -0.53125 
Q 36.96875 -1.421875 32.421875 -1.421875 
Q 20.0625 -1.421875 12.78125 6.34375 
Q 5.515625 14.109375 5.515625 27.296875 
Q 5.515625 40.671875 12.859375 48.328125 
Q 20.21875 56 33.015625 56 
Q 37.15625 56 41.109375 55.140625 
Q 45.0625 54.296875 48.78125 52.59375 
z
" id="DejaVuSans-99"/>
      <path d="M 44.28125 53.078125 
L 44.28125 44.578125 
Q 40.484375 46.53125 36.375 47.5 
Q 32.28125 48.484375 27.875 48.484375 
Q 21.1875 48.484375 17.84375 46.4375 
Q 14.5 44.390625 14.5 40.28125 
Q 14.5 37.15625 16.890625 35.375 
Q 19.28125 33.59375 26.515625 31.984375 
L 29.59375 31.296875 
Q 39.15625 29.25 43.1875 25.515625 
Q 47.21875 21.78125 47.21875 15.09375 
Q 47.21875 7.46875 41.1875 3.015625 
Q 35.15625 -1.421875 24.609375 -1.421875 
Q 20.21875 -1.421875 15.453125 -0.5625 
Q 10.6875 0.296875 5.421875 2 
L 5.421875 11.28125 
Q 10.40625 8.6875 15.234375 7.390625 
Q 20.0625 6.109375 24.8125 6.109375 
Q 31.15625 6.109375 34.5625 8.28125 
Q 37.984375 10.453125 37.984375 14.40625 
Q 37.984375 18.0625 35.515625 20.015625 
Q 33.0625 21.96875 24.703125 23.78125 
L 21.578125 24.515625 
Q 13.234375 26.265625 9.515625 29.90625 
Q 5.8125 33.546875 5.8125 39.890625 
Q 5.8125 47.609375 11.28125 51.796875 
Q 16.75 56 26.8125 56 
Q 31.78125 56 36.171875 55.265625 
Q 40.578125 54.546875 44.28125 53.078125 
z
" id="DejaVuSans-115"/>
      <path d="M 9.421875 54.6875 
L 18.40625 54.6875 
L 18.40625 0 
L 9.421875 0 
z
M 9.421875 75.984375 
L 18.40625 75.984375 
L 18.40625 64.59375 
L 9.421875 64.59375 
z
" id="DejaVuSans-105"/>
      <path d="M 30.609375 48.390625 
Q 23.390625 48.390625 19.1875 42.75 
Q 14.984375 37.109375 14.984375 27.296875 
Q 14.984375 17.484375 19.15625 11.84375 
Q 23.34375 6.203125 30.609375 6.203125 
Q 37.796875 6.203125 41.984375 11.859375 
Q 46.1875 17.53125 46.1875 27.296875 
Q 46.1875 37.015625 41.984375 42.703125 
Q 37.796875 48.390625 30.609375 48.390625 
z
M 30.609375 56 
Q 42.328125 56 49.015625 48.375 
Q 55.71875 40.765625 55.71875 27.296875 
Q 55.71875 13.875 49.015625 6.21875 
Q 42.328125 -1.421875 30.609375 -1.421875 
Q 18.84375 -1.421875 12.171875 6.21875 
Q 5.515625 13.875 5.515625 27.296875 
Q 5.515625 40.765625 12.171875 48.375 
Q 18.84375 56 30.609375 56 
z
" id="DejaVuSans-111"/>
      <path d="M 54.890625 33.015625 
L 54.890625 0 
L 45.90625 0 
L 45.90625 32.71875 
Q 45.90625 40.484375 42.875 44.328125 
Q 39.84375 48.1875 33.796875 48.1875 
Q 26.515625 48.1875 22.3125 43.546875 
Q 18.109375 38.921875 18.109375 30.90625 
L 18.109375 0 
L 9.078125 0 
L 9.078125 54.6875 
L 18.109375 54.6875 
L 18.109375 46.1875 
Q 21.34375 51.125 25.703125 53.5625 
Q 30.078125 56 35.796875 56 
Q 45.21875 56 50.046875 50.171875 
Q 54.890625 44.34375 54.890625 33.015625 
z
" id="DejaVuSans-110"/>
      <path id="DejaVuSans-32"/>
      <path d="M 19.671875 64.796875 
L 19.671875 37.40625 
L 32.078125 37.40625 
Q 38.96875 37.40625 42.71875 40.96875 
Q 46.484375 44.53125 46.484375 51.125 
Q 46.484375 57.671875 42.71875 61.234375 
Q 38.96875 64.796875 32.078125 64.796875 
z
M 9.8125 72.90625 
L 32.078125 72.90625 
Q 44.34375 72.90625 50.609375 67.359375 
Q 56.890625 61.8125 56.890625 51.125 
Q 56.890625 40.328125 50.609375 34.8125 
Q 44.34375 29.296875 32.078125 29.296875 
L 19.671875 29.296875 
L 19.671875 0 
L 9.8125 0 
z
" id="DejaVuSans-80"/>
      <path d="M 41.109375 46.296875 
Q 39.59375 47.171875 37.8125 47.578125 
Q 36.03125 48 33.890625 48 
Q 26.265625 48 22.1875 43.046875 
Q 18.109375 38.09375 18.109375 28.8125 
L 18.109375 0 
L 9.078125 0 
L 9.078125 54.6875 
L 18.109375 54.6875 
L 18.109375 46.1875 
Q 20.953125 51.171875 25.484375 53.578125 
Q 30.03125 56 36.53125 56 
Q 37.453125 56 38.578125 55.875 
Q 39.703125 55.765625 41.0625 55.515625 
z
" id="DejaVuSans-114"/>
      <path d="M 45.40625 46.390625 
L 45.40625 75.984375 
L 54.390625 75.984375 
L 54.390625 0 
L 45.40625 0 
L 45.40625 8.203125 
Q 42.578125 3.328125 38.25 0.953125 
Q 33.9375 -1.421875 27.875 -1.421875 
Q 17.96875 -1.421875 11.734375 6.484375 
Q 5.515625 14.40625 5.515625 27.296875 
Q 5.515625 40.1875 11.734375 48.09375 
Q 17.96875 56 27.875 56 
Q 33.9375 56 38.25 53.625 
Q 42.578125 51.265625 45.40625 46.390625 
z
M 14.796875 27.296875 
Q 14.796875 17.390625 18.875 11.75 
Q 22.953125 6.109375 30.078125 6.109375 
Q 37.203125 6.109375 41.296875 11.75 
Q 45.40625 17.390625 45.40625 27.296875 
Q 45.40625 37.203125 41.296875 42.84375 
Q 37.203125 48.484375 30.078125 48.484375 
Q 22.953125 48.484375 18.875 42.84375 
Q 14.796875 37.203125 14.796875 27.296875 
z
" id="DejaVuSans-100"/>
     </defs>
     <g style="fill:#262626;" transform="translate(590.8475 176.762344)scale(0.11 -0.11)">
      <use xlink:href="#DejaVuSans-82"/>
      <use x="69.419922" xlink:href="#DejaVuSans-101"/>
      <use x="130.943359" xlink:href="#DejaVuSans-99"/>
      <use x="185.923828" xlink:href="#DejaVuSans-101"/>
      <use x="247.447266" xlink:href="#DejaVuSans-115"/>
      <use x="299.546875" xlink:href="#DejaVuSans-115"/>
      <use x="351.646484" xlink:href="#DejaVuSans-105"/>
      <use x="379.429688" xlink:href="#DejaVuSans-111"/>
      <use x="440.611328" xlink:href="#DejaVuSans-110"/>
      <use x="503.990234" xlink:href="#DejaVuSans-32"/>
      <use x="535.777344" xlink:href="#DejaVuSans-80"/>
      <use x="596.033203" xlink:href="#DejaVuSans-101"/>
      <use x="657.556641" xlink:href="#DejaVuSans-114"/>
      <use x="698.669922" xlink:href="#DejaVuSans-105"/>
      <use x="726.453125" xlink:href="#DejaVuSans-111"/>
      <use x="787.634766" xlink:href="#DejaVuSans-100"/>
      <use x="851.111328" xlink:href="#DejaVuSans-115"/>
     </g>
    </g>
    <g id="line2d_17">
     <path d="M 560.0475 189.058281 
L 582.0475 189.058281 
" style="fill:none;stroke:#dd8452;stroke-linecap:round;stroke-width:1.5;"/>
    </g>
    <g id="line2d_18"/>
    <g id="text_15">
     <!-- Probability of Current Recession -->
     <defs>
      <path d="M 48.6875 27.296875 
Q 48.6875 37.203125 44.609375 42.84375 
Q 40.53125 48.484375 33.40625 48.484375 
Q 26.265625 48.484375 22.1875 42.84375 
Q 18.109375 37.203125 18.109375 27.296875 
Q 18.109375 17.390625 22.1875 11.75 
Q 26.265625 6.109375 33.40625 6.109375 
Q 40.53125 6.109375 44.609375 11.75 
Q 48.6875 17.390625 48.6875 27.296875 
z
M 18.109375 46.390625 
Q 20.953125 51.265625 25.265625 53.625 
Q 29.59375 56 35.59375 56 
Q 45.5625 56 51.78125 48.09375 
Q 58.015625 40.1875 58.015625 27.296875 
Q 58.015625 14.40625 51.78125 6.484375 
Q 45.5625 -1.421875 35.59375 -1.421875 
Q 29.59375 -1.421875 25.265625 0.953125 
Q 20.953125 3.328125 18.109375 8.203125 
L 18.109375 0 
L 9.078125 0 
L 9.078125 75.984375 
L 18.109375 75.984375 
z
" id="DejaVuSans-98"/>
      <path d="M 34.28125 27.484375 
Q 23.390625 27.484375 19.1875 25 
Q 14.984375 22.515625 14.984375 16.5 
Q 14.984375 11.71875 18.140625 8.90625 
Q 21.296875 6.109375 26.703125 6.109375 
Q 34.1875 6.109375 38.703125 11.40625 
Q 43.21875 16.703125 43.21875 25.484375 
L 43.21875 27.484375 
z
M 52.203125 31.203125 
L 52.203125 0 
L 43.21875 0 
L 43.21875 8.296875 
Q 40.140625 3.328125 35.546875 0.953125 
Q 30.953125 -1.421875 24.3125 -1.421875 
Q 15.921875 -1.421875 10.953125 3.296875 
Q 6 8.015625 6 15.921875 
Q 6 25.140625 12.171875 29.828125 
Q 18.359375 34.515625 30.609375 34.515625 
L 43.21875 34.515625 
L 43.21875 35.40625 
Q 43.21875 41.609375 39.140625 45 
Q 35.0625 48.390625 27.6875 48.390625 
Q 23 48.390625 18.546875 47.265625 
Q 14.109375 46.140625 10.015625 43.890625 
L 10.015625 52.203125 
Q 14.9375 54.109375 19.578125 55.046875 
Q 24.21875 56 28.609375 56 
Q 40.484375 56 46.34375 49.84375 
Q 52.203125 43.703125 52.203125 31.203125 
z
" id="DejaVuSans-97"/>
      <path d="M 9.421875 75.984375 
L 18.40625 75.984375 
L 18.40625 0 
L 9.421875 0 
z
" id="DejaVuSans-108"/>
      <path d="M 18.3125 70.21875 
L 18.3125 54.6875 
L 36.8125 54.6875 
L 36.8125 47.703125 
L 18.3125 47.703125 
L 18.3125 18.015625 
Q 18.3125 11.328125 20.140625 9.421875 
Q 21.96875 7.515625 27.59375 7.515625 
L 36.8125 7.515625 
L 36.8125 0 
L 27.59375 0 
Q 17.1875 0 13.234375 3.875 
Q 9.28125 7.765625 9.28125 18.015625 
L 9.28125 47.703125 
L 2.6875 47.703125 
L 2.6875 54.6875 
L 9.28125 54.6875 
L 9.28125 70.21875 
z
" id="DejaVuSans-116"/>
      <path d="M 32.171875 -5.078125 
Q 28.375 -14.84375 24.75 -17.8125 
Q 21.140625 -20.796875 15.09375 -20.796875 
L 7.90625 -20.796875 
L 7.90625 -13.28125 
L 13.1875 -13.28125 
Q 16.890625 -13.28125 18.9375 -11.515625 
Q 21 -9.765625 23.484375 -3.21875 
L 25.09375 0.875 
L 2.984375 54.6875 
L 12.5 54.6875 
L 29.59375 11.921875 
L 46.6875 54.6875 
L 56.203125 54.6875 
z
" id="DejaVuSans-121"/>
      <path d="M 37.109375 75.984375 
L 37.109375 68.5 
L 28.515625 68.5 
Q 23.6875 68.5 21.796875 66.546875 
Q 19.921875 64.59375 19.921875 59.515625 
L 19.921875 54.6875 
L 34.71875 54.6875 
L 34.71875 47.703125 
L 19.921875 47.703125 
L 19.921875 0 
L 10.890625 0 
L 10.890625 47.703125 
L 2.296875 47.703125 
L 2.296875 54.6875 
L 10.890625 54.6875 
L 10.890625 58.5 
Q 10.890625 67.625 15.140625 71.796875 
Q 19.390625 75.984375 28.609375 75.984375 
z
" id="DejaVuSans-102"/>
      <path d="M 64.40625 67.28125 
L 64.40625 56.890625 
Q 59.421875 61.53125 53.78125 63.8125 
Q 48.140625 66.109375 41.796875 66.109375 
Q 29.296875 66.109375 22.65625 58.46875 
Q 16.015625 50.828125 16.015625 36.375 
Q 16.015625 21.96875 22.65625 14.328125 
Q 29.296875 6.6875 41.796875 6.6875 
Q 48.140625 6.6875 53.78125 8.984375 
Q 59.421875 11.28125 64.40625 15.921875 
L 64.40625 5.609375 
Q 59.234375 2.09375 53.4375 0.328125 
Q 47.65625 -1.421875 41.21875 -1.421875 
Q 24.65625 -1.421875 15.125 8.703125 
Q 5.609375 18.84375 5.609375 36.375 
Q 5.609375 53.953125 15.125 64.078125 
Q 24.65625 74.21875 41.21875 74.21875 
Q 47.75 74.21875 53.53125 72.484375 
Q 59.328125 70.75 64.40625 67.28125 
z
" id="DejaVuSans-67"/>
      <path d="M 8.5 21.578125 
L 8.5 54.6875 
L 17.484375 54.6875 
L 17.484375 21.921875 
Q 17.484375 14.15625 20.5 10.265625 
Q 23.53125 6.390625 29.59375 6.390625 
Q 36.859375 6.390625 41.078125 11.03125 
Q 45.3125 15.671875 45.3125 23.6875 
L 45.3125 54.6875 
L 54.296875 54.6875 
L 54.296875 0 
L 45.3125 0 
L 45.3125 8.40625 
Q 42.046875 3.421875 37.71875 1 
Q 33.40625 -1.421875 27.6875 -1.421875 
Q 18.265625 -1.421875 13.375 4.4375 
Q 8.5 10.296875 8.5 21.578125 
z
M 31.109375 56 
z
" id="DejaVuSans-117"/>
     </defs>
     <g style="fill:#262626;" transform="translate(590.8475 192.908281)scale(0.11 -0.11)">
      <use xlink:href="#DejaVuSans-80"/>
      <use x="60.287109" xlink:href="#DejaVuSans-114"/>
      <use x="101.369141" xlink:href="#DejaVuSans-111"/>
      <use x="162.550781" xlink:href="#DejaVuSans-98"/>
      <use x="226.027344" xlink:href="#DejaVuSans-97"/>
      <use x="287.306641" xlink:href="#DejaVuSans-98"/>
      <use x="350.783203" xlink:href="#DejaVuSans-105"/>
      <use x="378.566406" xlink:href="#DejaVuSans-108"/>
      <use x="406.349609" xlink:href="#DejaVuSans-105"/>
      <use x="434.132812" xlink:href="#DejaVuSans-116"/>
      <use x="473.341797" xlink:href="#DejaVuSans-121"/>
      <use x="532.521484" xlink:href="#DejaVuSans-32"/>
      <use x="564.308594" xlink:href="#DejaVuSans-111"/>
      <use x="625.490234" xlink:href="#DejaVuSans-102"/>
      <use x="660.695312" xlink:href="#DejaVuSans-32"/>
      <use x="692.482422" xlink:href="#DejaVuSans-67"/>
      <use x="762.306641" xlink:href="#DejaVuSans-117"/>
      <use x="825.685547" xlink:href="#DejaVuSans-114"/>
      <use x="866.783203" xlink:href="#DejaVuSans-114"/>
      <use x="907.865234" xlink:href="#DejaVuSans-101"/>
      <use x="969.388672" xlink:href="#DejaVuSans-110"/>
      <use x="1032.767578" xlink:href="#DejaVuSans-116"/>
      <use x="1071.976562" xlink:href="#DejaVuSans-32"/>
      <use x="1103.763672" xlink:href="#DejaVuSans-82"/>
      <use x="1173.183594" xlink:href="#DejaVuSans-101"/>
      <use x="1234.707031" xlink:href="#DejaVuSans-99"/>
      <use x="1289.6875" xlink:href="#DejaVuSans-101"/>
      <use x="1351.210938" xlink:href="#DejaVuSans-115"/>
      <use x="1403.310547" xlink:href="#DejaVuSans-115"/>
      <use x="1455.410156" xlink:href="#DejaVuSans-105"/>
      <use x="1483.193359" xlink:href="#DejaVuSans-111"/>
      <use x="1544.375" xlink:href="#DejaVuSans-110"/>
     </g>
    </g>
   </g>
  </g>
 </g>
 <defs>
  <clipPath id="pbd8946ad18">
   <rect height="277.2" width="669.6" x="108" y="43.2"/>
  </clipPath>
 </defs>
</svg>
