<?xml version="1.0" encoding="utf-8" standalone="no"?>
<!DOCTYPE svg PUBLIC "-//W3C//DTD SVG 1.1//EN"
  "http://www.w3.org/Graphics/SVG/1.1/DTD/svg11.dtd">
<!-- Created with matplotlib (https://matplotlib.org/) -->
<svg height="360pt" version="1.1" viewBox="0 0 864 360" width="864pt" xmlns="http://www.w3.org/2000/svg" xmlns:xlink="http://www.w3.org/1999/xlink">
 <defs>
  <style type="text/css">
*{stroke-linecap:butt;stroke-linejoin:round;}
  </style>
 </defs>
 <g id="figure_1">
  <g id="patch_1">
   <path d="M 0 360 
L 864 360 
L 864 0 
L 0 0 
z
" style="fill:#ffffff;"/>
  </g>
  <g id="axes_1">
   <g id="patch_2">
    <path d="M 108 320.4 
L 777.6 320.4 
L 777.6 43.2 
L 108 43.2 
z
" style="fill:#eaeaf2;"/>
   </g>
   <g id="matplotlib.axis_1">
    <g id="xtick_1">
     <g id="line2d_1">
      <path clip-path="url(#p6b42fa15a3)" d="M 147.216084 320.4 
L 147.216084 43.2 
" style="fill:none;stroke:#ffffff;stroke-linecap:round;"/>
     </g>
     <g id="text_1">
      <!-- 1969 -->
      <defs>
       <path d="M 12.40625 8.296875 
L 28.515625 8.296875 
L 28.515625 63.921875 
L 10.984375 60.40625 
L 10.984375 69.390625 
L 28.421875 72.90625 
L 38.28125 72.90625 
L 38.28125 8.296875 
L 54.390625 8.296875 
L 54.390625 0 
L 12.40625 0 
z
" id="DejaVuSans-49"/>
       <path d="M 10.984375 1.515625 
L 10.984375 10.5 
Q 14.703125 8.734375 18.5 7.8125 
Q 22.3125 6.890625 25.984375 6.890625 
Q 35.75 6.890625 40.890625 13.453125 
Q 46.046875 20.015625 46.78125 33.40625 
Q 43.953125 29.203125 39.59375 26.953125 
Q 35.25 24.703125 29.984375 24.703125 
Q 19.046875 24.703125 12.671875 31.3125 
Q 6.296875 37.9375 6.296875 49.421875 
Q 6.296875 60.640625 12.9375 67.421875 
Q 19.578125 74.21875 30.609375 74.21875 
Q 43.265625 74.21875 49.921875 64.515625 
Q 56.59375 54.828125 56.59375 36.375 
Q 56.59375 19.140625 48.40625 8.859375 
Q 40.234375 -1.421875 26.421875 -1.421875 
Q 22.703125 -1.421875 18.890625 -0.6875 
Q 15.09375 0.046875 10.984375 1.515625 
z
M 30.609375 32.421875 
Q 37.25 32.421875 41.125 36.953125 
Q 45.015625 41.5 45.015625 49.421875 
Q 45.015625 57.28125 41.125 61.84375 
Q 37.25 66.40625 30.609375 66.40625 
Q 23.96875 66.40625 20.09375 61.84375 
Q 16.21875 57.28125 16.21875 49.421875 
Q 16.21875 41.5 20.09375 36.953125 
Q 23.96875 32.421875 30.609375 32.421875 
z
" id="DejaVuSans-57"/>
       <path d="M 33.015625 40.375 
Q 26.375 40.375 22.484375 35.828125 
Q 18.609375 31.296875 18.609375 23.390625 
Q 18.609375 15.53125 22.484375 10.953125 
Q 26.375 6.390625 33.015625 6.390625 
Q 39.65625 6.390625 43.53125 10.953125 
Q 47.40625 15.53125 47.40625 23.390625 
Q 47.40625 31.296875 43.53125 35.828125 
Q 39.65625 40.375 33.015625 40.375 
z
M 52.59375 71.296875 
L 52.59375 62.3125 
Q 48.875 64.0625 45.09375 64.984375 
Q 41.3125 65.921875 37.59375 65.921875 
Q 27.828125 65.921875 22.671875 59.328125 
Q 17.53125 52.734375 16.796875 39.40625 
Q 19.671875 43.65625 24.015625 45.921875 
Q 28.375 48.1875 33.59375 48.1875 
Q 44.578125 48.1875 50.953125 41.515625 
Q 57.328125 34.859375 57.328125 23.390625 
Q 57.328125 12.15625 50.6875 5.359375 
Q 44.046875 -1.421875 33.015625 -1.421875 
Q 20.359375 -1.421875 13.671875 8.265625 
Q 6.984375 17.96875 6.984375 36.375 
Q 6.984375 53.65625 15.1875 63.9375 
Q 23.390625 74.21875 37.203125 74.21875 
Q 40.921875 74.21875 44.703125 73.484375 
Q 48.484375 72.75 52.59375 71.296875 
z
" id="DejaVuSans-54"/>
      </defs>
      <g style="fill:#262626;" transform="translate(133.218584 338.258281)scale(0.11 -0.11)">
       <use xlink:href="#DejaVuSans-49"/>
       <use x="63.623047" xlink:href="#DejaVuSans-57"/>
       <use x="127.246094" xlink:href="#DejaVuSans-54"/>
       <use x="190.869141" xlink:href="#DejaVuSans-57"/>
      </g>
     </g>
    </g>
    <g id="xtick_2">
     <g id="line2d_2">
      <path clip-path="url(#p6b42fa15a3)" d="M 264.279021 320.4 
L 264.279021 43.2 
" style="fill:none;stroke:#ffffff;stroke-linecap:round;"/>
     </g>
     <g id="text_2">
      <!-- 1979 -->
      <defs>
       <path d="M 8.203125 72.90625 
L 55.078125 72.90625 
L 55.078125 68.703125 
L 28.609375 0 
L 18.3125 0 
L 43.21875 64.59375 
L 8.203125 64.59375 
z
" id="DejaVuSans-55"/>
      </defs>
      <g style="fill:#262626;" transform="translate(250.281521 338.258281)scale(0.11 -0.11)">
       <use xlink:href="#DejaVuSans-49"/>
       <use x="63.623047" xlink:href="#DejaVuSans-57"/>
       <use x="127.246094" xlink:href="#DejaVuSans-55"/>
       <use x="190.869141" xlink:href="#DejaVuSans-57"/>
      </g>
     </g>
    </g>
    <g id="xtick_3">
     <g id="line2d_3">
      <path clip-path="url(#p6b42fa15a3)" d="M 381.341958 320.4 
L 381.341958 43.2 
" style="fill:none;stroke:#ffffff;stroke-linecap:round;"/>
     </g>
     <g id="text_3">
      <!-- 1989 -->
      <defs>
       <path d="M 31.78125 34.625 
Q 24.75 34.625 20.71875 30.859375 
Q 16.703125 27.09375 16.703125 20.515625 
Q 16.703125 13.921875 20.71875 10.15625 
Q 24.75 6.390625 31.78125 6.390625 
Q 38.8125 6.390625 42.859375 10.171875 
Q 46.921875 13.96875 46.921875 20.515625 
Q 46.921875 27.09375 42.890625 30.859375 
Q 38.875 34.625 31.78125 34.625 
z
M 21.921875 38.8125 
Q 15.578125 40.375 12.03125 44.71875 
Q 8.5 49.078125 8.5 55.328125 
Q 8.5 64.0625 14.71875 69.140625 
Q 20.953125 74.21875 31.78125 74.21875 
Q 42.671875 74.21875 48.875 69.140625 
Q 55.078125 64.0625 55.078125 55.328125 
Q 55.078125 49.078125 51.53125 44.71875 
Q 48 40.375 41.703125 38.8125 
Q 48.828125 37.15625 52.796875 32.3125 
Q 56.78125 27.484375 56.78125 20.515625 
Q 56.78125 9.90625 50.3125 4.234375 
Q 43.84375 -1.421875 31.78125 -1.421875 
Q 19.734375 -1.421875 13.25 4.234375 
Q 6.78125 9.90625 6.78125 20.515625 
Q 6.78125 27.484375 10.78125 32.3125 
Q 14.796875 37.15625 21.921875 38.8125 
z
M 18.3125 54.390625 
Q 18.3125 48.734375 21.84375 45.5625 
Q 25.390625 42.390625 31.78125 42.390625 
Q 38.140625 42.390625 41.71875 45.5625 
Q 45.3125 48.734375 45.3125 54.390625 
Q 45.3125 60.0625 41.71875 63.234375 
Q 38.140625 66.40625 31.78125 66.40625 
Q 25.390625 66.40625 21.84375 63.234375 
Q 18.3125 60.0625 18.3125 54.390625 
z
" id="DejaVuSans-56"/>
      </defs>
      <g style="fill:#262626;" transform="translate(367.344458 338.258281)scale(0.11 -0.11)">
       <use xlink:href="#DejaVuSans-49"/>
       <use x="63.623047" xlink:href="#DejaVuSans-57"/>
       <use x="127.246094" xlink:href="#DejaVuSans-56"/>
       <use x="190.869141" xlink:href="#DejaVuSans-57"/>
      </g>
     </g>
    </g>
    <g id="xtick_4">
     <g id="line2d_4">
      <path clip-path="url(#p6b42fa15a3)" d="M 498.404895 320.4 
L 498.404895 43.2 
" style="fill:none;stroke:#ffffff;stroke-linecap:round;"/>
     </g>
     <g id="text_4">
      <!-- 1999 -->
      <g style="fill:#262626;" transform="translate(484.407395 338.258281)scale(0.11 -0.11)">
       <use xlink:href="#DejaVuSans-49"/>
       <use x="63.623047" xlink:href="#DejaVuSans-57"/>
       <use x="127.246094" xlink:href="#DejaVuSans-57"/>
       <use x="190.869141" xlink:href="#DejaVuSans-57"/>
      </g>
     </g>
    </g>
    <g id="xtick_5">
     <g id="line2d_5">
      <path clip-path="url(#p6b42fa15a3)" d="M 615.467832 320.4 
L 615.467832 43.2 
" style="fill:none;stroke:#ffffff;stroke-linecap:round;"/>
     </g>
     <g id="text_5">
      <!-- 2009 -->
      <defs>
       <path d="M 19.1875 8.296875 
L 53.609375 8.296875 
L 53.609375 0 
L 7.328125 0 
L 7.328125 8.296875 
Q 12.9375 14.109375 22.625 23.890625 
Q 32.328125 33.6875 34.8125 36.53125 
Q 39.546875 41.84375 41.421875 45.53125 
Q 43.3125 49.21875 43.3125 52.78125 
Q 43.3125 58.59375 39.234375 62.25 
Q 35.15625 65.921875 28.609375 65.921875 
Q 23.96875 65.921875 18.8125 64.3125 
Q 13.671875 62.703125 7.8125 59.421875 
L 7.8125 69.390625 
Q 13.765625 71.78125 18.9375 73 
Q 24.125 74.21875 28.421875 74.21875 
Q 39.75 74.21875 46.484375 68.546875 
Q 53.21875 62.890625 53.21875 53.421875 
Q 53.21875 48.921875 51.53125 44.890625 
Q 49.859375 40.875 45.40625 35.40625 
Q 44.1875 33.984375 37.640625 27.21875 
Q 31.109375 20.453125 19.1875 8.296875 
z
" id="DejaVuSans-50"/>
       <path d="M 31.78125 66.40625 
Q 24.171875 66.40625 20.328125 58.90625 
Q 16.5 51.421875 16.5 36.375 
Q 16.5 21.390625 20.328125 13.890625 
Q 24.171875 6.390625 31.78125 6.390625 
Q 39.453125 6.390625 43.28125 13.890625 
Q 47.125 21.390625 47.125 36.375 
Q 47.125 51.421875 43.28125 58.90625 
Q 39.453125 66.40625 31.78125 66.40625 
z
M 31.78125 74.21875 
Q 44.046875 74.21875 50.515625 64.515625 
Q 56.984375 54.828125 56.984375 36.375 
Q 56.984375 17.96875 50.515625 8.265625 
Q 44.046875 -1.421875 31.78125 -1.421875 
Q 19.53125 -1.421875 13.0625 8.265625 
Q 6.59375 17.96875 6.59375 36.375 
Q 6.59375 54.828125 13.0625 64.515625 
Q 19.53125 74.21875 31.78125 74.21875 
z
" id="DejaVuSans-48"/>
      </defs>
      <g style="fill:#262626;" transform="translate(601.470332 338.258281)scale(0.11 -0.11)">
       <use xlink:href="#DejaVuSans-50"/>
       <use x="63.623047" xlink:href="#DejaVuSans-48"/>
       <use x="127.246094" xlink:href="#DejaVuSans-48"/>
       <use x="190.869141" xlink:href="#DejaVuSans-57"/>
      </g>
     </g>
    </g>
    <g id="xtick_6">
     <g id="line2d_6">
      <path clip-path="url(#p6b42fa15a3)" d="M 732.530769 320.4 
L 732.530769 43.2 
" style="fill:none;stroke:#ffffff;stroke-linecap:round;"/>
     </g>
     <g id="text_6">
      <!-- 2019 -->
      <g style="fill:#262626;" transform="translate(718.533269 338.258281)scale(0.11 -0.11)">
       <use xlink:href="#DejaVuSans-50"/>
       <use x="63.623047" xlink:href="#DejaVuSans-48"/>
       <use x="127.246094" xlink:href="#DejaVuSans-49"/>
       <use x="190.869141" xlink:href="#DejaVuSans-57"/>
      </g>
     </g>
    </g>
    <g id="xtick_7"/>
    <g id="xtick_8"/>
    <g id="xtick_9"/>
    <g id="xtick_10"/>
    <g id="xtick_11"/>
    <g id="xtick_12"/>
    <g id="xtick_13"/>
    <g id="xtick_14"/>
    <g id="xtick_15"/>
    <g id="xtick_16"/>
    <g id="xtick_17"/>
    <g id="text_7">
     <!-- DATE -->
     <defs>
      <path d="M 19.671875 64.796875 
L 19.671875 8.109375 
L 31.59375 8.109375 
Q 46.6875 8.109375 53.6875 14.9375 
Q 60.6875 21.78125 60.6875 36.53125 
Q 60.6875 51.171875 53.6875 57.984375 
Q 46.6875 64.796875 31.59375 64.796875 
z
M 9.8125 72.90625 
L 30.078125 72.90625 
Q 51.265625 72.90625 61.171875 64.09375 
Q 71.09375 55.28125 71.09375 36.53125 
Q 71.09375 17.671875 61.125 8.828125 
Q 51.171875 0 30.078125 0 
L 9.8125 0 
z
" id="DejaVuSans-68"/>
      <path d="M 34.1875 63.1875 
L 20.796875 26.90625 
L 47.609375 26.90625 
z
M 28.609375 72.90625 
L 39.796875 72.90625 
L 67.578125 0 
L 57.328125 0 
L 50.6875 18.703125 
L 17.828125 18.703125 
L 11.1875 0 
L 0.78125 0 
z
" id="DejaVuSans-65"/>
      <path d="M -0.296875 72.90625 
L 61.375 72.90625 
L 61.375 64.59375 
L 35.5 64.59375 
L 35.5 0 
L 25.59375 0 
L 25.59375 64.59375 
L -0.296875 64.59375 
z
" id="DejaVuSans-84"/>
      <path d="M 9.8125 72.90625 
L 55.90625 72.90625 
L 55.90625 64.59375 
L 19.671875 64.59375 
L 19.671875 43.015625 
L 54.390625 43.015625 
L 54.390625 34.71875 
L 19.671875 34.71875 
L 19.671875 8.296875 
L 56.78125 8.296875 
L 56.78125 0 
L 9.8125 0 
z
" id="DejaVuSans-69"/>
     </defs>
     <g style="fill:#262626;" transform="translate(426.627187 353.664062)scale(0.12 -0.12)">
      <use xlink:href="#DejaVuSans-68"/>
      <use x="76.986328" xlink:href="#DejaVuSans-65"/>
      <use x="145.285156" xlink:href="#DejaVuSans-84"/>
      <use x="206.369141" xlink:href="#DejaVuSans-69"/>
     </g>
    </g>
   </g>
   <g id="matplotlib.axis_2">
    <g id="ytick_1">
     <g id="line2d_7">
      <path clip-path="url(#p6b42fa15a3)" d="M 108 307.8 
L 777.6 307.8 
" style="fill:none;stroke:#ffffff;stroke-linecap:round;"/>
     </g>
     <g id="text_8">
      <!-- 0.0 -->
      <defs>
       <path d="M 10.6875 12.40625 
L 21 12.40625 
L 21 0 
L 10.6875 0 
z
" id="DejaVuSans-46"/>
      </defs>
      <g style="fill:#262626;" transform="translate(81.006563 311.979141)scale(0.11 -0.11)">
       <use xlink:href="#DejaVuSans-48"/>
       <use x="63.623047" xlink:href="#DejaVuSans-46"/>
       <use x="95.410156" xlink:href="#DejaVuSans-48"/>
      </g>
     </g>
    </g>
    <g id="ytick_2">
     <g id="line2d_8">
      <path clip-path="url(#p6b42fa15a3)" d="M 108 257.4 
L 777.6 257.4 
" style="fill:none;stroke:#ffffff;stroke-linecap:round;"/>
     </g>
     <g id="text_9">
      <!-- 0.2 -->
      <g style="fill:#262626;" transform="translate(81.006563 261.579141)scale(0.11 -0.11)">
       <use xlink:href="#DejaVuSans-48"/>
       <use x="63.623047" xlink:href="#DejaVuSans-46"/>
       <use x="95.410156" xlink:href="#DejaVuSans-50"/>
      </g>
     </g>
    </g>
    <g id="ytick_3">
     <g id="line2d_9">
      <path clip-path="url(#p6b42fa15a3)" d="M 108 207 
L 777.6 207 
" style="fill:none;stroke:#ffffff;stroke-linecap:round;"/>
     </g>
     <g id="text_10">
      <!-- 0.4 -->
      <defs>
       <path d="M 37.796875 64.3125 
L 12.890625 25.390625 
L 37.796875 25.390625 
z
M 35.203125 72.90625 
L 47.609375 72.90625 
L 47.609375 25.390625 
L 58.015625 25.390625 
L 58.015625 17.1875 
L 47.609375 17.1875 
L 47.609375 0 
L 37.796875 0 
L 37.796875 17.1875 
L 4.890625 17.1875 
L 4.890625 26.703125 
z
" id="DejaVuSans-52"/>
      </defs>
      <g style="fill:#262626;" transform="translate(81.006563 211.179141)scale(0.11 -0.11)">
       <use xlink:href="#DejaVuSans-48"/>
       <use x="63.623047" xlink:href="#DejaVuSans-46"/>
       <use x="95.410156" xlink:href="#DejaVuSans-52"/>
      </g>
     </g>
    </g>
    <g id="ytick_4">
     <g id="line2d_10">
      <path clip-path="url(#p6b42fa15a3)" d="M 108 156.6 
L 777.6 156.6 
" style="fill:none;stroke:#ffffff;stroke-linecap:round;"/>
     </g>
     <g id="text_11">
      <!-- 0.6 -->
      <g style="fill:#262626;" transform="translate(81.006563 160.779141)scale(0.11 -0.11)">
       <use xlink:href="#DejaVuSans-48"/>
       <use x="63.623047" xlink:href="#DejaVuSans-46"/>
       <use x="95.410156" xlink:href="#DejaVuSans-54"/>
      </g>
     </g>
    </g>
    <g id="ytick_5">
     <g id="line2d_11">
      <path clip-path="url(#p6b42fa15a3)" d="M 108 106.2 
L 777.6 106.2 
" style="fill:none;stroke:#ffffff;stroke-linecap:round;"/>
     </g>
     <g id="text_12">
      <!-- 0.8 -->
      <g style="fill:#262626;" transform="translate(81.006563 110.379141)scale(0.11 -0.11)">
       <use xlink:href="#DejaVuSans-48"/>
       <use x="63.623047" xlink:href="#DejaVuSans-46"/>
       <use x="95.410156" xlink:href="#DejaVuSans-56"/>
      </g>
     </g>
    </g>
    <g id="ytick_6">
     <g id="line2d_12">
      <path clip-path="url(#p6b42fa15a3)" d="M 108 55.8 
L 777.6 55.8 
" style="fill:none;stroke:#ffffff;stroke-linecap:round;"/>
     </g>
     <g id="text_13">
      <!-- 1.0 -->
      <g style="fill:#262626;" transform="translate(81.006563 59.979141)scale(0.11 -0.11)">
       <use xlink:href="#DejaVuSans-49"/>
       <use x="63.623047" xlink:href="#DejaVuSans-46"/>
       <use x="95.410156" xlink:href="#DejaVuSans-48"/>
      </g>
     </g>
    </g>
   </g>
   <g id="line2d_13">
    <path clip-path="url(#p6b42fa15a3)" d="M 138.436364 307.8 
L 157.946853 307.8 
L 158.922378 55.8 
L 168.677622 55.8 
L 169.653147 307.8 
L 203.796503 307.8 
L 204.772028 55.8 
L 219.404895 55.8 
L 220.38042 307.8 
L 275.985315 307.8 
L 276.960839 55.8 
L 281.838462 55.8 
L 282.813986 307.8 
L 293.544755 307.8 
L 294.52028 55.8 
L 309.153147 55.8 
L 310.128671 307.8 
L 398.901399 307.8 
L 399.876923 55.8 
L 406.705594 55.8 
L 407.681119 307.8 
L 523.768531 307.8 
L 524.744056 55.8 
L 531.572727 55.8 
L 532.548252 307.8 
L 602.786014 307.8 
L 603.761538 55.8 
L 620.345455 55.8 
L 621.320979 307.8 
L 747.163636 307.8 
L 747.163636 307.8 
" style="fill:none;stroke:#4c72b0;stroke-linecap:round;stroke-width:1.5;"/>
   </g>
   <g id="line2d_14">
    <path clip-path="url(#p6b42fa15a3)" d="M 138.436364 300.558152 
L 139.411888 301.668012 
L 140.387413 298.575297 
L 141.362937 297.368063 
L 142.338462 296.478482 
L 143.313986 295.036088 
L 144.28951 291.727207 
L 145.265035 292.439949 
L 146.240559 294.344301 
L 147.216084 279.895671 
L 148.191608 288.746777 
L 149.167133 292.677158 
L 150.142657 281.212762 
L 151.118182 278.930075 
L 152.093706 286.569908 
L 153.069231 273.690724 
L 154.044755 283.24589 
L 155.02028 185.785278 
L 155.995804 210.956545 
L 156.971329 158.429115 
L 157.946853 162.243177 
L 158.922378 88.733462 
L 159.897902 133.462317 
L 161.848951 96.884153 
L 162.824476 83.60633 
L 163.8 90.695316 
L 164.775524 115.253648 
L 165.751049 125.280992 
L 166.726573 120.368339 
L 167.702098 83.831265 
L 168.677622 127.334358 
L 169.653147 298.046287 
L 170.628671 302.588807 
L 171.604196 289.895154 
L 172.57972 263.928821 
L 173.555245 292.370521 
L 174.530769 299.738574 
L 176.481818 283.408825 
L 177.457343 272.931269 
L 178.432867 302.449887 
L 179.408392 300.364539 
L 180.383916 293.585757 
L 181.359441 288.157492 
L 182.334965 301.83047 
L 183.31049 301.317145 
L 184.286014 301.065163 
L 185.261538 297.950192 
L 186.237063 301.229405 
L 187.212587 302.251429 
L 188.188112 282.118385 
L 189.163636 301.611182 
L 190.139161 293.947923 
L 191.114685 299.865436 
L 192.09021 299.301313 
L 193.065734 293.538593 
L 194.041259 273.173358 
L 195.016783 291.168635 
L 195.992308 276.553825 
L 196.967832 222.626276 
L 197.943357 204.168885 
L 198.918881 242.985252 
L 199.894406 221.938287 
L 200.86993 193.944611 
L 201.845455 182.826246 
L 202.820979 239.989969 
L 203.796503 257.673235 
L 204.772028 157.228241 
L 205.747552 130.895399 
L 206.723077 139.136849 
L 207.698601 170.738725 
L 208.674126 152.312395 
L 209.64965 201.202408 
L 210.625175 154.179211 
L 211.600699 142.024206 
L 212.576224 104.466822 
L 213.551748 79.814614 
L 214.527273 69.886103 
L 215.502797 58.710869 
L 216.478322 56.82371 
L 217.453846 63.235877 
L 218.429371 100.571109 
L 219.404895 162.562565 
L 220.38042 191.298099 
L 221.355944 281.045962 
L 222.331469 275.787296 
L 223.306993 296.774034 
L 224.282517 305.255303 
L 225.258042 297.019247 
L 227.209091 301.431043 
L 228.184615 306.202171 
L 229.16014 307.59265 
L 230.135664 307.582539 
L 231.111189 306.480885 
L 232.086713 303.491551 
L 233.062238 302.368117 
L 234.037762 283.41346 
L 235.988811 272.379593 
L 236.964336 275.80943 
L 237.93986 233.629919 
L 238.915385 275.157597 
L 239.890909 291.54149 
L 240.866434 293.580414 
L 241.841958 297.842454 
L 242.817483 304.19364 
L 243.793007 304.809219 
L 244.768531 302.595631 
L 245.744056 302.763906 
L 246.71958 300.745541 
L 247.695105 293.432918 
L 248.670629 300.924201 
L 249.646154 296.66078 
L 250.621678 296.199049 
L 251.597203 297.422363 
L 252.572727 250.703341 
L 253.548252 274.783246 
L 254.523776 293.973545 
L 255.499301 303.555868 
L 256.474825 283.349435 
L 257.45035 276.849097 
L 258.425874 205.490247 
L 259.401399 248.529699 
L 260.376923 235.33511 
L 261.352448 277.389202 
L 262.327972 290.36519 
L 263.303497 283.996363 
L 264.279021 242.769743 
L 265.254545 241.794548 
L 266.23007 260.365398 
L 267.205594 164.426256 
L 268.181119 265.322348 
L 269.156643 263.538453 
L 270.132168 206.877657 
L 271.107692 127.711503 
L 272.083217 155.75407 
L 273.058741 145.823212 
L 274.034266 146.368895 
L 275.00979 128.472884 
L 275.985315 127.16158 
L 276.960839 124.479637 
L 277.936364 111.473244 
L 278.911888 58.170073 
L 279.887413 57.732156 
L 280.862937 69.998571 
L 281.838462 136.559424 
L 282.813986 294.53558 
L 283.78951 299.527646 
L 284.765035 303.680106 
L 285.740559 303.447328 
L 286.716084 299.05626 
L 287.691608 288.799281 
L 288.667133 264.592986 
L 289.642657 285.120288 
L 290.618182 289.547758 
L 291.593706 285.21785 
L 292.569231 270.668993 
L 293.544755 264.440659 
L 294.52028 208.81094 
L 295.495804 95.1731 
L 296.471329 68.906363 
L 297.446853 61.627199 
L 298.422378 67.124106 
L 299.397902 79.061023 
L 300.373427 216.651368 
L 301.348951 177.16192 
L 302.324476 157.775603 
L 303.3 156.817663 
L 304.275524 147.56914 
L 306.226573 190.734696 
L 307.202098 203.46667 
L 308.177622 203.590586 
L 309.153147 259.863085 
L 310.128671 289.838504 
L 311.104196 304.144306 
L 312.07972 294.187003 
L 313.055245 304.251794 
L 314.030769 305.154256 
L 315.006294 307.23274 
L 315.981818 307.254573 
L 316.957343 307.430541 
L 317.932867 302.903172 
L 318.908392 307.495826 
L 319.883916 306.758302 
L 320.859441 306.361348 
L 321.834965 305.446564 
L 322.81049 304.9253 
L 323.786014 303.390279 
L 324.761538 297.546789 
L 325.737063 285.530901 
L 327.688112 296.151334 
L 328.663636 291.472201 
L 329.639161 224.649292 
L 330.614685 231.975435 
L 331.59021 226.743447 
L 332.565734 270.17137 
L 333.541259 246.675333 
L 334.516783 199.432293 
L 335.492308 191.49748 
L 336.467832 226.229704 
L 337.443357 192.9798 
L 338.418881 221.110877 
L 339.394406 180.007706 
L 340.36993 172.137828 
L 341.345455 221.380911 
L 342.320979 250.601493 
L 343.296503 208.458991 
L 344.272028 230.220401 
L 345.247552 232.816873 
L 346.223077 272.965269 
L 347.198601 197.855082 
L 348.174126 184.327608 
L 350.125175 250.447477 
L 351.100699 205.041889 
L 352.076224 260.137681 
L 353.051748 249.770394 
L 354.027273 285.696555 
L 355.002797 257.822314 
L 355.978322 223.157399 
L 356.953846 268.509926 
L 357.929371 238.43399 
L 358.904895 279.156209 
L 359.88042 279.77608 
L 360.855944 289.431396 
L 361.831469 288.652004 
L 362.806993 285.204925 
L 363.782517 296.226905 
L 364.758042 297.306703 
L 365.733566 301.45881 
L 366.709091 299.270202 
L 367.684615 285.36283 
L 368.66014 295.422446 
L 369.635664 262.135168 
L 370.611189 288.55756 
L 371.586713 287.488001 
L 372.562238 295.759308 
L 373.537762 277.640142 
L 374.513287 289.57033 
L 376.464336 263.475716 
L 377.43986 248.661275 
L 378.415385 261.860669 
L 379.390909 268.007322 
L 380.366434 288.479276 
L 381.341958 278.773162 
L 383.293007 250.586178 
L 384.268531 233.369428 
L 385.244056 194.933853 
L 386.21958 182.415666 
L 387.195105 153.053647 
L 388.170629 193.321409 
L 389.146154 127.989199 
L 390.121678 134.900279 
L 392.072727 183.993383 
L 393.048252 242.230654 
L 394.023776 264.276613 
L 394.999301 254.116571 
L 395.974825 206.006646 
L 396.95035 190.91013 
L 397.925874 213.309788 
L 398.901399 193.33407 
L 399.876923 144.02842 
L 400.852448 120.005607 
L 401.827972 101.518152 
L 402.803497 91.648956 
L 403.779021 100.515277 
L 404.754545 132.079926 
L 405.73007 108.560791 
L 406.705594 148.46046 
L 407.681119 222.202536 
L 408.656643 228.048737 
L 409.632168 270.901788 
L 411.583217 256.821164 
L 412.558741 277.230843 
L 413.534266 271.892896 
L 414.50979 271.11682 
L 415.485315 249.08507 
L 416.460839 274.798403 
L 417.436364 288.92029 
L 418.411888 299.200822 
L 419.387413 301.021694 
L 421.338462 290.07561 
L 422.313986 296.217311 
L 423.28951 286.306794 
L 424.265035 284.794623 
L 425.240559 294.082266 
L 426.216084 295.986875 
L 427.191608 299.622726 
L 428.167133 304.158011 
L 429.142657 301.591746 
L 430.118182 276.691004 
L 432.069231 287.482666 
L 433.044755 284.643976 
L 434.02028 278.829959 
L 434.995804 280.649803 
L 435.971329 284.952941 
L 436.946853 288.559357 
L 437.922378 294.714908 
L 438.897902 298.628973 
L 439.873427 294.336855 
L 440.848951 296.489005 
L 441.824476 300.74829 
L 442.8 300.261497 
L 443.775524 302.205193 
L 444.751049 295.831347 
L 445.726573 292.612804 
L 446.702098 293.157732 
L 447.677622 292.014897 
L 448.653147 288.666988 
L 449.628671 290.296605 
L 450.604196 293.620895 
L 451.57972 283.692405 
L 452.555245 266.643029 
L 453.530769 235.000578 
L 454.506294 176.872165 
L 455.481818 168.781564 
L 456.457343 223.187767 
L 457.432867 216.787566 
L 458.408392 251.695491 
L 459.383916 253.753597 
L 460.359441 237.824808 
L 461.334965 227.946887 
L 462.31049 260.013046 
L 463.286014 228.638613 
L 464.261538 287.536418 
L 465.237063 275.502813 
L 466.212587 288.248529 
L 467.188112 279.277152 
L 468.163636 296.702244 
L 469.139161 289.36862 
L 470.114685 292.141755 
L 471.09021 285.286841 
L 472.065734 292.264449 
L 473.041259 296.804077 
L 474.016783 292.80552 
L 474.992308 287.843186 
L 475.967832 296.27687 
L 476.943357 295.930129 
L 477.918881 291.552927 
L 478.894406 286.468892 
L 479.86993 283.838995 
L 480.845455 299.237386 
L 481.820979 297.509482 
L 482.796503 298.934552 
L 483.772028 299.884348 
L 484.747552 298.424314 
L 485.723077 293.736991 
L 486.698601 294.573837 
L 487.674126 285.470668 
L 488.64965 285.518787 
L 489.625175 289.218575 
L 490.600699 289.725231 
L 491.576224 265.470654 
L 492.551748 216.885263 
L 493.527273 248.648339 
L 494.502797 228.977302 
L 495.478322 234.100276 
L 496.453846 223.669068 
L 497.429371 261.862316 
L 498.404895 244.224659 
L 499.38042 267.744293 
L 500.355944 246.867172 
L 501.331469 248.033378 
L 502.306993 263.556009 
L 503.282517 276.000458 
L 504.258042 272.290512 
L 505.233566 250.421505 
L 506.209091 253.1729 
L 507.184615 276.767003 
L 508.16014 278.884307 
L 509.135664 296.855721 
L 510.111189 291.661686 
L 511.086713 281.308934 
L 512.062238 288.052298 
L 513.037762 296.699414 
L 514.013287 246.340556 
L 514.988811 256.793178 
L 515.964336 249.648595 
L 516.93986 193.26729 
L 517.915385 239.0587 
L 518.890909 176.709581 
L 519.866434 154.958584 
L 520.841958 160.55729 
L 521.817483 135.926463 
L 522.793007 126.120113 
L 523.768531 120.955336 
L 524.744056 93.578465 
L 525.71958 102.173694 
L 526.695105 95.58759 
L 527.670629 106.484112 
L 528.646154 105.954977 
L 529.621678 105.795429 
L 530.597203 98.028362 
L 531.572727 126.197606 
L 532.548252 164.637248 
L 533.523776 195.12784 
L 534.499301 247.704074 
L 535.474825 257.414792 
L 536.45035 255.992045 
L 537.425874 279.697783 
L 538.401399 286.781164 
L 539.376923 278.605602 
L 540.352448 274.018972 
L 541.327972 256.89479 
L 542.303497 275.132413 
L 543.279021 268.253973 
L 544.254545 237.934786 
L 545.23007 274.32775 
L 546.205594 234.699866 
L 547.181119 215.755136 
L 548.156643 179.667633 
L 549.132168 204.106365 
L 551.083217 268.407667 
L 552.058741 259.851889 
L 553.034266 271.597916 
L 554.985315 289.625084 
L 555.960839 275.545541 
L 556.936364 283.235686 
L 557.911888 266.784316 
L 558.887413 286.659721 
L 559.862937 293.470997 
L 560.838462 294.035369 
L 561.813986 278.978102 
L 562.78951 281.552638 
L 563.765035 272.805716 
L 564.740559 284.709674 
L 565.716084 283.084626 
L 566.691608 247.212489 
L 567.667133 274.318882 
L 568.642657 259.797341 
L 569.618182 273.595148 
L 570.593706 249.071902 
L 571.569231 269.94389 
L 572.544755 253.344887 
L 573.52028 271.210043 
L 574.495804 278.845233 
L 575.471329 274.586403 
L 576.446853 228.348387 
L 577.422378 271.798142 
L 578.397902 262.780444 
L 579.373427 277.583986 
L 580.348951 273.967425 
L 581.324476 266.088411 
L 582.3 271.895311 
L 583.275524 259.390997 
L 584.251049 209.429707 
L 585.226573 235.875673 
L 586.202098 210.858473 
L 587.177622 226.261253 
L 588.153147 194.685398 
L 589.128671 144.518135 
L 590.104196 126.788516 
L 591.07972 182.633079 
L 592.055245 191.854849 
L 593.030769 206.677246 
L 594.006294 240.166771 
L 594.981818 231.652631 
L 595.957343 243.483998 
L 596.932867 252.788315 
L 597.908392 213.485021 
L 598.883916 190.807293 
L 599.859441 213.852988 
L 600.834965 209.691243 
L 601.81049 238.32684 
L 602.786014 172.396984 
L 603.761538 183.52966 
L 604.737063 123.643755 
L 605.712587 124.195125 
L 606.688112 106.587018 
L 607.663636 120.013427 
L 608.639161 110.291533 
L 609.614685 120.010045 
L 610.59021 100.893228 
L 611.565734 78.579064 
L 612.541259 100.28086 
L 613.516783 79.237081 
L 615.467832 71.32377 
L 616.443357 110.780534 
L 617.418881 116.27083 
L 618.394406 119.055087 
L 619.36993 151.185395 
L 620.345455 217.48674 
L 622.296503 280.699613 
L 623.272028 283.854877 
L 624.247552 272.340556 
L 625.223077 298.837455 
L 627.174126 306.669582 
L 628.14965 305.156793 
L 629.125175 307.161273 
L 630.100699 307.489756 
L 631.076224 307.575885 
L 632.051748 306.656044 
L 633.027273 305.955383 
L 634.002797 304.428624 
L 634.978322 303.606527 
L 635.953846 302.358848 
L 636.929371 296.741019 
L 637.904895 297.27897 
L 638.88042 296.277327 
L 639.855944 297.179688 
L 640.831469 297.455081 
L 641.806993 296.278711 
L 642.782517 293.611233 
L 643.758042 289.603298 
L 644.733566 301.133131 
L 645.709091 298.498444 
L 646.684615 300.536934 
L 647.66014 301.573272 
L 648.635664 298.390819 
L 649.611189 301.62414 
L 650.586713 303.951766 
L 651.562238 304.516188 
L 652.537762 302.631795 
L 653.513287 299.655883 
L 655.464336 288.873541 
L 657.415385 252.580724 
L 658.390909 271.861319 
L 659.366434 265.036074 
L 661.317483 281.918906 
L 662.293007 279.664014 
L 663.268531 294.699009 
L 664.244056 293.19374 
L 665.21958 281.648898 
L 666.195105 285.477603 
L 667.170629 287.093345 
L 668.146154 282.763335 
L 669.121678 290.715804 
L 670.097203 285.802511 
L 671.072727 291.278852 
L 672.048252 293.505404 
L 673.023776 289.321803 
L 673.999301 275.922766 
L 674.974825 282.38884 
L 675.95035 292.731219 
L 676.925874 299.771982 
L 677.901399 295.214942 
L 678.876923 295.445898 
L 679.852448 296.782045 
L 680.827972 291.561959 
L 681.803497 289.888653 
L 682.779021 291.241544 
L 683.754545 291.227033 
L 684.73007 285.070607 
L 685.705594 283.766051 
L 686.681119 252.518049 
L 687.656643 231.500672 
L 688.632168 264.101015 
L 689.607692 262.026344 
L 690.583217 255.895739 
L 691.558741 275.316618 
L 692.534266 234.160745 
L 693.50979 215.514779 
L 694.485315 226.318247 
L 695.460839 195.310498 
L 696.436364 220.060792 
L 697.411888 231.015108 
L 698.387413 225.177894 
L 699.362937 214.636918 
L 700.338462 191.415851 
L 701.313986 186.62338 
L 702.28951 212.958556 
L 703.265035 246.272778 
L 704.240559 228.466665 
L 705.216084 239.56405 
L 706.191608 229.081095 
L 708.142657 277.068699 
L 709.118182 264.493042 
L 710.093706 277.40716 
L 711.069231 275.614939 
L 712.044755 284.154576 
L 713.02028 267.007533 
L 713.995804 277.062923 
L 714.971329 274.211309 
L 715.946853 280.319825 
L 716.922378 284.620263 
L 717.897902 290.638445 
L 718.873427 292.34253 
L 719.848951 292.424656 
L 720.824476 279.646609 
L 721.8 295.914873 
L 722.775524 289.843532 
L 723.751049 287.36454 
L 724.726573 277.515937 
L 725.702098 291.358185 
L 726.677622 287.689566 
L 727.653147 290.360553 
L 728.628671 271.026608 
L 729.604196 264.562543 
L 730.57972 269.288285 
L 731.555245 254.32923 
L 732.530769 253.16906 
L 733.506294 229.58697 
L 734.481818 241.861722 
L 735.457343 241.470055 
L 736.432867 257.24356 
L 737.408392 242.974185 
L 738.383916 247.287721 
L 739.359441 248.824153 
L 740.334965 238.125254 
L 741.31049 240.221379 
L 742.286014 246.572057 
L 743.261538 217.579567 
L 744.237063 255.879463 
L 745.212587 242.441408 
L 746.188112 86.947762 
L 747.163636 86.408911 
L 747.163636 86.408911 
" style="fill:none;stroke:#dd8452;stroke-linecap:round;stroke-width:1.5;"/>
   </g>
   <g id="patch_3">
    <path d="M 108 320.4 
L 108 43.2 
" style="fill:none;stroke:#ffffff;stroke-linecap:square;stroke-linejoin:miter;stroke-width:1.25;"/>
   </g>
   <g id="patch_4">
    <path d="M 777.6 320.4 
L 777.6 43.2 
" style="fill:none;stroke:#ffffff;stroke-linecap:square;stroke-linejoin:miter;stroke-width:1.25;"/>
   </g>
   <g id="patch_5">
    <path d="M 108 320.4 
L 777.6 320.4 
" style="fill:none;stroke:#ffffff;stroke-linecap:square;stroke-linejoin:miter;stroke-width:1.25;"/>
   </g>
   <g id="patch_6">
    <path d="M 108 43.2 
L 777.6 43.2 
" style="fill:none;stroke:#ffffff;stroke-linecap:square;stroke-linejoin:miter;stroke-width:1.25;"/>
   </g>
   <g id="legend_1">
    <g id="patch_7">
     <path d="M 525.890781 199.595937 
L 769.9 199.595937 
Q 772.1 199.595937 772.1 197.395938 
L 772.1 166.204062 
Q 772.1 164.004062 769.9 164.004062 
L 525.890781 164.004062 
Q 523.690781 164.004062 523.690781 166.204062 
L 523.690781 197.395938 
Q 523.690781 199.595937 525.890781 199.595937 
z
" style="fill:#eaeaf2;opacity:0.8;stroke:#cccccc;stroke-linejoin:miter;"/>
    </g>
    <g id="line2d_15">
     <path d="M 528.090781 172.912344 
L 550.090781 172.912344 
" style="fill:none;stroke:#4c72b0;stroke-linecap:round;stroke-width:1.5;"/>
    </g>
    <g id="line2d_16"/>
    <g id="text_14">
     <!-- Recession Periods -->
     <defs>
      <path d="M 44.390625 34.1875 
Q 47.5625 33.109375 50.5625 29.59375 
Q 53.5625 26.078125 56.59375 19.921875 
L 66.609375 0 
L 56 0 
L 46.6875 18.703125 
Q 43.0625 26.03125 39.671875 28.421875 
Q 36.28125 30.8125 30.421875 30.8125 
L 19.671875 30.8125 
L 19.671875 0 
L 9.8125 0 
L 9.8125 72.90625 
L 32.078125 72.90625 
Q 44.578125 72.90625 50.734375 67.671875 
Q 56.890625 62.453125 56.890625 51.90625 
Q 56.890625 45.015625 53.6875 40.46875 
Q 50.484375 35.9375 44.390625 34.1875 
z
M 19.671875 64.796875 
L 19.671875 38.921875 
L 32.078125 38.921875 
Q 39.203125 38.921875 42.84375 42.21875 
Q 46.484375 45.515625 46.484375 51.90625 
Q 46.484375 58.296875 42.84375 61.546875 
Q 39.203125 64.796875 32.078125 64.796875 
z
" id="DejaVuSans-82"/>
      <path d="M 56.203125 29.59375 
L 56.203125 25.203125 
L 14.890625 25.203125 
Q 15.484375 15.921875 20.484375 11.0625 
Q 25.484375 6.203125 34.421875 6.203125 
Q 39.59375 6.203125 44.453125 7.46875 
Q 49.3125 8.734375 54.109375 11.28125 
L 54.109375 2.78125 
Q 49.265625 0.734375 44.1875 -0.34375 
Q 39.109375 -1.421875 33.890625 -1.421875 
Q 20.796875 -1.421875 13.15625 6.1875 
Q 5.515625 13.8125 5.515625 26.8125 
Q 5.515625 40.234375 12.765625 48.109375 
Q 20.015625 56 32.328125 56 
Q 43.359375 56 49.78125 48.890625 
Q 56.203125 41.796875 56.203125 29.59375 
z
M 47.21875 32.234375 
Q 47.125 39.59375 43.09375 43.984375 
Q 39.0625 48.390625 32.421875 48.390625 
Q 24.90625 48.390625 20.390625 44.140625 
Q 15.875 39.890625 15.1875 32.171875 
z
" id="DejaVuSans-101"/>
      <path d="M 48.78125 52.59375 
L 48.78125 44.1875 
Q 44.96875 46.296875 41.140625 47.34375 
Q 37.3125 48.390625 33.40625 48.390625 
Q 24.65625 48.390625 19.8125 42.84375 
Q 14.984375 37.3125 14.984375 27.296875 
Q 14.984375 17.28125 19.8125 11.734375 
Q 24.65625 6.203125 33.40625 6.203125 
Q 37.3125 6.203125 41.140625 7.25 
Q 44.96875 8.296875 48.78125 10.40625 
L 48.78125 2.09375 
Q 45.015625 0.34375 40.984375 -0.53125 
Q 36.96875 -1.421875 32.421875 -1.421875 
Q 20.0625 -1.421875 12.78125 6.34375 
Q 5.515625 14.109375 5.515625 27.296875 
Q 5.515625 40.671875 12.859375 48.328125 
Q 20.21875 56 33.015625 56 
Q 37.15625 56 41.109375 55.140625 
Q 45.0625 54.296875 48.78125 52.59375 
z
" id="DejaVuSans-99"/>
      <path d="M 44.28125 53.078125 
L 44.28125 44.578125 
Q 40.484375 46.53125 36.375 47.5 
Q 32.28125 48.484375 27.875 48.484375 
Q 21.1875 48.484375 17.84375 46.4375 
Q 14.5 44.390625 14.5 40.28125 
Q 14.5 37.15625 16.890625 35.375 
Q 19.28125 33.59375 26.515625 31.984375 
L 29.59375 31.296875 
Q 39.15625 29.25 43.1875 25.515625 
Q 47.21875 21.78125 47.21875 15.09375 
Q 47.21875 7.46875 41.1875 3.015625 
Q 35.15625 -1.421875 24.609375 -1.421875 
Q 20.21875 -1.421875 15.453125 -0.5625 
Q 10.6875 0.296875 5.421875 2 
L 5.421875 11.28125 
Q 10.40625 8.6875 15.234375 7.390625 
Q 20.0625 6.109375 24.8125 6.109375 
Q 31.15625 6.109375 34.5625 8.28125 
Q 37.984375 10.453125 37.984375 14.40625 
Q 37.984375 18.0625 35.515625 20.015625 
Q 33.0625 21.96875 24.703125 23.78125 
L 21.578125 24.515625 
Q 13.234375 26.265625 9.515625 29.90625 
Q 5.8125 33.546875 5.8125 39.890625 
Q 5.8125 47.609375 11.28125 51.796875 
Q 16.75 56 26.8125 56 
Q 31.78125 56 36.171875 55.265625 
Q 40.578125 54.546875 44.28125 53.078125 
z
" id="DejaVuSans-115"/>
      <path d="M 9.421875 54.6875 
L 18.40625 54.6875 
L 18.40625 0 
L 9.421875 0 
z
M 9.421875 75.984375 
L 18.40625 75.984375 
L 18.40625 64.59375 
L 9.421875 64.59375 
z
" id="DejaVuSans-105"/>
      <path d="M 30.609375 48.390625 
Q 23.390625 48.390625 19.1875 42.75 
Q 14.984375 37.109375 14.984375 27.296875 
Q 14.984375 17.484375 19.15625 11.84375 
Q 23.34375 6.203125 30.609375 6.203125 
Q 37.796875 6.203125 41.984375 11.859375 
Q 46.1875 17.53125 46.1875 27.296875 
Q 46.1875 37.015625 41.984375 42.703125 
Q 37.796875 48.390625 30.609375 48.390625 
z
M 30.609375 56 
Q 42.328125 56 49.015625 48.375 
Q 55.71875 40.765625 55.71875 27.296875 
Q 55.71875 13.875 49.015625 6.21875 
Q 42.328125 -1.421875 30.609375 -1.421875 
Q 18.84375 -1.421875 12.171875 6.21875 
Q 5.515625 13.875 5.515625 27.296875 
Q 5.515625 40.765625 12.171875 48.375 
Q 18.84375 56 30.609375 56 
z
" id="DejaVuSans-111"/>
      <path d="M 54.890625 33.015625 
L 54.890625 0 
L 45.90625 0 
L 45.90625 32.71875 
Q 45.90625 40.484375 42.875 44.328125 
Q 39.84375 48.1875 33.796875 48.1875 
Q 26.515625 48.1875 22.3125 43.546875 
Q 18.109375 38.921875 18.109375 30.90625 
L 18.109375 0 
L 9.078125 0 
L 9.078125 54.6875 
L 18.109375 54.6875 
L 18.109375 46.1875 
Q 21.34375 51.125 25.703125 53.5625 
Q 30.078125 56 35.796875 56 
Q 45.21875 56 50.046875 50.171875 
Q 54.890625 44.34375 54.890625 33.015625 
z
" id="DejaVuSans-110"/>
      <path id="DejaVuSans-32"/>
      <path d="M 19.671875 64.796875 
L 19.671875 37.40625 
L 32.078125 37.40625 
Q 38.96875 37.40625 42.71875 40.96875 
Q 46.484375 44.53125 46.484375 51.125 
Q 46.484375 57.671875 42.71875 61.234375 
Q 38.96875 64.796875 32.078125 64.796875 
z
M 9.8125 72.90625 
L 32.078125 72.90625 
Q 44.34375 72.90625 50.609375 67.359375 
Q 56.890625 61.8125 56.890625 51.125 
Q 56.890625 40.328125 50.609375 34.8125 
Q 44.34375 29.296875 32.078125 29.296875 
L 19.671875 29.296875 
L 19.671875 0 
L 9.8125 0 
z
" id="DejaVuSans-80"/>
      <path d="M 41.109375 46.296875 
Q 39.59375 47.171875 37.8125 47.578125 
Q 36.03125 48 33.890625 48 
Q 26.265625 48 22.1875 43.046875 
Q 18.109375 38.09375 18.109375 28.8125 
L 18.109375 0 
L 9.078125 0 
L 9.078125 54.6875 
L 18.109375 54.6875 
L 18.109375 46.1875 
Q 20.953125 51.171875 25.484375 53.578125 
Q 30.03125 56 36.53125 56 
Q 37.453125 56 38.578125 55.875 
Q 39.703125 55.765625 41.0625 55.515625 
z
" id="DejaVuSans-114"/>
      <path d="M 45.40625 46.390625 
L 45.40625 75.984375 
L 54.390625 75.984375 
L 54.390625 0 
L 45.40625 0 
L 45.40625 8.203125 
Q 42.578125 3.328125 38.25 0.953125 
Q 33.9375 -1.421875 27.875 -1.421875 
Q 17.96875 -1.421875 11.734375 6.484375 
Q 5.515625 14.40625 5.515625 27.296875 
Q 5.515625 40.1875 11.734375 48.09375 
Q 17.96875 56 27.875 56 
Q 33.9375 56 38.25 53.625 
Q 42.578125 51.265625 45.40625 46.390625 
z
M 14.796875 27.296875 
Q 14.796875 17.390625 18.875 11.75 
Q 22.953125 6.109375 30.078125 6.109375 
Q 37.203125 6.109375 41.296875 11.75 
Q 45.40625 17.390625 45.40625 27.296875 
Q 45.40625 37.203125 41.296875 42.84375 
Q 37.203125 48.484375 30.078125 48.484375 
Q 22.953125 48.484375 18.875 42.84375 
Q 14.796875 37.203125 14.796875 27.296875 
z
" id="DejaVuSans-100"/>
     </defs>
     <g style="fill:#262626;" transform="translate(558.890781 176.762344)scale(0.11 -0.11)">
      <use xlink:href="#DejaVuSans-82"/>
      <use x="69.419922" xlink:href="#DejaVuSans-101"/>
      <use x="130.943359" xlink:href="#DejaVuSans-99"/>
      <use x="185.923828" xlink:href="#DejaVuSans-101"/>
      <use x="247.447266" xlink:href="#DejaVuSans-115"/>
      <use x="299.546875" xlink:href="#DejaVuSans-115"/>
      <use x="351.646484" xlink:href="#DejaVuSans-105"/>
      <use x="379.429688" xlink:href="#DejaVuSans-111"/>
      <use x="440.611328" xlink:href="#DejaVuSans-110"/>
      <use x="503.990234" xlink:href="#DejaVuSans-32"/>
      <use x="535.777344" xlink:href="#DejaVuSans-80"/>
      <use x="596.033203" xlink:href="#DejaVuSans-101"/>
      <use x="657.556641" xlink:href="#DejaVuSans-114"/>
      <use x="698.669922" xlink:href="#DejaVuSans-105"/>
      <use x="726.453125" xlink:href="#DejaVuSans-111"/>
      <use x="787.634766" xlink:href="#DejaVuSans-100"/>
      <use x="851.111328" xlink:href="#DejaVuSans-115"/>
     </g>
    </g>
    <g id="line2d_17">
     <path d="M 528.090781 189.058281 
L 550.090781 189.058281 
" style="fill:none;stroke:#dd8452;stroke-linecap:round;stroke-width:1.5;"/>
    </g>
    <g id="line2d_18"/>
    <g id="text_15">
     <!-- Probability of Recession Within a Year -->
     <defs>
      <path d="M 48.6875 27.296875 
Q 48.6875 37.203125 44.609375 42.84375 
Q 40.53125 48.484375 33.40625 48.484375 
Q 26.265625 48.484375 22.1875 42.84375 
Q 18.109375 37.203125 18.109375 27.296875 
Q 18.109375 17.390625 22.1875 11.75 
Q 26.265625 6.109375 33.40625 6.109375 
Q 40.53125 6.109375 44.609375 11.75 
Q 48.6875 17.390625 48.6875 27.296875 
z
M 18.109375 46.390625 
Q 20.953125 51.265625 25.265625 53.625 
Q 29.59375 56 35.59375 56 
Q 45.5625 56 51.78125 48.09375 
Q 58.015625 40.1875 58.015625 27.296875 
Q 58.015625 14.40625 51.78125 6.484375 
Q 45.5625 -1.421875 35.59375 -1.421875 
Q 29.59375 -1.421875 25.265625 0.953125 
Q 20.953125 3.328125 18.109375 8.203125 
L 18.109375 0 
L 9.078125 0 
L 9.078125 75.984375 
L 18.109375 75.984375 
z
" id="DejaVuSans-98"/>
      <path d="M 34.28125 27.484375 
Q 23.390625 27.484375 19.1875 25 
Q 14.984375 22.515625 14.984375 16.5 
Q 14.984375 11.71875 18.140625 8.90625 
Q 21.296875 6.109375 26.703125 6.109375 
Q 34.1875 6.109375 38.703125 11.40625 
Q 43.21875 16.703125 43.21875 25.484375 
L 43.21875 27.484375 
z
M 52.203125 31.203125 
L 52.203125 0 
L 43.21875 0 
L 43.21875 8.296875 
Q 40.140625 3.328125 35.546875 0.953125 
Q 30.953125 -1.421875 24.3125 -1.421875 
Q 15.921875 -1.421875 10.953125 3.296875 
Q 6 8.015625 6 15.921875 
Q 6 25.140625 12.171875 29.828125 
Q 18.359375 34.515625 30.609375 34.515625 
L 43.21875 34.515625 
L 43.21875 35.40625 
Q 43.21875 41.609375 39.140625 45 
Q 35.0625 48.390625 27.6875 48.390625 
Q 23 48.390625 18.546875 47.265625 
Q 14.109375 46.140625 10.015625 43.890625 
L 10.015625 52.203125 
Q 14.9375 54.109375 19.578125 55.046875 
Q 24.21875 56 28.609375 56 
Q 40.484375 56 46.34375 49.84375 
Q 52.203125 43.703125 52.203125 31.203125 
z
" id="DejaVuSans-97"/>
      <path d="M 9.421875 75.984375 
L 18.40625 75.984375 
L 18.40625 0 
L 9.421875 0 
z
" id="DejaVuSans-108"/>
      <path d="M 18.3125 70.21875 
L 18.3125 54.6875 
L 36.8125 54.6875 
L 36.8125 47.703125 
L 18.3125 47.703125 
L 18.3125 18.015625 
Q 18.3125 11.328125 20.140625 9.421875 
Q 21.96875 7.515625 27.59375 7.515625 
L 36.8125 7.515625 
L 36.8125 0 
L 27.59375 0 
Q 17.1875 0 13.234375 3.875 
Q 9.28125 7.765625 9.28125 18.015625 
L 9.28125 47.703125 
L 2.6875 47.703125 
L 2.6875 54.6875 
L 9.28125 54.6875 
L 9.28125 70.21875 
z
" id="DejaVuSans-116"/>
      <path d="M 32.171875 -5.078125 
Q 28.375 -14.84375 24.75 -17.8125 
Q 21.140625 -20.796875 15.09375 -20.796875 
L 7.90625 -20.796875 
L 7.90625 -13.28125 
L 13.1875 -13.28125 
Q 16.890625 -13.28125 18.9375 -11.515625 
Q 21 -9.765625 23.484375 -3.21875 
L 25.09375 0.875 
L 2.984375 54.6875 
L 12.5 54.6875 
L 29.59375 11.921875 
L 46.6875 54.6875 
L 56.203125 54.6875 
z
" id="DejaVuSans-121"/>
      <path d="M 37.109375 75.984375 
L 37.109375 68.5 
L 28.515625 68.5 
Q 23.6875 68.5 21.796875 66.546875 
Q 19.921875 64.59375 19.921875 59.515625 
L 19.921875 54.6875 
L 34.71875 54.6875 
L 34.71875 47.703125 
L 19.921875 47.703125 
L 19.921875 0 
L 10.890625 0 
L 10.890625 47.703125 
L 2.296875 47.703125 
L 2.296875 54.6875 
L 10.890625 54.6875 
L 10.890625 58.5 
Q 10.890625 67.625 15.140625 71.796875 
Q 19.390625 75.984375 28.609375 75.984375 
z
" id="DejaVuSans-102"/>
      <path d="M 3.328125 72.90625 
L 13.28125 72.90625 
L 28.609375 11.28125 
L 43.890625 72.90625 
L 54.984375 72.90625 
L 70.3125 11.28125 
L 85.59375 72.90625 
L 95.609375 72.90625 
L 77.296875 0 
L 64.890625 0 
L 49.515625 63.28125 
L 33.984375 0 
L 21.578125 0 
z
" id="DejaVuSans-87"/>
      <path d="M 54.890625 33.015625 
L 54.890625 0 
L 45.90625 0 
L 45.90625 32.71875 
Q 45.90625 40.484375 42.875 44.328125 
Q 39.84375 48.1875 33.796875 48.1875 
Q 26.515625 48.1875 22.3125 43.546875 
Q 18.109375 38.921875 18.109375 30.90625 
L 18.109375 0 
L 9.078125 0 
L 9.078125 75.984375 
L 18.109375 75.984375 
L 18.109375 46.1875 
Q 21.34375 51.125 25.703125 53.5625 
Q 30.078125 56 35.796875 56 
Q 45.21875 56 50.046875 50.171875 
Q 54.890625 44.34375 54.890625 33.015625 
z
" id="DejaVuSans-104"/>
      <path d="M -0.203125 72.90625 
L 10.40625 72.90625 
L 30.609375 42.921875 
L 50.6875 72.90625 
L 61.28125 72.90625 
L 35.5 34.71875 
L 35.5 0 
L 25.59375 0 
L 25.59375 34.71875 
z
" id="DejaVuSans-89"/>
     </defs>
     <g style="fill:#262626;" transform="translate(558.890781 192.908281)scale(0.11 -0.11)">
      <use xlink:href="#DejaVuSans-80"/>
      <use x="60.287109" xlink:href="#DejaVuSans-114"/>
      <use x="101.369141" xlink:href="#DejaVuSans-111"/>
      <use x="162.550781" xlink:href="#DejaVuSans-98"/>
      <use x="226.027344" xlink:href="#DejaVuSans-97"/>
      <use x="287.306641" xlink:href="#DejaVuSans-98"/>
      <use x="350.783203" xlink:href="#DejaVuSans-105"/>
      <use x="378.566406" xlink:href="#DejaVuSans-108"/>
      <use x="406.349609" xlink:href="#DejaVuSans-105"/>
      <use x="434.132812" xlink:href="#DejaVuSans-116"/>
      <use x="473.341797" xlink:href="#DejaVuSans-121"/>
      <use x="532.521484" xlink:href="#DejaVuSans-32"/>
      <use x="564.308594" xlink:href="#DejaVuSans-111"/>
      <use x="625.490234" xlink:href="#DejaVuSans-102"/>
      <use x="660.695312" xlink:href="#DejaVuSans-32"/>
      <use x="692.482422" xlink:href="#DejaVuSans-82"/>
      <use x="761.902344" xlink:href="#DejaVuSans-101"/>
      <use x="823.425781" xlink:href="#DejaVuSans-99"/>
      <use x="878.40625" xlink:href="#DejaVuSans-101"/>
      <use x="939.929688" xlink:href="#DejaVuSans-115"/>
      <use x="992.029297" xlink:href="#DejaVuSans-115"/>
      <use x="1044.128906" xlink:href="#DejaVuSans-105"/>
      <use x="1071.912109" xlink:href="#DejaVuSans-111"/>
      <use x="1133.09375" xlink:href="#DejaVuSans-110"/>
      <use x="1196.472656" xlink:href="#DejaVuSans-32"/>
      <use x="1228.259766" xlink:href="#DejaVuSans-87"/>
      <use x="1327.105469" xlink:href="#DejaVuSans-105"/>
      <use x="1354.888672" xlink:href="#DejaVuSans-116"/>
      <use x="1394.097656" xlink:href="#DejaVuSans-104"/>
      <use x="1457.476562" xlink:href="#DejaVuSans-105"/>
      <use x="1485.259766" xlink:href="#DejaVuSans-110"/>
      <use x="1548.638672" xlink:href="#DejaVuSans-32"/>
      <use x="1580.425781" xlink:href="#DejaVuSans-97"/>
      <use x="1641.705078" xlink:href="#DejaVuSans-32"/>
      <use x="1673.492188" xlink:href="#DejaVuSans-89"/>
      <use x="1734.373047" xlink:href="#DejaVuSans-101"/>
      <use x="1795.896484" xlink:href="#DejaVuSans-97"/>
      <use x="1857.175781" xlink:href="#DejaVuSans-114"/>
     </g>
    </g>
   </g>
  </g>
 </g>
 <defs>
  <clipPath id="p6b42fa15a3">
   <rect height="277.2" width="669.6" x="108" y="43.2"/>
  </clipPath>
 </defs>
</svg>
